<mxfile host="app.diagrams.net" modified="2023-08-24T14:25:07.947Z" agent="Mozilla/5.0 (Windows NT 10.0; Win64; x64) AppleWebKit/537.36 (KHTML, like Gecko) Chrome/116.0.0.0 Safari/537.36" etag="bf-7T1MWeEzHGITu5TTF" version="21.6.9" type="github">
  <diagram name="Page-1" id="12e1b939-464a-85fe-373e-61e167be1490">
    <mxGraphModel dx="1562" dy="873" grid="1" gridSize="10" guides="1" tooltips="1" connect="1" arrows="1" fold="1" page="1" pageScale="1.5" pageWidth="1169" pageHeight="826" background="none" math="0" shadow="0">
      <root>
        <mxCell id="0" />
        <mxCell id="1" parent="0" />
        <mxCell id="8X-mc3TndRLZHefKCfvU-2" value="&lt;b&gt;&lt;font style=&quot;font-size: 17px;&quot;&gt;Cluster Architecture&lt;/font&gt;&lt;/b&gt;" style="rounded=0;whiteSpace=wrap;html=1;fillColor=#f8cecc;strokeColor=#b85450;" parent="1" vertex="1">
          <mxGeometry x="250" y="160" width="210" height="100" as="geometry" />
        </mxCell>
        <mxCell id="8X-mc3TndRLZHefKCfvU-4" value="&lt;b&gt;&lt;font style=&quot;font-size: 35px;&quot;&gt;1&lt;/font&gt;&lt;/b&gt;" style="rounded=0;whiteSpace=wrap;html=1;fillColor=#f8cecc;strokeColor=#b85450;" parent="1" vertex="1">
          <mxGeometry x="200" y="160" width="50" height="100" as="geometry" />
        </mxCell>
        <mxCell id="8X-mc3TndRLZHefKCfvU-5" value="" style="shape=image;verticalLabelPosition=bottom;labelBackgroundColor=default;verticalAlign=top;aspect=fixed;imageAspect=0;image=data:image/svg+xml,PHN2ZyB4bWxucz0iaHR0cDovL3d3dy53My5vcmcvMjAwMC9zdmciIHZpZXdCb3g9IjAgMCAxMjUyLjIgNTg1LjA0IiB2ZXJzaW9uPSIxLjEiIGhlaWdodD0iMTU0Ljc5bW0iIHdpZHRoPSIzMzEuMzFtbSIgaWQ9InN2ZzI3NyI+JiN4YTsgPHRpdGxlIGlkPSJ0aXRsZTM1OTciPkt1YmVybmV0ZXMgY29tcG9uZW50czwvdGl0bGU+JiN4YTsgPG1ldGFkYXRhIGlkPSJtZXRhZGF0YTIiPiYjeGE7ICAmI3hhOyAgICYjeGE7ICAgIGltYWdlL3N2Zyt4bWwmI3hhOyAgICAmI3hhOyAgICBLdWJlcm5ldGVzIGNvbXBvbmVudHMmI3hhOyAgICAmI3hhOyAgICAgJiN4YTsgICAgICBDbG91ZCBOYXRpdmUgQ29tcHV0aW5nIEZvdW5kYXRpb24mI3hhOyAgICAgJiN4YTsgICAgJiN4YTsgICAmI3hhOyAgJiN4YTsgPC9tZXRhZGF0YT4mI3hhOyA8ZGVmcyBpZD0iZGVmczQiPiYjeGE7ICA8bWFya2VyIG9yaWVudD0iYXV0byIgb3ZlcmZsb3c9InZpc2libGUiIGlkPSJBcnJvdzJNZW5kIj4mI3hhOyAgIDxwYXRoIHN0cm9rZS13aWR0aD0iLjYyNSIgc3Ryb2tlLWxpbmVqb2luPSJyb3VuZCIgc3Ryb2tlPSIjMDAwIiBmaWxsLXJ1bGU9ImV2ZW5vZGQiIGQ9Im04LjcxODYgNC4wMzM3LTEwLjkyNi00LjAxNzcgMTAuOTI2LTQuMDE3N2MtMS43NDU1IDIuMzcyMS0xLjczNTQgNS42MTc1LTZlLTcgOC4wMzU0eiIgdHJhbnNmb3JtPSJzY2FsZSgtLjYpIiBpZD0icGF0aDE2NDUiLz4mI3hhOyAgPC9tYXJrZXI+JiN4YTsgIDxzdHlsZSBpZD0ic3R5bGUyIj4uY2xzLTF7Zm9udC1zaXplOjI1NC41NHB4O2ZvbnQtZmFtaWx5OidPcGVuIFNhbnMnLCBzYW5zLXNlcmlmO30uY2xzLTEwLC5jbHMtMiwuY2xzLTMsLmNscy01LC5jbHMtNiwuY2xzLTcsLmNscy05e2ZpbGw6bm9uZTt9LmNscy0zLC5jbHMtOXtzdHJva2U6Ymx1ZTt9LmNscy0xMCwuY2xzLTN7c3Ryb2tlLW1pdGVybGltaXQ6MTA7fS5jbHMtNHtmaWxsLW9wYWNpdHk6MDt9LmNscy00LC5jbHMtOHtmaWxsLXJ1bGU6ZXZlbm9kZDt9LmNscy01e3N0cm9rZTojYjE0ZDlkO30uY2xzLTUsLmNscy02LC5jbHMtNywuY2xzLTl7c3Ryb2tlLWxpbmVqb2luOnJvdW5kO30uY2xzLTUsLmNscy02e3N0cm9rZS13aWR0aDoycHg7c3Ryb2tlLWRhc2hhcnJheTo4IDY7fS5jbHMtNntzdHJva2U6IzAwOTQ0NDt9LmNscy0xMCwuY2xzLTd7c3Ryb2tlOiMwMDA7fS5jbHMtOHtmaWxsOiNlNmU2ZTY7fS5jbHMtMTF7ZmlsbDojMzI2Y2U1O30uY2xzLTEyLC5jbHMtMjJ7Zm9udC1zaXplOjEycHg7fS5jbHMtMTIsLmNscy0xMywuY2xzLTE1LC5jbHMtMTYsLmNscy0xNywuY2xzLTE4LC5jbHMtMTksLmNscy0yMCwuY2xzLTIxLC5jbHMtMjN7ZmlsbDojZmZmO30uY2xzLTEyLC5jbHMtMTUsLmNscy0xNiwuY2xzLTE3LC5jbHMtMTgsLmNscy0xOSwuY2xzLTIwLC5jbHMtMjEsLmNscy0yMiwuY2xzLTIze2ZvbnQtZmFtaWx5OidPcGVuIFNhbnMnLCBzYW5zLXNlcmlmO30uY2xzLTE0LC5jbHMtMTUsLmNscy0xNiwuY2xzLTE3LC5jbHMtMTgsLmNscy0xOSwuY2xzLTIwLC5jbHMtMjEsLmNscy0yM3tpc29sYXRpb246aXNvbGF0ZTt9LmNscy0xNXtmb250LXNpemU6MTEuNzdweDt9LmNscy0xNntmb250LXNpemU6MTEuMTRweDt9LmNscy0xN3tmb250LXNpemU6MTEuMDdweDt9LmNscy0xOHtmb250LXNpemU6MTAuMzZweDt9LmNscy0xOXtmb250LXNpemU6MTAuNzFweDt9LmNscy0yMHtmb250LXNpemU6MTAuMDZweDt9LmNscy0yMXtmb250LXNpemU6MTEuMzFweDt9LmNscy0yM3tmb250LXNpemU6OS43MXB4O308L3N0eWxlPiYjeGE7IDwvZGVmcz4mI3hhOyA8ZyB0cmFuc2Zvcm09InRyYW5zbGF0ZSgtMTM4Ljk0IC01NS4zNTYpIiBpZD0ibGF5ZXIzIj4mI3hhOyAgPHJlY3QgYXJpYS1sYWJlbGxlZGJ5PSJ0ZXh0Mjc0IiBvcGFjaXR5PSIuODY5IiBmaWxsLW9wYWNpdHk9Ii40MyIgZmlsbD0iIzZkNmQ2ZCIgcnk9IjM0LjU5MyIgaGVpZ2h0PSI1NDQuMjQiIHdpZHRoPSI5NTYuMjQiIHk9IjcwLjQ3NCIgeD0iMTU0LjA1IiBpZD0icmVjdDEwNDUiLz4mI3hhOyA8L2c+JiN4YTsgPHRleHQgc3Ryb2tlLXdpZHRoPSIxLjU0NiIgeT0iMTg4My4xNTg2IiB4PSIzMDYuMTk5MjUiIHRyYW5zZm9ybT0ic2NhbGUoMS41NDYgLjY0Njg1KSIgY2xhc3M9ImNscy0xIiBpZD0idGV4dDYiLz4mI3hhOyA8cGF0aCBkPSJtMzEuOTI0IDk4LjgzM2E1OCA1OCAwIDAgMSA1OC01OGgyMzEuOTFhNTggNTggMCAwIDEgNTggNTh2MzI1LjE3YTU4IDU4IDAgMCAxLTU4IDU4aC0yMzEuOTJhNTggNTggMCAwIDEtNTgtNTh6IiBjbGFzcz0iY2xzLTQiIGlkPSJwYXRoMTYiLz4mI3hhOyA8cGF0aCBkPSJtMzk3Ljc3IDkwLjAwM2g0NDUuNDEiIGNsYXNzPSJjbHMtNCIgaWQ9InBhdGgyMiIvPiYjeGE7IDxwYXRoIGQ9Im00ODUuNjkgMjQ1LjA5LTEgMC4yMi0xLjc1IDEuNjgtMS4zNyAyLjc0LTAuNzcgMy44MnYyNTkuNTFsMC43NyAzLjggMS4zNyAzIDEuNzUgMS40NyAxIDAuMmgxMjcuNDFsMS4wNy0wLjIgMS43Ni0xLjQ3IDEuMjctMyAwLjc4LTMuOHYtMjU5LjUxbC0wLjc4LTMuODItMS4yNy0yLjc0LTEuNzQtMS42OC0xLjA3LTAuMjJ6IiBjbGFzcz0iY2xzLTgiIGlkPSJwYXRoMjgiLz4mI3hhOyA8cGF0aCBkPSJtNjQ2LjM5IDI0NS4wOS0xIDAuMjItMS43NiAxLjY4LTEuMzYgMi43NC0wLjc4IDMuODJ2MjU5LjUxbDAuNzggMy44IDEuMzYgMyAxLjc2IDEuNDcgMSAwLjJoMTI3LjQxbDEuMDctMC4yIDEuNzUtMS40NyAxLjI4LTMgMC43Ny0zLjh2LTI1OS41MWwtMC43Ny0zLjgyLTEuMjgtMi43NC0xLjc1LTEuNjgtMS4wNy0wLjIyeiIgY2xhc3M9ImNscy04IiBpZD0icGF0aDMwIi8+JiN4YTsgPHBhdGggZD0ibTgwNy4wOCAyNDUuMDktMSAwLjIyLTEuNzUgMS42OC0xLjM3IDIuNzQtMC43OCAzLjgydjI1OS41MWwwLjc4IDMuOCAxLjM3IDMgMS43NSAxLjQ3IDEgMC4yaDEyNy40MWwxLjA3LTAuMiAxLjc2LTEuNDcgMS4yNjk5LTMgMC43OC0zLjh2LTI1OS41MWwtMC43OC0zLjgyLTEuMjY5OS0yLjc0LTEuNzYtMS42OC0xLjA3LTAuMjJ6IiBjbGFzcz0iY2xzLTgiIGlkPSJwYXRoMzIiLz4mI3hhOyA8cGF0aCBkPSJtMzY0LjY2IDI0NS4yN2gxNzYuNTJ2NjAuODVoMTc2LjUyIiBjbGFzcz0iY2xzLTQiIGlkPSJwYXRoNDYiLz4mI3hhOyA8cGF0aCBkPSJtMzA3Ljg2IDE0OC4xNXY1OS44NSIgY2xhc3M9ImNscy00IiBpZD0icGF0aDU4Ii8+JiN4YTsgPHBhdGggc3Ryb2tlLXdpZHRoPSIxLjUiIHN0cm9rZS1kYXNoYXJyYXk9IjQuNSwgNC41IiBtYXJrZXItZW5kPSJ1cmwoI0Fycm93Mk1lbmQpIiBkPSJtMjk5LjE2IDIwMi42OSAwLjU4NzU3LTU5Ljk4NCIgY2xhc3M9ImNscy03IiBpZD0icGF0aDYwIi8+JiN4YTsgPGcgdHJhbnNmb3JtPSJ0cmFuc2xhdGUoLTEyOC4zOCAtMzcuOTQ3KSIgaWQ9ImcxNzY2Ij4mI3hhOyAgPHBhdGggZD0ibTI4MiAxNzIuMjEgMTA5LjM5IDk1Ljg0IiBjbGFzcz0iY2xzLTQiIGlkPSJwYXRoNjYiLz4mI3hhOyAgPHBhdGggZD0ibTI4Ny4wNSAxNzYuNjMgMTA2LjQ3IDgxLjA5OCIgY2xhc3M9ImNscy03IiBpZD0icGF0aDY4Ii8+JiN4YTsgIDxwYXRoIGQ9Im0yODguMjYgMTc1LjI0LTUtMiAyLjYgNC43M3oiIGNsYXNzPSJjbHMtMTAiIGlkPSJwYXRoNzAiLz4mI3hhOyA8L2c+JiN4YTsgPGcgdHJhbnNmb3JtPSJ0cmFuc2xhdGUoLTEyNy45NSAtMzguMjY5KSIgaWQ9ImcxOTI1Ij4mI3hhOyAgPHBhdGggZD0ibTI4MC4xNiAzOTguMiAxMDYuNjgtODkuNDkiIGNsYXNzPSJjbHMtNCIgaWQ9InBhdGg3NCIvPiYjeGE7ICA8cGF0aCBkPSJtMjg1LjMzIDM5My44OSAxMTMuOTctODguNTEyIiBjbGFzcz0iY2xzLTciIGlkPSJwYXRoNzYiLz4mI3hhOyAgPHBhdGggZD0ibTI4NC4xNiAzOTIuNDgtMi43IDQuNjcgNS4wOC0xLjg0eiIgY2xhc3M9ImNscy0xMCIgaWQ9InBhdGg3OCIvPiYjeGE7IDwvZz4mI3hhOyA8cGF0aCBkPSJtODQuODE0IDM0OC44M2g3MC4xNHY3MC4xN2gtNzAuMTR6IiBjbGFzcz0iY2xzLTQiIGlkPSJwYXRoODYiLz4mI3hhOyA8ZyB0cmFuc2Zvcm09InRyYW5zbGF0ZSgtMTI1LjY5IC0zMS45NjYpIiBpZD0iZzE5MzAiPiYjeGE7ICA8cGF0aCBkPSJtNDMxLjY4IDMzMi4yNHY1OS44OSIgY2xhc3M9ImNscy00IiBpZD0icGF0aDExMCIvPiYjeGE7ICA8cGF0aCBkPSJtNDMxLjU4IDMyNyAwLjA5ODcgNTguNDcxIiBjbGFzcz0iY2xzLTciIGlkPSJwYXRoMTEyIi8+JiN4YTsgIDxwYXRoIGQ9Im00MjkuODMgMzg1LjQyIDEuODUgNS4wNyAxLjg1LTUuMDd6IiBjbGFzcz0iY2xzLTEwIiBpZD0icGF0aDExNiIvPiYjeGE7IDwvZz4mI3hhOyA8cGF0aCBkPSJtNzkuMzQ0IDQ1OS40N2gyNTh2MjEuOWgtMjU4eiIgY2xhc3M9ImNscy00IiBpZD0icGF0aDEyMCIvPiYjeGE7IDxwYXRoIGQ9Im0zNjQuNjYgMjQ1LjI3aDM1Mi41MiIgY2xhc3M9ImNscy00IiBpZD0icGF0aDEyMiIvPiYjeGE7IDxnIHRyYW5zZm9ybT0idHJhbnNsYXRlKC0xODkuMjQgMjEwLjAyKSIgaWQ9ImcxMjQ0Ij4mI3hhOyAgPGcgaWQ9ImczODM1Ij4mI3hhOyAgIDxwYXRoIHN0cm9rZS13aWR0aD0iMS4xMTE4IiBmaWxsPSIjMzI2Y2U1IiBkPSJtOTk0Ljg2LTE1MS41My0zLjczNTggMC4yMjIzNy02Ljc4MjMgMS45MDEzLTMuMDY4NyAxLjg5MDEtMy4wNzk4IDIuMTM0Ny01LjI3MDIgNS40NzAzLTEuNzM0NCAzLjA3OTgtMS43MTIzIDMuNTM1Ny0xLjc0NTYgNy4zNjA0LTAuMjIyNCA0LjA0NzF2MS40MTJsLTMuNTkxMyAxLjY1NjYtNS45MTUgNC43MzY1LTIuNDAxNiAzLjMzNTUtMi4wMDEzIDMuNTY5LTIuNDAxNiA3LjU4MjgtMC4yMTEzIDQuMjU4NCAwLjIxMTMgMy41NjkgMS41MzQzIDYuNjcxMSAxLjUzNDQgMy4wNjg3IDEuNzY3OCAzLjA3OTggNC42MDMxIDQuOTgxMSAyLjYxMjggMS45MDEzIDMuMDc5OSAxLjY1NjYgNi4xMzc0IDEuNjY3OCAzLjMzNTUgMC4yMjIzN2g2Mi45NDJsMi44NDYzLTAuMjIyMzcgNS40NzAyLTEuNDM0MyAyLjYzNTEtMS42NDU1IDIuNDEyOC0xLjQzNDMgNC4xNjk0LTQuMjU4NCAxLjUzNDQtMi42MDE3IDEuMzM0Mi0yLjg1NzQgMS41MTIxLTUuOTI2MnYtMy4zMzU1bC0wLjIxMTMtNC4yOTE3LTIuNDAxNS03LjMzODItMi4yMjM3LTMuNTY5LTIuODQ2NC0yLjgyNDEtNi4xMzc0LTQuMjgwNi0zLjUxMzQtMC45NDUwNyAwLjY0NDktMy4xMDIxIDAuMjMzNS0zLjMzNTUtMC4yMzM1LTMuNTY5LTIuNDAxNi02LjM5MzEtMi4yMjM3LTIuNjEyOC0yLjQxMjctMi4zNjgyLTUuOTE1LTIuNjEyOC0zLjMzNTctMC4yNDQ2MWgtMi40MTI2bC00LjYwMyAxLjY2NzgtMS45NzkxIDEuMTg5Ny0xLjk2ODEtMy4wNzk4LTQuOTkyMS01LjQzNjktMy4wNDY1LTIuMTEyNS0zLjA2ODYtMS44OTAxLTcuMDE1OS0xLjkwMTN6IiBjbGFzcz0iY2xzLTExIiBpZD0icGF0aDEyNi0xIi8+JiN4YTsgICA8cGF0aCBzdHlsZT0iZm9udC12YXJpYW50LWNhcHM6bm9ybWFsO2ZvbnQtdmFyaWFudC1lYXN0LWFzaWFuOm5vcm1hbDtmb250LXZhcmlhbnQtbGlnYXR1cmVzOm5vcm1hbDtmb250LXZhcmlhbnQtbnVtZXJpYzpub3JtYWwiIGZpbGw9IiNmZmYiIGQ9Im05ODkuNTEtMTI3LjU3cS0xLjg4MjggMC0yLjk3NjYgMS4yNTc4LTEuMDg1OSAxLjI1LTEuMDg1OSAzLjQyOTcgMCAyLjI0MjIgMS4wNDY5IDMuNDY4OCAxLjA1NDcgMS4yMTg4IDMgMS4yMTg4IDEuMTk1MyAwIDIuNzI2Ni0wLjQyOTY4djEuMTY0MXEtMS4xODc1IDAuNDQ1MzEtMi45Mjk3IDAuNDQ1MzEtMi41MjM0IDAtMy44OTg0LTEuNTMxMi0xLjM2NzItMS41MzEyLTEuMzY3Mi00LjM1MTYgMC0xLjc2NTYgMC42NTYyNS0zLjA5MzggMC42NjQwNi0xLjMyODEgMS45MDYyLTIuMDQ2OSAxLjI1LTAuNzE4NzUgMi45Mzc1LTAuNzE4NzUgMS43OTY5IDAgMy4xNDA2IDAuNjU2MjVsLTAuNTYyNSAxLjE0MDZxLTEuMjk2OS0wLjYwOTM4LTIuNTkzOC0wLjYwOTM4eiIgaWQ9InBhdGgzNzUzIi8+JiN4YTsgICA8cGF0aCBzdHlsZT0iZm9udC12YXJpYW50LWNhcHM6bm9ybWFsO2ZvbnQtdmFyaWFudC1lYXN0LWFzaWFuOm5vcm1hbDtmb250LXZhcmlhbnQtbGlnYXR1cmVzOm5vcm1hbDtmb250LXZhcmlhbnQtbnVtZXJpYzpub3JtYWwiIGZpbGw9IiNmZmYiIGQ9Im05OTUuODEtMTE3LjE3aC0xLjI5Njl2LTEyLjE1NmgxLjI5Njl6IiBpZD0icGF0aDM3NTUiLz4mI3hhOyAgIDxwYXRoIHN0eWxlPSJmb250LXZhcmlhbnQtY2Fwczpub3JtYWw7Zm9udC12YXJpYW50LWVhc3QtYXNpYW46bm9ybWFsO2ZvbnQtdmFyaWFudC1saWdhdHVyZXM6bm9ybWFsO2ZvbnQtdmFyaWFudC1udW1lcmljOm5vcm1hbCIgZmlsbD0iI2ZmZiIgZD0ibTEwMDYtMTIxLjQ2cTAgMi4wOTM4LTEuMDU0NiAzLjI3MzQtMS4wNTQ3IDEuMTcxOS0yLjkxNDEgMS4xNzE5LTEuMTQ4NCAwLTIuMDM5MS0wLjUzOTA2LTAuODkwNjMtMC41MzkwNi0xLjM3NS0xLjU0NjktMC40ODQzOC0xLjAwNzgtMC40ODQzOC0yLjM1OTQgMC0yLjA5MzggMS4wNDY5LTMuMjU3OCAxLjA0NjktMS4xNzE5IDIuOTA2My0xLjE3MTkgMS43OTY5IDAgMi44NTE1IDEuMTk1MyAxLjA2MjUgMS4xOTUzIDEuMDYyNSAzLjIzNDR6bS02LjUyMzQgMHEwIDEuNjQwNiAwLjY1NjMgMi41IDAuNjU2MiAwLjg1OTM3IDEuOTI5NiAwLjg1OTM3IDEuMjczNSAwIDEuOTI5Ny0wLjg1MTU2IDAuNjY0MS0wLjg1OTM3IDAuNjY0MS0yLjUwNzggMC0xLjYzMjgtMC42NjQxLTIuNDc2Ni0wLjY1NjItMC44NTE1Ny0xLjk0NTMtMC44NTE1Ny0xLjI3MzQgMC0xLjkyMTkgMC44MzU5NC0wLjY0ODQgMC44MzU5NC0wLjY0ODQgMi40OTIyeiIgaWQ9InBhdGgzNzU3Ii8+JiN4YTsgICA8cGF0aCBzdHlsZT0iZm9udC12YXJpYW50LWNhcHM6bm9ybWFsO2ZvbnQtdmFyaWFudC1lYXN0LWFzaWFuOm5vcm1hbDtmb250LXZhcmlhbnQtbGlnYXR1cmVzOm5vcm1hbDtmb250LXZhcmlhbnQtbnVtZXJpYzpub3JtYWwiIGZpbGw9IiNmZmYiIGQ9Im0xMDA5LjUtMTI1LjczdjUuNTU0N3EwIDEuMDQ2OSAwLjQ3NjYgMS41NjI1IDAuNDc2NSAwLjUxNTYyIDEuNDkyMiAwLjUxNTYyIDEuMzQzNyAwIDEuOTYwOS0wLjczNDM3IDAuNjI1LTAuNzM0MzggMC42MjUtMi4zOTg0di00LjVoMS4yOTY5djguNTYyNWgtMS4wNzAzbC0wLjE4NzUtMS4xNDg0aC0wLjA3cS0wLjM5ODUgMC42MzI4Mi0xLjEwOTQgMC45Njg3NS0wLjcwMzEgMC4zMzU5NC0xLjYwOTQgMC4zMzU5NC0xLjU2MjUgMC0yLjM0MzctMC43NDIxOS0wLjc3MzUtMC43NDIxOC0wLjc3MzUtMi4zNzV2LTUuNjAxNnoiIGlkPSJwYXRoMzc1OSIvPiYjeGE7ICAgPHBhdGggc3R5bGU9ImZvbnQtdmFyaWFudC1jYXBzOm5vcm1hbDtmb250LXZhcmlhbnQtZWFzdC1hc2lhbjpub3JtYWw7Zm9udC12YXJpYW50LWxpZ2F0dXJlczpub3JtYWw7Zm9udC12YXJpYW50LW51bWVyaWM6bm9ybWFsIiBmaWxsPSIjZmZmIiBkPSJtMTAyMy45LTExOC4zMmgtMC4wN3EtMC44OTg1IDEuMzA0Ny0yLjY4NzUgMS4zMDQ3LTEuNjc5NyAwLTIuNjE3Mi0xLjE0ODQtMC45Mjk3LTEuMTQ4NC0wLjkyOTctMy4yNjU2dDAuOTM3NS0zLjI4OTFxMC45Mzc1LTEuMTcxOSAyLjYwOTQtMS4xNzE5IDEuNzQyMiAwIDIuNjcxOSAxLjI2NTZoMC4xMDE1bC0wLjA1NS0wLjYxNzE5LTAuMDMxLTAuNjAxNTZ2LTMuNDg0NGgxLjI5Njl2MTIuMTU2aC0xLjA1NDd6bS0yLjU5MzggMC4yMTg3NXExLjMyODIgMCAxLjkyMTktMC43MTg3NSAwLjYwMTYtMC43MjY1NiAwLjYwMTYtMi4zMzU5di0wLjI3MzQ0cTAtMS44MjAzLTAuNjA5NC0yLjU5MzgtMC42MDE2LTAuNzgxMjUtMS45Mjk3LTAuNzgxMjUtMS4xNDA2IDAtMS43NSAwLjg5MDYyLTAuNjAxNSAwLjg4MjgyLTAuNjAxNSAyLjUgMCAxLjY0MDYgMC42MDE1IDIuNDc2NiAwLjYwMTYgMC44MzU5MyAxLjc2NTYgMC44MzU5M3oiIGlkPSJwYXRoMzc2MSIvPiYjeGE7ICAgPHBhdGggc3R5bGU9ImZvbnQtdmFyaWFudC1jYXBzOm5vcm1hbDtmb250LXZhcmlhbnQtZWFzdC1hc2lhbjpub3JtYWw7Zm9udC12YXJpYW50LWxpZ2F0dXJlczpub3JtYWw7Zm9udC12YXJpYW50LW51bWVyaWM6bm9ybWFsIiBmaWxsPSIjZmZmIiBkPSJtOTc4LjQyLTk3LjAxNXEtMC44MzU5MyAwLTEuNTMxMi0wLjMwNDY5LTAuNjg3NS0wLjMxMjUtMS4xNTYyLTAuOTUzMTJoLTAuMDkzN3EwLjA5MzcgMC43NSAwLjA5MzcgMS40MjE5djMuNTIzNGgtMS4yOTY5di0xMi40MDZoMS4wNTQ3bDAuMTc5NjggMS4xNzE5aDAuMDYyNXEwLjUtMC43MDMxMyAxLjE2NDEtMS4wMTU2IDAuNjY0MDYtMC4zMTI1IDEuNTIzNC0wLjMxMjUgMS43MDMxIDAgMi42MjUgMS4xNjQxIDAuOTI5NjkgMS4xNjQxIDAuOTI5NjkgMy4yNjU2IDAgMi4xMDk0LTAuOTQ1MzEgMy4yODEyLTAuOTM3NSAxLjE2NDEtMi42MDk0IDEuMTY0MXptLTAuMTg3NS03Ljc3MzRxLTEuMzEyNSAwLTEuODk4NCAwLjcyNjU3LTAuNTg1OTQgMC43MjY1Ni0wLjYwMTU3IDIuMzEyNXYwLjI4OTA2cTAgMS44MDQ3IDAuNjAxNTcgMi41ODU5IDAuNjAxNTYgMC43NzM0NCAxLjkyOTcgMC43NzM0NCAxLjEwOTQgMCAxLjczNDQtMC44OTg0NCAwLjYzMjgxLTAuODk4NDQgMC42MzI4MS0yLjQ3NjYgMC0xLjYwMTYtMC42MzI4MS0yLjQ1MzEtMC42MjUtMC44NTkzOC0xLjc2NTYtMC44NTkzOHoiIGlkPSJwYXRoMzc2MyIvPiYjeGE7ICAgPHBhdGggc3R5bGU9ImZvbnQtdmFyaWFudC1jYXBzOm5vcm1hbDtmb250LXZhcmlhbnQtZWFzdC1hc2lhbjpub3JtYWw7Zm9udC12YXJpYW50LWxpZ2F0dXJlczpub3JtYWw7Zm9udC12YXJpYW50LW51bWVyaWM6bm9ybWFsIiBmaWxsPSIjZmZmIiBkPSJtOTg4LjE2LTEwNS44OXEwLjU3MDMxIDAgMS4wMjM0IDAuMDkzN2wtMC4xNzk2OSAxLjIwMzFxLTAuNTMxMjUtMC4xMTcxOS0wLjkzNzUtMC4xMTcxOS0xLjAzOTEgMC0xLjc4MTIgMC44NDM3NS0wLjczNDM4IDAuODQzNzUtMC43MzQzOCAyLjEwMTZ2NC41OTM4aC0xLjI5Njl2LTguNTYyNWgxLjA3MDNsMC4xNDg0NCAxLjU4NTloMC4wNjI1cTAuNDc2NTYtMC44MzU5NCAxLjE0ODQtMS4yODkxIDAuNjcxODctMC40NTMxMyAxLjQ3NjYtMC40NTMxM3oiIGlkPSJwYXRoMzc2NSIvPiYjeGE7ICAgPHBhdGggc3R5bGU9ImZvbnQtdmFyaWFudC1jYXBzOm5vcm1hbDtmb250LXZhcmlhbnQtZWFzdC1hc2lhbjpub3JtYWw7Zm9udC12YXJpYW50LWxpZ2F0dXJlczpub3JtYWw7Zm9udC12YXJpYW50LW51bWVyaWM6bm9ybWFsIiBmaWxsPSIjZmZmIiBkPSJtOTk4LjE3LTEwMS40NnEwIDIuMDkzNy0xLjA1NDcgMy4yNzM0LTEuMDU0NyAxLjE3MTktMi45MTQxIDEuMTcxOS0xLjE0ODQgMC0yLjAzOTEtMC41MzkwNi0wLjg5MDYyLTAuNTM5MDYtMS4zNzUtMS41NDY5LTAuNDg0MzctMS4wMDc4LTAuNDg0MzctMi4zNTk0IDAtMi4wOTM4IDEuMDQ2OS0zLjI1NzggMS4wNDY5LTEuMTcxOSAyLjkwNjItMS4xNzE5IDEuNzk2OSAwIDIuODUxNiAxLjE5NTMgMS4wNjI1IDEuMTk1MyAxLjA2MjUgMy4yMzQ0em0tNi41MjM0IDBxMCAxLjY0MDYgMC42NTYyNSAyLjV0MS45Mjk3IDAuODU5MzhxMS4yNzM0IDAgMS45Mjk3LTAuODUxNTYgMC42NjQwNi0wLjg1OTM4IDAuNjY0MDYtMi41MDc4IDAtMS42MzI4LTAuNjY0MDYtMi40NzY2LTAuNjU2MjUtMC44NTE1Ny0xLjk0NTMtMC44NTE1Ny0xLjI3MzQgMC0xLjkyMTkgMC44MzU5NC0wLjY0ODQzIDAuODM1OTQtMC42NDg0MyAyLjQ5MjJ6IiBpZD0icGF0aDM3NjciLz4mI3hhOyAgIDxwYXRoIHN0eWxlPSJmb250LXZhcmlhbnQtY2Fwczpub3JtYWw7Zm9udC12YXJpYW50LWVhc3QtYXNpYW46bm9ybWFsO2ZvbnQtdmFyaWFudC1saWdhdHVyZXM6bm9ybWFsO2ZvbnQtdmFyaWFudC1udW1lcmljOm5vcm1hbCIgZmlsbD0iI2ZmZiIgZD0ibTEwMDIuMy05Ny4xNzItMy4yNS04LjU2MjVoMS4zOTA2bDEuODQzOCA1LjA3ODFxMC42MjUgMS43ODEyIDAuNzM0MyAyLjMxMjVoMC4wNjJxMC4wODYtMC40MTQwNiAwLjUzOTEtMS43MTA5IDAuNDYwOS0xLjMwNDcgMi4wNTQ3LTUuNjc5N2gxLjM5MDZsLTMuMjUgOC41NjI1eiIgaWQ9InBhdGgzNzY5Ii8+JiN4YTsgICA8cGF0aCBzdHlsZT0iZm9udC12YXJpYW50LWNhcHM6bm9ybWFsO2ZvbnQtdmFyaWFudC1lYXN0LWFzaWFuOm5vcm1hbDtmb250LXZhcmlhbnQtbGlnYXR1cmVzOm5vcm1hbDtmb250LXZhcmlhbnQtbnVtZXJpYzpub3JtYWwiIGZpbGw9IiNmZmYiIGQ9Im0xMDA5LjgtOTcuMTcyaC0xLjI5Njl2LTguNTYyNWgxLjI5Njl6bS0xLjQwNjItMTAuODgzcTAtMC40NDUzMSAwLjIxODctMC42NDg0NCAwLjIxODgtMC4yMTA5NCAwLjU0NjktMC4yMTA5NCAwLjMxMjUgMCAwLjUzOTEgMC4yMTA5NCAwLjIyNjUgMC4yMTA5NCAwLjIyNjUgMC42NDg0NHQtMC4yMjY1IDAuNjU2MjVxLTAuMjI2NiAwLjIxMDk0LTAuNTM5MSAwLjIxMDk0LTAuMzI4MSAwLTAuNTQ2OS0wLjIxMDk0LTAuMjE4Ny0wLjIxODc1LTAuMjE4Ny0wLjY1NjI1eiIgaWQ9InBhdGgzNzcxIi8+JiN4YTsgICA8cGF0aCBzdHlsZT0iZm9udC12YXJpYW50LWNhcHM6bm9ybWFsO2ZvbnQtdmFyaWFudC1lYXN0LWFzaWFuOm5vcm1hbDtmb250LXZhcmlhbnQtbGlnYXR1cmVzOm5vcm1hbDtmb250LXZhcmlhbnQtbnVtZXJpYzpub3JtYWwiIGZpbGw9IiNmZmYiIGQ9Im0xMDE4LjQtOTguMzJoLTAuMDdxLTAuODk4NSAxLjMwNDctMi42ODc1IDEuMzA0Ny0xLjY3OTcgMC0yLjYxNzItMS4xNDg0LTAuOTI5Ny0xLjE0ODQtMC45Mjk3LTMuMjY1NiAwLTIuMTE3MiAwLjkzNzUtMy4yODkxIDAuOTM3NS0xLjE3MTkgMi42MDk0LTEuMTcxOSAxLjc0MjEgMCAyLjY3MTggMS4yNjU2aDAuMTAxNmwtMC4wNTUtMC42MTcxOS0wLjAzMS0wLjYwMTU2di0zLjQ4NDRoMS4yOTY4djEyLjE1NmgtMS4wNTQ3em0tMi41OTM4IDAuMjE4NzVxMS4zMjgxIDAgMS45MjE5LTAuNzE4NzUgMC42MDE2LTAuNzI2NTYgMC42MDE2LTIuMzM1OXYtMC4yNzM0NHEwLTEuODIwMy0wLjYwOTQtMi41OTM4LTAuNjAxNi0wLjc4MTI1LTEuOTI5Ny0wLjc4MTI1LTEuMTQwNiAwLTEuNzUgMC44OTA2Mi0wLjYwMTYgMC44ODI4Mi0wLjYwMTYgMi41IDAgMS42NDA2IDAuNjAxNiAyLjQ3NjYgMC42MDE2IDAuODM1OTQgMS43NjU2IDAuODM1OTR6IiBpZD0icGF0aDM3NzMiLz4mI3hhOyAgIDxwYXRoIHN0eWxlPSJmb250LXZhcmlhbnQtY2Fwczpub3JtYWw7Zm9udC12YXJpYW50LWVhc3QtYXNpYW46bm9ybWFsO2ZvbnQtdmFyaWFudC1saWdhdHVyZXM6bm9ybWFsO2ZvbnQtdmFyaWFudC1udW1lcmljOm5vcm1hbCIgZmlsbD0iI2ZmZiIgZD0ibTEwMjYtOTcuMDE1cS0xLjg5ODQgMC0zLTEuMTU2Mi0xLjA5MzctMS4xNTYyLTEuMDkzNy0zLjIxMDkgMC0yLjA3MDMgMS4wMTU2LTMuMjg5MSAxLjAyMzQtMS4yMTg4IDIuNzQyMi0xLjIxODggMS42MDk0IDAgMi41NDY5IDEuMDYyNSAwLjkzNzUgMS4wNTQ3IDAuOTM3NSAyLjc4OTF2MC44MjAzMmgtNS44OTg1cTAuMDM5IDEuNTA3OCAwLjc1NzggMi4yODkxIDAuNzI2NiAwLjc4MTI1IDIuMDM5MSAwLjc4MTI1IDEuMzgyOCAwIDIuNzM0NC0wLjU3ODEydjEuMTU2MnEtMC42ODc1IDAuMjk2ODgtMS4zMDQ3IDAuNDIxODgtMC42MDk0IDAuMTMyODEtMS40NzY2IDAuMTMyODF6bS0wLjM1MTUtNy43ODkxcS0xLjAzMTMgMC0xLjY0ODUgMC42NzE4Ny0wLjYwOTMgMC42NzE4OC0wLjcxODcgMS44NTk0aDQuNDc2NXEwLTEuMjI2Ni0wLjU0NjgtMS44NzUtMC41NDY5LTAuNjU2MjUtMS41NjI1LTAuNjU2MjV6IiBpZD0icGF0aDM3NzUiLz4mI3hhOyAgIDxwYXRoIHN0eWxlPSJmb250LXZhcmlhbnQtY2Fwczpub3JtYWw7Zm9udC12YXJpYW50LWVhc3QtYXNpYW46bm9ybWFsO2ZvbnQtdmFyaWFudC1saWdhdHVyZXM6bm9ybWFsO2ZvbnQtdmFyaWFudC1udW1lcmljOm5vcm1hbCIgZmlsbD0iI2ZmZiIgZD0ibTEwMzUuMi0xMDUuODlxMC41NzA0IDAgMS4wMjM1IDAuMDkzN2wtMC4xNzk3IDEuMjAzMXEtMC41MzEzLTAuMTE3MTktMC45Mzc1LTAuMTE3MTktMS4wMzkxIDAtMS43ODEzIDAuODQzNzUtMC43MzQzIDAuODQzNzUtMC43MzQzIDIuMTAxNnY0LjU5MzhoLTEuMjk2OXYtOC41NjI1aDEuMDcwM2wwLjE0ODQgMS41ODU5aDAuMDYycTAuNDc2Ni0wLjgzNTk0IDEuMTQ4NS0xLjI4OTEgMC42NzE5LTAuNDUzMTMgMS40NzY1LTAuNDUzMTN6IiBpZD0icGF0aDM3NzciLz4mI3hhOyAgIDxwYXRoIHN0eWxlPSJmb250LXZhcmlhbnQtY2Fwczpub3JtYWw7Zm9udC12YXJpYW50LWVhc3QtYXNpYW46bm9ybWFsO2ZvbnQtdmFyaWFudC1saWdhdHVyZXM6bm9ybWFsO2ZvbnQtdmFyaWFudC1udW1lcmljOm5vcm1hbCIgZmlsbD0iI2ZmZiIgZD0ibTEwMDEuNC03Ny4xNzItMS40MjE4LTMuNjMyOGgtNC41NzgxbC0xLjQwNjIgMy42MzI4aC0xLjM0MzhsNC41MTU2LTExLjQ2OWgxLjExNzJsNC40OTIyIDExLjQ2OXptLTEuODM1OS00LjgyODEtMS4zMjgxLTMuNTM5MXEtMC4yNTc4Mi0wLjY3MTg4LTAuNTMxMjUtMS42NDg0LTAuMTcxODggMC43NS0wLjQ5MjE5IDEuNjQ4NGwtMS4zNDM4IDMuNTM5MXoiIGlkPSJwYXRoMzc3OSIvPiYjeGE7ICAgPHBhdGggc3R5bGU9ImZvbnQtdmFyaWFudC1jYXBzOm5vcm1hbDtmb250LXZhcmlhbnQtZWFzdC1hc2lhbjpub3JtYWw7Zm9udC12YXJpYW50LWxpZ2F0dXJlczpub3JtYWw7Zm9udC12YXJpYW50LW51bWVyaWM6bm9ybWFsIiBmaWxsPSIjZmZmIiBkPSJtMTAxMS42LTg1LjI2NXEwIDEuNzM0NC0xLjE4NzUgMi42NzE5LTEuMTc5NiAwLjkyOTY5LTMuMzgyOCAwLjkyOTY5aC0xLjM0Mzd2NC40OTIyaC0xLjMyODF2LTExLjQyMmgyLjk2MDlxNC4yODEyIDAgNC4yODEyIDMuMzI4MXptLTUuOTE0IDIuNDYwOWgxLjE5NTNxMS43NjU2IDAgMi41NTQ3LTAuNTcwMzEgMC43ODktMC41NzAzMSAwLjc4OS0xLjgyODEgMC0xLjEzMjgtMC43NDIxLTEuNjg3NS0wLjc0MjItMC41NTQ2OS0yLjMxMjUtMC41NTQ2OWgtMS40ODQ0eiIgaWQ9InBhdGgzNzgxIi8+JiN4YTsgICA8cGF0aCBzdHlsZT0iZm9udC12YXJpYW50LWNhcHM6bm9ybWFsO2ZvbnQtdmFyaWFudC1lYXN0LWFzaWFuOm5vcm1hbDtmb250LXZhcmlhbnQtbGlnYXR1cmVzOm5vcm1hbDtmb250LXZhcmlhbnQtbnVtZXJpYzpub3JtYWwiIGZpbGw9IiNmZmYiIGQ9Im0xMDE0LTc3LjE3MnYtMTEuNDIyaDEuMzI4MXYxMS40MjJ6IiBpZD0icGF0aDM3ODMiLz4mI3hhOyAgPC9nPiYjeGE7IDwvZz4mI3hhOyA8ZyBkYXRhLW5hbWU9ImxheWVyMSIgdHJhbnNmb3JtPSJ0cmFuc2xhdGUoLTI3OS43MSA5My44MTQpIiBpZD0ibGF5ZXIxLTMiPiYjeGE7ICA8ZyBkYXRhLW5hbWU9Imc3MCIgaWQ9Imc3MC0zIj4mI3hhOyAgIDxwYXRoIGRhdGEtbmFtZT0icGF0aDMwNTUiIGQ9Im0xMTUwLjIgMzI4LjQ0YTQuNzkgNC43OSAwIDAgMC0xLjgyIDAuNDZsLTI0Ljc3IDExLjgzYTQuNzEgNC43MSAwIDAgMC0yLjU2IDMuMTlsLTYuMSAyNi41OWE0LjY2IDQuNjYgMCAwIDAgMC42NSAzLjYgMy4yOCAzLjI4IDAgMCAwIDAuMjcgMC4zOGwxNy4wOCAyMS4zMmE0Ljc1IDQuNzUgMCAwIDAgMy43MSAxLjc2aDI3LjVhNC43NCA0Ljc0IDAgMCAwIDMuNy0xLjc3bDE3LjE0LTIxLjMyYTQuNjggNC42OCAwIDAgMCAwLjkyLTRsLTYuMTMtMjYuNThhNC42OSA0LjY5IDAgMCAwLTIuNTYtMy4xOWwtMjQuNzctMTEuODNhNC44MiA0LjgyIDAgMCAwLTIuMjYtMC40NHoiIGNsYXNzPSJjbHMtMTEiIGlkPSJwYXRoMzA1NS0zIi8+JiN4YTsgICA8cGF0aCBkYXRhLW5hbWU9InBhdGgzMDU0LTItOSIgZD0ibTExNTAuMiAzMjYuNTFhNS4wOSA1LjA5IDAgMCAwLTEuOTEgMC40OWwtMjYuMTUgMTIuNDlhNSA1IDAgMCAwLTIuNzEgMy4zN2wtNi40NiAyOC4wN2E0LjkgNC45IDAgMCAwIDAuNjggMy44YzAuMDkgMC4xNCAwLjE4IDAuMjcgMC4yOCAwLjRsMTguMSAyMi41YTUgNSAwIDAgMCAzLjkxIDEuODdoMjlhNSA1IDAgMCAwIDMuOTEtMS44NmwxOC4xLTIyLjUxYTUgNSAwIDAgMCAxLTQuMmwtNi40Ni0yOC4wN2E1IDUgMCAwIDAtMi43LTMuMzZsLTI2LjE2LTEyLjVhNS4wNyA1LjA3IDAgMCAwLTIuNDMtMC40OXptMCAxLjkzYTQuNzYgNC43NiAwIDAgMSAyLjI5IDAuNDZsMjQuNzggMTEuODNhNC42OSA0LjY5IDAgMCAxIDIuNTYgMy4xOWw2LjEzIDI2LjU5YTQuNjYgNC42NiAwIDAgMS0wLjkyIDRsLTE3LjA3IDIxLjI5YTQuNzQgNC43NCAwIDAgMS0zLjcgMS43N2gtMjcuNWE0Ljc2IDQuNzYgMCAwIDEtMy43MS0xLjc3bC0xNy4xNC0yMS4zMmEzLjI4IDMuMjggMCAwIDEtMC4yNy0wLjM4IDQuNjYgNC42NiAwIDAgMS0wLjY1LTMuNmw2LjEyLTI2LjU5YTQuNjkgNC42OSAwIDAgMSAyLjU2LTMuMThsMjQuNzctMTEuODRhNC43OSA0Ljc5IDAgMCAxIDEuODItMC40NnoiIGNsYXNzPSJjbHMtMTMiIGlkPSJwYXRoMzA1NC0yLTktMyIvPiYjeGE7ICA8L2c+JiN4YTsgIDxnIGRhdGEtbmFtZT0idGV4dDIwNjYiIGNsYXNzPSJjbHMtMTQiIGlkPSJ0ZXh0MjA2Ni0zIj4mI3hhOyAgIDx0ZXh0IHRyYW5zZm9ybT0idHJhbnNsYXRlKDExMzAuOSAzOTEuNzMpIiBjbGFzcz0iY2xzLTE1IiBpZD0idGV4dDE0OSI+ay1wcm94eTwvdGV4dD4mI3hhOyAgPC9nPiYjeGE7ICA8cGF0aCBkYXRhLW5hbWU9InBhdGgxOTk0IiBkPSJtMTE1MC40IDMzOC42OWMtMC41OCAwLTE2LjY2IDcuODktMTYuODcgOC4yOS0wLjUxIDEtNC4xNyAxNy44Ni00IDE4LjIzIDAuMTIgMC4yMSAyLjc2IDMuNTUgNS44NSA3LjQybDUuNjMgN2gxOC41M2w1LjktNy4zNyA1Ljg5LTcuMzYtMi4wNi05Yy0xLjEzLTUtMi4xNS05LjEzLTIuMjUtOS4yMy0wLjI5LTAuMjgtMTYuMzYtOC0xNi42Ny04em0wLjgyIDMuOTUgMy43OSAxLjEtMy43OSAxLjEtMy43OS0xLjF6bS0zLjc5IDEuNTIgMy41NSAxLjA2djQuOTNsLTMuNTMtMnptNy41OCAwdjRsLTMuNTMgMnYtNC45M3ptLTkuMTcgNi43MyAzLjc5IDEuMS0zLjc5IDEuMS0zLjc5LTEuMXptOS4yMiAwIDMuNzkgMS4xLTMuNzkgMS4xLTMuOC0xLjF6bS0xMyAxLjUyIDMuNTUgMS4wNnY0LjkzbC0zLjU0LTEuOTV6bTcuNTggMHY0bC0zLjUzIDEuOTV2LTQuOTN6bTEuNjMgMCAzLjU1IDEuMDZ2NC45M2wtMy41My0xLjk1em03LjU5IDB2NGwtMy41MyAxLjk1di00Ljkzem0tMTQuMzkgNi4zMmMxLjEzIDAgMC4yNSAxLjE4IDEuNTQgMS43OXMxLjY0LTEgMi41IDAuMjYtMC43NiAwLjkzLTAuNjQgMi40NCAxLjY3IDAuOTQgMSAyLjMxLTEuMTktMC4yLTIuNDMgMC42NiAwIDEuOTItMS40OCAyLTAuNDMtMS4xMy0xLjc5LTEuNzgtMS42NSAxLTIuNTEtMC4yNyAwLjc2LTAuOTMgMC42NC0yLjQzLTEuNjctMC45NC0xLTIuMzEgMS4xOSAwLjIgMi40My0wLjY2IDAtMS45MiAxLjQ5LTJ6bTkuNzQgMS41MmMyIDAuMDUgMC4wNiAxLjk1IDEuOSAyLjc3czItMS44OSAzLjM0LTAuNDMtMS4zNCAxLjQyLTAuNjIgMy4zMSAyLjcyIDAgMi42NiAyLjA1LTIgMC4wNi0yLjc3IDEuOSAxLjg5IDEuOTUgMC40MyAzLjM0LTEuNDItMS4zNC0zLjMtMC42MiAwIDIuNzItMi4wNiAyLjY2LTAuMDYtMi0xLjktMi43Ny0yIDEuODktMy4zNCAwLjQzIDEuMzQtMS40MiAwLjYyLTMuMzEtMi43MiAwLTIuNjYtMi4wNSAyLTAuMDYgMi43Ny0xLjktMS44OS0xLjk1LTAuNDMtMy4zNCAxLjQyIDEuMzQgMy4zMSAwLjYyIDAuMDItMi43MiAyLjA0LTIuNjZ6bS05LjY1IDEuMDVhMi4yMiAyLjIyIDAgMSAwIDIuMjIgMi4yMiAyLjIyIDIuMjIgMCAwIDAtMi4yMy0yLjIyem05LjQ0IDJhNC40MyA0LjQzIDAgMSAwIDQuNDMgNC40MyA0LjQzIDQuNDMgMCAwIDAtNC40NS00LjQyeiIgY2xhc3M9ImNscy0xMyIgaWQ9InBhdGgxOTk0LTMiLz4mI3hhOyA8L2c+JiN4YTsgPGcgZGF0YS1uYW1lPSJsYXllcjEiIHRyYW5zZm9ybT0idHJhbnNsYXRlKC0yNzkuNzMgOTMuODE0KSIgaWQ9ImxheWVyMS02Ij4mI3hhOyAgPGcgZGF0YS1uYW1lPSJnNzAiIGlkPSJnNzAtNiI+JiN4YTsgICA8cGF0aCBkYXRhLW5hbWU9InBhdGgzMDU1IiBkPSJtMTE1MC4zIDIzOS4yMmE0LjQ1IDQuNDUgMCAwIDAtMS43MiAwLjQzbC0yMy40NSAxMS4yMWE0LjQ2IDQuNDYgMCAwIDAtMi40MyAzbC01Ljc4IDI1LjE3YTQuNDUgNC40NSAwIDAgMCAwLjYgMy40MWMwLjA4IDAuMTIgMC4xNyAwLjI0IDAuMjYgMC4zNWwxNi4yNiAyMC4yMWE0LjUzIDQuNTMgMCAwIDAgMy41MSAxLjY3aDI2YTQuNDYgNC40NiAwIDAgMCAzLjQ5LTEuNjdsMTYuMjMtMjAuMThhNC40MiA0LjQyIDAgMCAwIDAuODYtMy43N2wtNS43OS0yNS4xN2E0LjQ2IDQuNDYgMCAwIDAtMi40My0zbC0yMy40NS0xMS4yYTQuNTYgNC41NiAwIDAgMC0yLjE2LTAuNDZ6IiBjbGFzcz0iY2xzLTExIiBpZD0icGF0aDMwNTUtNiIvPiYjeGE7ICAgPHBhdGggZGF0YS1uYW1lPSJwYXRoMzA1NC0yLTkiIGQ9Im0xMTUwLjIgMjM3LjM5YTQuNzEgNC43MSAwIDAgMC0xLjgxIDAuNDdsLTI0Ljc2IDExLjgyYTQuNzIgNC43MiAwIDAgMC0yLjU3IDMuMTlsLTYuMSAyNi41N2E0LjYyIDQuNjIgMCAwIDAgMC42NCAzLjYgMy4yOCAzLjI4IDAgMCAwIDAuMjcgMC4zOGwxNy4xMyAyMS4zMWE0Ljc4IDQuNzggMCAwIDAgMy43MSAxLjc2aDI3LjQ4YTQuNzQgNC43NCAwIDAgMCAzLjctMS43N2wxNy4xMy0yMS4zMWE0LjY2IDQuNjYgMCAwIDAgMC45Mi00bC02LjEyLTI2LjU4YTQuNjkgNC42OSAwIDAgMC0yLjU2LTMuMThsLTI0Ljc2LTExLjgzYTQuODIgNC44MiAwIDAgMC0yLjMtMC40M3ptMCAxLjgzYTQuNTYgNC41NiAwIDAgMSAyLjE4IDAuNDNsMjMuNDUgMTEuMmE0LjQ2IDQuNDYgMCAwIDEgMi40MyAzbDUuNzkgMjUuMTdhNC40MiA0LjQyIDAgMCAxLTAuODYgMy43N2wtMTYuMjQgMjAuMjFhNC41IDQuNSAwIDAgMS0zLjUxIDEuNjhoLTI2YTQuNDkgNC40OSAwIDAgMS0zLjQ5LTEuNjhsLTE2LjIzLTIwLjE5Yy0wLjA5LTAuMTEtMC4xOC0wLjIzLTAuMjYtMC4zNWE0LjQxIDQuNDEgMCAwIDEtMC42LTMuNDFsNS43OC0yNS4xN2E0LjQ4IDQuNDggMCAwIDEgMi40My0zbDIzLjQ1LTExLjIxYTQuNDUgNC40NSAwIDAgMSAxLjcyLTAuNDN6IiBjbGFzcz0iY2xzLTEzIiBpZD0icGF0aDMwNTQtMi05LTYiLz4mI3hhOyAgPC9nPiYjeGE7ICA8ZyBkYXRhLW5hbWU9InRleHQyMDY2IiBjbGFzcz0iY2xzLTE0IiBpZD0idGV4dDIwNjYtNiI+JiN4YTsgICA8dGV4dCB0cmFuc2Zvcm09InRyYW5zbGF0ZSgxMTMyLjIgMjk5LjE0KSIgY2xhc3M9ImNscy0xNiIgaWQ9InRleHQxNzMiPmt1YmVsZXQ8L3RleHQ+JiN4YTsgIDwvZz4mI3hhOyAgPHBhdGggZGF0YS1uYW1lPSJwYXRoMTk5NCIgZD0ibTExNTAuNCAyNDguOTJjLTAuNTQgMC0xNS43NyA3LjQ3LTE2IDcuODUtMC40OCAwLjkzLTQgMTYuOTEtMy43NCAxNy4yNXMyLjYxIDMuMzcgNS41NCA3bDUuMzMgNi42N2gxNy41NWwxMS4xNi0xNC0yLTguNTZjLTEuMDgtNC43MS0yLTguNjQtMi4xNC04Ljc0LTAuMjctMC4yNi0xNS40OC03LjU1LTE1Ljc4LTcuNTZ6bTAuNzggMy43NCAzLjU5IDEtMy41OSAxLTMuNTktMXptLTMuNTkgMS40NCAzLjM2IDF2NC42N2wtMy4zNC0xLjg1em03LjE4IDB2My44MmwtMy4zNSAxLjg1di00LjY3em0tOC42OCA2LjM4IDMuNTkgMS0zLjU5IDEtMy41OS0xem04LjcyIDAgMy41OSAxLTMuNTkgMS0zLjU5LTF6bS0xMi4zMSAxLjQzIDMuMzYgMXY0LjY4bC0zLjM1LTEuODZ6bTcuMTggMHYzLjgybC0zLjM0IDEuODZ2LTQuNjh6bTEuNTQgMCAzLjM2IDF2NC42OGwtMy4zNS0xLjg2em03LjE4IDB2My44MmwtMy4zNCAxLjg2di00LjY4em0tMTMuNjIgNmMxLjA3IDAgMC4yNCAxLjExIDEuNDUgMS42OXMxLjU3LTAuOTMgMi4zOCAwLjI1LTAuNzMgMC44OC0wLjYxIDIuMzEgMS41OCAwLjg5IDEgMi4xOC0xLjEzLTAuMTktMi4zMSAwLjYyIDAgMS44Mi0xLjQgMS45NC0wLjQtMS4wNy0xLjctMS42OS0xLjU2IDAuOTMtMi4zNy0wLjI1IDAuNzMtMC44OCAwLjYxLTIuMzEtMS41OC0wLjg4LTEtMi4xOCAxLjEzIDAuMTkgMi4zMS0wLjYyIDAtMS44MiAxLjQtMS45NHptOS4yMiAxLjQzYzEuOTEgMC4wNSAwLjA2IDEuODUgMS44IDIuNjNzMS44NS0xLjggMy4xNi0wLjQxLTEuMjYgMS4zNC0wLjU4IDMuMTMgMi41NyAwIDIuNTIgMS45NC0xLjg1IDAuMDYtMi42MyAxLjggMS44IDEuODUgMC40MSAzLjE2LTEuMzUtMS4yNi0zLjEzLTAuNTggMCAyLjU3LTIgMi41MiAwLTEuODUtMS44LTIuNjMtMS44NCAxLjgtMy4xNSAwLjQxIDEuMjYtMS4zNCAwLjU4LTMuMTMtMi41NyAwLTIuNTItMS45NCAxLjg0LTAuMDYgMi42Mi0xLjgxLTEuNzktMS44NC0wLjQtMy4xNSAxLjM0IDEuMjYgMy4xMyAwLjU4IDAuMDgtMi41OCAxLjk3LTIuNTN6bS05LjE0IDFhMi4xIDIuMSAwIDEgMCAyLjEgMi4xIDIuMSAyLjEgMCAwIDAtMi4xLTIuMTF6bTguOTQgMS45YTQuMiA0LjIgMCAxIDAgNC4yIDQuMTkgNC4yIDQuMiAwIDAgMC00LjItNC4yeiIgY2xhc3M9ImNscy0xMyIgaWQ9InBhdGgxOTk0LTYiLz4mI3hhOyA8L2c+JiN4YTsgPGcgdHJhbnNmb3JtPSJ0cmFuc2xhdGUoLTEyMy44MiAtNDAuOTk3KSIgaWQ9ImcxOTU0Ij4mI3hhOyAgPHBhdGggZD0ibTM4MC4xNiA0MDBoNzB2NzAuMTRoLTcweiIgY2xhc3M9ImNscy00IiBpZD0icGF0aDEwOCIvPiYjeGE7ICA8ZyBkYXRhLW5hbWU9ImxheWVyMSIgdHJhbnNmb3JtPSJ0cmFuc2xhdGUoLTMxLjgzOSkiIGlkPSJsYXllcjEtNyI+JiN4YTsgICA8ZyBkYXRhLW5hbWU9Imc3MCIgaWQ9Imc3MC03Ij4mI3hhOyAgICA8cGF0aCBkYXRhLW5hbWU9InBhdGgzMDU1IiBkPSJtNDQ2LjY3IDM5OC42YTQuNCA0LjQgMCAwIDAtMS42NyAwLjRsLTIzLjM5IDExLjE0YTQuNDEgNC40MSAwIDAgMC0yLjQxIDNsLTUuNzcgMjVhNC40IDQuNCAwIDAgMCAwLjYgMy4zOWwwLjI2IDAuMzYgMTYuMTQgMjAuMTFhNC41IDQuNSAwIDAgMCAzLjUgMS42NmgyNS45NWE0LjUgNC41IDAgMCAwIDMuNS0xLjY2bDE2LjE4LTIwLjA2YTQuMzggNC4zOCAwIDAgMCAwLjg2LTMuNzRsLTUuNzgtMjVhNC40MSA0LjQxIDAgMCAwLTIuNDItM2wtMjMuMzgtMTEuMmE0LjUyIDQuNTIgMCAwIDAtMi4xNy0wLjR6IiBjbGFzcz0iY2xzLTExIiBpZD0icGF0aDMwNTUtNyIvPiYjeGE7ICAgIDxwYXRoIGRhdGEtbmFtZT0icGF0aDMwNTQtMi05IiBkPSJtNDQ2LjY2IDM5Ni43OWE0Ljc1IDQuNzUgMCAwIDAtMS44MSAwLjQ2bC0yNC42OCAxMS43NWE0LjY2IDQuNjYgMCAwIDAtMi41NiAzLjE2bC02LjA5IDI2LjQxYTQuNjYgNC42NiAwIDAgMCAwLjY0IDMuNThsMC4yNyAwLjM3IDE3LjA5IDIxLjE3YTQuNzIgNC43MiAwIDAgMCAzLjY5IDEuNzVoMjcuNGE0Ljc4IDQuNzggMCAwIDAgMy42OS0xLjc1bDE3LjA3LTIxLjE4YTQuNjIgNC42MiAwIDAgMCAwLjkyLTMuOTVsLTYuMS0yNi40YTQuNjkgNC42OSAwIDAgMC0yLjU1LTMuMTdsLTI0LjY0LTExLjc1YTQuNzUgNC43NSAwIDAgMC0yLjM0LTAuNDV6bTAgMS44MWE0LjUyIDQuNTIgMCAwIDEgMi4xNyAwLjQzbDIzLjM4IDExLjEzYTQuNDEgNC40MSAwIDAgMSAyLjQyIDNsNS43OCAyNWE0LjM4IDQuMzggMCAwIDEtMC44NiAzLjc0bC0xNi4xNyAyMC4xYTQuNSA0LjUgMCAwIDEtMy41IDEuNjZoLTI1Ljk1YTQuNSA0LjUgMCAwIDEtMy41LTEuNjZsLTE2LjE4LTIwLjA1Yy0wLjA5LTAuMTItMC4xOC0wLjIzLTAuMjYtMC4zNmE0LjM4IDQuMzggMCAwIDEtMC42LTMuMzhsNS43Ni0yNWE0LjQ1IDQuNDUgMCAwIDEgMi40Mi0zbDIzLjQzLTExLjIxYTQuNTkgNC41OSAwIDAgMSAxLjcxLTAuNDN6IiBjbGFzcz0iY2xzLTEzIiBpZD0icGF0aDMwNTQtMi05LTciLz4mI3hhOyAgIDwvZz4mI3hhOyAgIDxnIGRhdGEtbmFtZT0idGV4dDIwNjYiIGNsYXNzPSJjbHMtMTQiIGlkPSJ0ZXh0MjA2Ni03Ij4mI3hhOyAgICA8dGV4dCB0cmFuc2Zvcm09InRyYW5zbGF0ZSg0MzIuMyw0NTguMTMpIiBjbGFzcz0iY2xzLTE3IiBpZD0idGV4dDE4MSI+c2NoZWQ8L3RleHQ+JiN4YTsgICA8L2c+JiN4YTsgICA8cGF0aCBkPSJtNDQ2LjgzIDQwOS42MmMtMC41NCAwLTE1LjczIDcuNDItMTUuOTIgNy44MS0wLjQ4IDAuOTEtMy45NCAxNi43OS0zLjczIDE3LjE0czIuNiAzLjM0IDUuNTMgN2w1LjMxIDYuNjNoMTcuNDlsNS41Ni02LjkyIDUuNTctNi45My0xLjk1LTguNTFjLTEuMDctNC42OC0yLTguNTktMi4xMi04LjY4LTAuMjgtMC4yNi0xNS40NC03LjUxLTE1Ljc0LTcuNTJ6bTAuOTMgNy43OGMwLjc0IDAgMC44MSAxLjE1IDIuMzkgMS4yNiAyLjA1IDAuMTYgMS44My0xLjc1IDMuNC0wLjQycy0wLjM1IDEuNDIgMC4xNCAzLjQxIDIuMjQgMS4yIDEuNDYgMy4xLTEuNDcgMC4xMS0zLjIyIDEuMTktMC40NSAyLjQ5LTIuNTEgMi4zNC0wLjU1LTEuMzYtMi4xMi0yLjY5LTIuNTIgMC4zNC0zLTEuNjUgMS4xMy0wLjk1IDEuOTEtMi44NC0xLjExLTIuMjggMC42NC0zLjM2YTIuNDEgMi40MSAwIDAgMSAwLjU2LTAuMjggMSAxIDAgMCAxIDAuMzYtMC4wNnptMi4wNiAyLjI1YTIuODggMi44OCAwIDAgMC0wLjg4IDAuMTIgMyAzIDAgMSAwIDAuODgtMC4xMnptLTExLjgyIDUuMWEyLjY4IDIuNjggMCAwIDEgMC41OSAwLjExYzEuODkgMC41OCAwIDEuNTcgMS4zMSAzczIuNDgtMC40IDIuOTIgMS41Mi0xLjM4IDAuNzYtMiAyLjY0IDEuNTggMS45NCAwLjEzIDMuMjgtMS4zNS0wLjgxLTMuMjctMC4zNi0wLjkgMi4zMy0yLjc5IDEuNzUgMC0xLjU3LTEuMzEtMy0yLjQ4IDAuNC0yLjkyLTEuNTIgMS4zOC0wLjc2IDItMi42NC0xLjU4LTEuOTQtMC4xNC0zLjI4IDEuMzUgMC44MSAzLjI4IDAuMzdjMS42OC0wLjM5IDEuMS0xLjg5IDIuMTktMS44N3ptMTQuMDUgMi4wNmExLjg3IDEuODcgMCAwIDEgMC42NyAwLjE2YzIuMTggMC44NC0wLjY5IDIuMTQgMSAzLjc1czIuODYtMS4zMSAzLjggMC44Mi0yIDEtMS45NSAzLjM2IDIuOTUgMS4wOSAyLjEgMy4yNi0yLjE1LTAuNjgtMy43NiAxIDEuMzEgMi44NS0wLjgzIDMuNzktMS0yLTMuMzctMS45NS0xLjEgMi45NC0zLjI3IDIuMSAwLjY5LTIuMTQtMS0zLjc1LTIuODcgMS4zLTMuODEtMC44MyAyLTEgMi0zLjM1LTIuOTUtMS4xLTIuMTEtMy4yNyAyLjE1IDAuNjkgMy43Ny0xLTEuMzEtMi44NiAwLjgyLTMuOCAxIDIgMy4zNyAxLjk1YzIgMCAxLjM1LTIuMjYgMi42MS0yLjI1em0tMTUuMjggMWEzIDMgMCAxIDAgMyAzIDMgMyAwIDAgMC0yLjk3LTN6bTEyLjgxIDIuODVhNC4zOCA0LjM4IDAgMSAwIDQuNDIgNC4zNCA0LjM4IDQuMzggMCAwIDAtNC4zOS00LjM0eiIgY2xhc3M9ImNscy0xMyIgaWQ9InBhdGgxOTg0Ii8+JiN4YTsgIDwvZz4mI3hhOyAgPGcgZGF0YS1uYW1lPSJsYXllcjEiIHRyYW5zZm9ybT0idHJhbnNsYXRlKC0zMS44MzkpIiBpZD0ibGF5ZXIxLTgiPiYjeGE7ICAgPGcgZGF0YS1uYW1lPSJnNzAiIGlkPSJnNzAtOCI+JiN4YTsgICAgPHBhdGggZGF0YS1uYW1lPSJwYXRoMzA1NSIgZD0ibTQ1Ni41MSA0MDYuNTNhNC41NCA0LjU0IDAgMCAwLTEuNzEgMC40M2wtMjMuMzkgMTEuMTRhNC40NSA0LjQ1IDAgMCAwLTIuNDIgM2wtNS43NiAyNWE0LjM4IDQuMzggMCAwIDAgMC42IDMuMzhjMC4wOCAwLjEzIDAuMTcgMC4yNCAwLjI2IDAuMzZsMTYuMTggMjBhNC41IDQuNSAwIDAgMCAzLjUgMS42NmgyNmE0LjUgNC41IDAgMCAwIDMuNS0xLjY2bDE2LjE4LTIwLjA2YTQuNDIgNC40MiAwIDAgMCAwLjg2LTMuNzRsLTUuNzgtMjVhNC40MSA0LjQxIDAgMCAwLTIuNDItM2wtMjMuNDMtMTEuMDRhNC41MiA0LjUyIDAgMCAwLTIuMTctMC40N3oiIGNsYXNzPSJjbHMtMTEiIGlkPSJwYXRoMzA1NS04Ii8+JiN4YTsgICAgPHBhdGggZGF0YS1uYW1lPSJwYXRoMzA1NC0yLTkiIGQ9Im00NTYuNSA0MDQuNzJhNC43NSA0Ljc1IDAgMCAwLTEuODEgMC40NmwtMjQuNjkgMTEuNzVhNC42NyA0LjY3IDAgMCAwLTIuNTUgMy4xNmwtNi4wOSAyNi40MWE0LjY2IDQuNjYgMCAwIDAgMC42NCAzLjU4YzAuMDkgMC4xMiAwLjE3IDAuMjUgMC4yNyAwLjM3bDE3LjA5IDIxLjE3YTQuNzIgNC43MiAwIDAgMCAzLjY5IDEuNzVoMjcuMzlhNC43NSA0Ljc1IDAgMCAwIDMuNjktMS43NWwxNy4wOC0yMS4xOGE0LjY1IDQuNjUgMCAwIDAgMC45Mi0zLjk1bC02LjEtMjYuNGE0LjY2IDQuNjYgMCAwIDAtMi41Ni0zLjE2bC0yNC42OC0xMS43NmE0Ljc3IDQuNzcgMCAwIDAtMi4yOS0wLjQ1em0wIDEuODFhNC41MiA0LjUyIDAgMCAxIDIuMTcgMC40M2wyMy4zOCAxMS4xM2E0LjQxIDQuNDEgMCAwIDEgMi40MiAzbDUuNzggMjVhNC4zOSA0LjM5IDAgMCAxLTAuODcgMy43NGwtMTYuMTYgMjAuMDdhNC41IDQuNSAwIDAgMS0zLjUgMS42NmgtMjZhNC41MSA0LjUxIDAgMCAxLTMuNS0xLjY3bC0xNi4xOC0yMGMtMC4wOS0wLjEyLTAuMTgtMC4yMy0wLjI2LTAuMzVhNC40MiA0LjQyIDAgMCAxLTAuNjEtMy4zOWw1Ljc3LTI1YTQuNDQgNC40NCAwIDAgMSAyLjQyLTNsMjMuNDQtMTEuMTVhNC41NCA0LjU0IDAgMCAxIDEuNzEtMC40M3oiIGNsYXNzPSJjbHMtMTMiIGlkPSJwYXRoMzA1NC0yLTktOCIvPiYjeGE7ICAgPC9nPiYjeGE7ICAgPGcgZGF0YS1uYW1lPSJ0ZXh0MjA2NiIgY2xhc3M9ImNscy0xNCIgaWQ9InRleHQyMDY2LTgiPiYjeGE7ICAgIDx0ZXh0IHRyYW5zZm9ybT0idHJhbnNsYXRlKDQ0Mi4xNCw0NjYuMDcpIiBjbGFzcz0iY2xzLTE3IiBpZD0idGV4dDE4OSI+c2NoZWQ8L3RleHQ+JiN4YTsgICA8L2c+JiN4YTsgICA8cGF0aCBkYXRhLW5hbWU9InBhdGgxOTg0IiBkPSJtNDU2LjY3IDQxNy41NWMtMC41NCAwLTE1LjczIDcuNDMtMTUuOTMgNy44MS0wLjQ3IDAuOTEtMy45MyAxNi44LTMuNzIgMTcuMTRzMi42IDMuMzQgNS41MyA3bDUuMzEgNi42M2gxNy40OWw1LjU2LTYuOTIgNS41Ny02LjkzLTItOC41MWMtMS4wNy00LjY4LTItOC41OC0yLjEzLTguNjgtMC4yNy0wLjI2LTE1LjQzLTcuNTEtMTUuNzMtNy41MnptMC45MyA3Ljc4YzAuNzQgMCAwLjgxIDEuMTUgMi4zOCAxLjI2IDIuMDYgMC4xNiAxLjg0LTEuNzUgMy40MS0wLjQycy0wLjM1IDEuNDIgMC4xNCAzLjQxIDIuMjMgMS4yIDEuNDUgMy4xLTEuNDYgMC4xMS0zLjIxIDEuMTktMC40NiAyLjQ5LTIuNTEgMi4zNC0wLjU1LTEuMzYtMi4xMi0yLjY5LTIuNTIgMC4zNC0zLTEuNjUgMS4xMi0wLjk0IDEuOTEtMi44NC0xLjExLTIuMjggMC42NC0zLjM2YTIuNDEgMi40MSAwIDAgMSAwLjU2LTAuMjggMS4zNCAxLjM0IDAgMCAxIDAuMzYtMC4wNnptMiAyLjI1YTMgMyAwIDEgMCAyLjg0IDIuMTEgMyAzIDAgMCAwLTIuNzktMi4xMXptLTExLjc4IDUuMWEyLjY4IDIuNjggMCAwIDEgMC41OSAwLjExYzEuODkgMC41OCAwIDEuNTcgMS4zMSAzczIuNDgtMC40IDIuOTIgMS41Mi0xLjM4IDAuNzYtMiAyLjY0IDEuNTggMS45NCAwLjE0IDMuMjgtMS4zNS0wLjgtMy4yNy0wLjM2LTAuOSAyLjMzLTIuNzkgMS43NSAwLTEuNTYtMS4zMS0zLTIuNDggMC40LTIuOTItMS41MiAxLjM4LTAuNzYgMi0yLjY0LTEuNTktMS45NC0wLjE0LTMuMjggMS4zNSAwLjgxIDMuMjcgMC4zN2MxLjY5LTAuMzkgMS4xMS0xLjg4IDIuMi0xLjg3em0xNC4wNSAyLjA2YTEuODcgMS44NyAwIDAgMSAwLjY3IDAuMTZjMi4xNyAwLjg0LTAuNjkgMi4xNCAxIDMuNzVzMi44Ny0xLjMxIDMuODEgMC44Mi0yIDEtMiAzLjM2IDIuOTUgMS4wOSAyLjExIDMuMjYtMi4xNS0wLjY4LTMuNzYgMSAxLjMgMi44NS0wLjgzIDMuNzktMS0yLTMuMzctMS45NS0xLjEgMi45NC0zLjI4IDIuMSAwLjY5LTIuMTQtMS0zLjc1LTIuODYgMS4zLTMuOC0wLjgzIDItMSAyLTMuMzUtMy0xLjEtMi4xMS0zLjI3IDIuMTUgMC42OSAzLjc3LTEtMS4zMS0yLjg2IDAuODItMy44IDEgMiAzLjM3IDEuOTVjMiAwIDEuMzUtMi4yNiAyLjYxLTIuMjV6bS0xNS4yOCAxYTMgMyAwIDEgMCAzIDMgMyAzIDAgMCAwLTIuOTUtM3ptMTIuOCAyLjg1YTQuMzggNC4zOCAwIDEgMCA0LjQgNC4zNyA0LjM5IDQuMzkgMCAwIDAtNC4zNS00LjM3eiIgY2xhc3M9ImNscy0xMyIgaWQ9InBhdGgxOTg0LTIiLz4mI3hhOyAgPC9nPiYjeGE7ICA8ZyBkYXRhLW5hbWU9ImxheWVyMSIgdHJhbnNmb3JtPSJ0cmFuc2xhdGUoLTMxLjgzOSkiIGlkPSJsYXllcjEtOSI+JiN4YTsgICA8ZyBkYXRhLW5hbWU9Imc3MCIgaWQ9Imc3MC05Ij4mI3hhOyAgICA8cGF0aCBkYXRhLW5hbWU9InBhdGgzMDU1IiBkPSJtNDY1LjQ1IDQxMy4yNGE0LjQgNC40IDAgMCAwLTEuNzEgMC40M2wtMjMuMzggMTEuMTNhNC40MyA0LjQzIDAgMCAwLTIuNDIgM2wtNS43NyAyNWE0LjM2IDQuMzYgMCAwIDAgMC42MSAzLjM5IDIuOCAyLjggMCAwIDAgMC4yNSAwLjM1bDE2LjE4IDIwLjA2YTQuNSA0LjUgMCAwIDAgMy41IDEuNjZoMjZhNC41IDQuNSAwIDAgMCAzLjUtMS42NmwxNi4xOC0yMC4wNmE0LjM1IDQuMzUgMCAwIDAgMC44Ni0zLjc0bC01Ljc3LTI1YTQuNDQgNC40NCAwIDAgMC0yLjQyLTNsLTIzLjM5LTExLjEzYTQuNDkgNC40OSAwIDAgMC0yLjIyLTAuNDN6IiBjbGFzcz0iY2xzLTExIiBpZD0icGF0aDMwNTUtOSIvPiYjeGE7ICAgIDxwYXRoIGRhdGEtbmFtZT0icGF0aDMwNTQtMi05IiBkPSJtNDY1LjQ0IDQxMS40M2E0LjczIDQuNzMgMCAwIDAtMS44MSAwLjQ1bC0yNC42MyAxMS43NmE0LjY2IDQuNjYgMCAwIDAtMi41NiAzLjE2bC02LjA5IDI2LjRhNC42NSA0LjY1IDAgMCAwIDAuNjQgMy41OGwwLjI3IDAuMzcgMTcuMDkgMjEuMThhNC43MiA0LjcyIDAgMCAwIDMuNjkgMS43NWgyNy40YTQuNzYgNC43NiAwIDAgMCAzLjY5LTEuNzZsMTcuMDgtMjEuMTdhNC42NCA0LjY0IDAgMCAwIDAuOTEtMy45NWwtNi4xMi0yNi40YTQuNjkgNC42OSAwIDAgMC0yLjU1LTMuMTdsLTI0LjY5LTExLjc1YTQuNzUgNC43NSAwIDAgMC0yLjMyLTAuNDV6bTAgMS44MWE0LjUyIDQuNTIgMCAwIDEgMi4xNyAwLjQzbDIzLjM5IDExLjEzYTQuNDIgNC40MiAwIDAgMSAyLjQxIDNsNS43OCAyNWE0LjM1IDQuMzUgMCAwIDEtMC44NiAzLjc0bC0xNi4xOCAyMC4wNmE0LjUgNC41IDAgMCAxLTMuNSAxLjY2aC0yNmE0LjUgNC41IDAgMCAxLTMuNS0xLjY2bC0xNi4xNS0yMC4wNWMtMC4wOS0wLjExLTAuMTgtMC4yMy0wLjI2LTAuMzVhNC40IDQuNCAwIDAgMS0wLjYtMy4zOWw1Ljc3LTI1YTQuNDMgNC40MyAwIDAgMSAyLjQyLTNsMjMuMzgtMTEuMTNhNC40IDQuNCAwIDAgMSAxLjcxLTAuNDN6IiBjbGFzcz0iY2xzLTEzIiBpZD0icGF0aDMwNTQtMi05LTkiLz4mI3hhOyAgIDwvZz4mI3hhOyAgIDxnIGRhdGEtbmFtZT0idGV4dDIwNjYiIGNsYXNzPSJjbHMtMTQiIGlkPSJ0ZXh0MjA2Ni05Ij4mI3hhOyAgICA8dGV4dCB0cmFuc2Zvcm09InRyYW5zbGF0ZSg0NTEuMDgsNDcyLjc3KSIgY2xhc3M9ImNscy0xNyIgaWQ9InRleHQxOTciPnNjaGVkPC90ZXh0PiYjeGE7ICAgPC9nPiYjeGE7ICAgPHBhdGggZGF0YS1uYW1lPSJwYXRoMTk4NCIgZD0ibTQ2NS42MSA0MjQuMjZjLTAuNTQgMC0xNS43MiA3LjQyLTE1LjkyIDcuOC0wLjQ4IDAuOTItMy45MyAxNi44LTMuNzMgMTcuMTRzMi42MSAzLjM1IDUuNTMgN2w1LjMxIDYuNjJoMTcuNDlsNS41Ny02LjkzIDUuNTYtNi45Mi0xLjk1LTguNTFjLTEuMDctNC42OC0yLTguNTktMi4xMi04LjY4LTAuMjgtMC4yNi0xNS40NC03LjUxLTE1Ljc0LTcuNTJ6bTAuOTMgNy43OGMwLjc0IDAgMC44MSAxLjE0IDIuMzkgMS4yNiAyLjA1IDAuMTUgMS44My0xLjc1IDMuNC0wLjQzcy0wLjM1IDEuNDMgMC4xNCAzLjQyIDIuMjQgMS4yIDEuNDYgMy4xLTEuNDcgMC4xLTMuMjIgMS4xOC0wLjQ1IDIuNS0yLjUxIDIuMzQtMC41NS0xLjM1LTIuMTItMi42OC0yLjUyIDAuMzQtMy0xLjY1IDEuMTMtMC45NSAxLjkxLTIuODUtMS4xMS0yLjI4IDAuNjQtMy4zNmEyLjc4IDIuNzggMCAwIDEgMC41Ni0wLjI3IDEgMSAwIDAgMSAwLjM2LTAuMDZ6bTIuMDYgMi4yNGEyLjg5IDIuODkgMCAwIDAtMC44OCAwLjEzIDMgMyAwIDEgMCAwLjg4LTAuMTN6bS0xMS43OCA1LjExYTIuMjEgMi4yMSAwIDAgMSAwLjU4IDAuMTFjMS44OSAwLjU4IDAgMS41NyAxLjMyIDNzMi40Ny0wLjQgMi45MSAxLjUyLTEuMzcgMC43Ni0xLjk1IDIuNjQgMS41OCAxLjk0IDAuMTMgMy4yOC0xLjM0LTAuODEtMy4yNy0wLjM3LTAuODkgMi4zNC0yLjc4IDEuNzYgMC0xLjU3LTEuMzItMy0yLjQ3IDAuNC0yLjkyLTEuNTIgMS4zOC0wLjc2IDItMi42NC0xLjU4LTEuOTQtMC4xNC0zLjI4IDEuMzUgMC44MSAzLjI4IDAuMzZjMS42OC0wLjM4IDEuMS0xLjg4IDIuMi0xLjg2em0xNCAyLjA2YTIgMiAwIDAgMSAwLjY3IDAuMTVjMi4xOCAwLjg1LTAuNjkgMi4xNSAxIDMuNzVzMi44Ni0xLjMgMy44IDAuODMtMiAxLTEuOTUgMy4zNiAyLjk1IDEuMDkgMi4xIDMuMjYtMi4xNS0wLjY5LTMuNzYgMSAxLjMxIDIuODUtMC44MyAzLjc5LTEtMi0zLjM3LTEuOTUtMS4xIDIuOTQtMy4yNyAyLjEgMC42OS0yLjE1LTEtMy43NS0yLjg2IDEuMy0zLjgxLTAuODMgMi0xIDItMy4zNi0yLjk1LTEuMDktMi4xMS0zLjI2IDIuMTUgMC42OSAzLjc3LTEtMS4zMS0yLjg1IDAuODMtMy43OSAxIDIgMy4zNiAxLjk1YzIuMDUtMC4wNSAxLjM2LTIuMjYgMi42MS0yLjI1em0tMTUuMjggMWEzIDMgMCAxIDAgMyAzIDMgMyAwIDAgMC0yLjk2LTN6bTEyLjgxIDIuODVhNC4zOCA0LjM4IDAgMSAwIDQuMzkgNC4zNyA0LjM3IDQuMzcgMCAwIDAtNC4zNS00LjM3eiIgY2xhc3M9ImNscy0xMyIgaWQ9InBhdGgxOTg0LTMiLz4mI3hhOyAgPC9nPiYjeGE7IDwvZz4mI3hhOyA8dGV4dCBmb250LXNpemU9IjEycHgiIGZvbnQtZmFtaWx5PSInT3BlbiBTYW5zJywgc2Fucy1zZXJpZiIgeT0iNDg1LjU1OTExIiB4PSIyMTYuNzEyNjgiIGNsYXNzPSJjbHMtMjIiIGlkPSJ0ZXh0MjU1Ij48dHNwYW4gc3R5bGU9ImZvbnQtdmFyaWFudC1jYXBzOm5vcm1hbDtmb250LXZhcmlhbnQtZWFzdC1hc2lhbjpub3JtYWw7Zm9udC12YXJpYW50LWxpZ2F0dXJlczpub3JtYWw7Zm9udC12YXJpYW50LW51bWVyaWM6bm9ybWFsIiB0ZXh0LWFuY2hvcj0ibWlkZGxlIiBmb250LXdlaWdodD0iYm9sZCIgZm9udC1zaXplPSIxNC42NjdweCIgZm9udC1mYW1pbHk9IidPcGVuIFNhbnMnIiBpZD0idHNwYW4xMDUzIj5Db250cm9sIFBsYW5lPC90c3Bhbj48L3RleHQ+JiN4YTsgPHRleHQgZm9udC1zaXplPSIxMnB4IiBmb250LWZhbWlseT0iJ09wZW4gU2FucycsIHNhbnMtc2VyaWYiIHk9IjI3NS4yNzcxMyIgeD0iNTQ5LjA1NTk3IiBjbGFzcz0iY2xzLTIyIiBpZD0idGV4dDI1NyI+PHRzcGFuIHN0eWxlPSJmb250LXZhcmlhbnQtY2Fwczpub3JtYWw7Zm9udC12YXJpYW50LWVhc3QtYXNpYW46bm9ybWFsO2ZvbnQtdmFyaWFudC1saWdhdHVyZXM6bm9ybWFsO2ZvbnQtdmFyaWFudC1udW1lcmljOm5vcm1hbCIgdGV4dC1hbmNob3I9Im1pZGRsZSIgZm9udC13ZWlnaHQ9ImJvbGQiIGZvbnQtc2l6ZT0iMTQuNjY3cHgiIGZvbnQtZmFtaWx5PSInT3BlbiBTYW5zJyIgaWQ9InRzcGFuMTMxMiI+Tm9kZTwvdHNwYW4+PC90ZXh0PiYjeGE7IDx0ZXh0IHk9IjY2NC43NDQwMiIgeD0iLTEyMy44MTc0NCIgaWQ9InRleHQyNTkiLz4mI3hhOyA8ZyBkYXRhLW5hbWU9ImxheWVyMSIgdHJhbnNmb3JtPSJ0cmFuc2xhdGUoLTE1MS41NCAtNjEuMzMyKSIgaWQ9ImxheWVyMS0xNSI+JiN4YTsgIDxnIGRhdGEtbmFtZT0iZzcwIiBpZD0iZzcwLTE2Ij4mI3hhOyAgIDxwYXRoIGRhdGEtbmFtZT0icGF0aDMwNTUiIGQ9Im0yNzYuNDUgNDExLjQyYTQuMyA0LjMgMCAwIDAtMS42MyAwLjMybC0yMi4zIDlhNCA0IDAgMCAwLTIuMzcgMi41NWwtNi4xNSAyMS43NmEzLjY1IDMuNjUgMCAwIDAgMC40OCAzIDMuNDYgMy40NiAwIDAgMCAwLjIyIDAuMzFsMTQuNjQgMTguMDhhNC4zNiA0LjM2IDAgMCAwIDMuMjMgMS41N2wyNC40MSAwLjhhNC4zNSA0LjM1IDAgMCAwIDMuMzMtMS4zNWwxNS43OS0xNy4wNmEzLjY3IDMuNjcgMCAwIDAgMC45My0zLjI1bC00LjcxLTIyLjA5YTQgNCAwIDAgMC0yLjE5LTIuNzFsLTIxLjY2LTEwLjQ4YTQuNTEgNC41MSAwIDAgMC0yLjAyLTAuNDV6IiBjbGFzcz0iY2xzLTExIiBpZD0icGF0aDMwNTUtMTYiLz4mI3hhOyAgIDxwYXRoIGRhdGEtbmFtZT0icGF0aDMwNTQtMi05IiBkPSJtMjc2LjQ5IDQwOS44M2E0LjcgNC43IDAgMCAwLTEuNzEgMC4zNWwtMjMuNTYgOS41MmE0LjE4IDQuMTggMCAwIDAtMi40OSAyLjY5bC02LjQ5IDIyLjk0YTMuODUgMy44NSAwIDAgMCAwLjUgMy4xNiAyIDIgMCAwIDAgMC4yNCAwLjMzbDE1LjQ1IDE5LjA5YTQuNTkgNC41OSAwIDAgMCAzLjQxIDEuNjVsMjUuNzYgMC44NWE0LjYyIDQuNjIgMCAwIDAgMy41Mi0xLjQybDE2LjY4LTE4YTMuODYgMy44NiAwIDAgMCAxLTMuNDNsLTUtMjMuMzJhNC4xNyA0LjE3IDAgMCAwLTIuMzEtMi44NWwtMjIuODYtMTEuMDlhNC43OCA0Ljc4IDAgMCAwLTIuMTQtMC40N3ptMCAxLjU5YTQuNTEgNC41MSAwIDAgMSAyIDAuNDRsMjEuNjYgMTAuNDhhNCA0IDAgMCAxIDIuMTkgMi43MWw0LjcgMjIuMDlhMy42MyAzLjYzIDAgMCAxLTAuOTIgMy4yNWwtMTUuNzkgMTcuMDdhNC4zOCA0LjM4IDAgMCAxLTMuMzMgMS4zNGwtMjQuNC0wLjhhNC4zNCA0LjM0IDAgMCAxLTMuMjMtMS41N2wtMTQuNjctMTguMDgtMC4yMy0wLjMxYTMuNjkgMy42OSAwIDAgMS0wLjQ3LTNsNi4xNS0yMS43M2E0IDQgMCAwIDEgMi4zNi0yLjU1bDIyLjMxLTlhNC43MyA0LjczIDAgMCAxIDEuNjMtMC4zMnoiIGNsYXNzPSJjbHMtMTMiIGlkPSJwYXRoMzA1NC0yLTktMTYiLz4mI3hhOyAgPC9nPiYjeGE7ICA8ZyBkYXRhLW5hbWU9InRleHQyMDY2IiBjbGFzcz0iY2xzLTE0IiBpZD0idGV4dDIwNjYtMTYiPiYjeGE7ICAgPHRleHQgdHJhbnNmb3JtPSJtYXRyaXgoMS4wNzk0IC4wMzU4MDggLS4wMzMxNTUgLjk5OTQ1IDI2NS4yNCA0NjMuMjYpIiBjbGFzcz0iY2xzLTIzIiBpZD0idGV4dDI2NCI+ZXRjZDwvdGV4dD4mI3hhOyAgPC9nPiYjeGE7ICA8cGF0aCBkPSJtMjc2LjI4IDQyMS4wOGMtMC41MSAwLTE1IDYtMTUuMiA2LjM0LTAuNDggMC43OS00LjE5IDE0LjU5LTQgMTQuOXMyLjM2IDMgNSA2LjI5bDQuOCA2IDguMjIgMC4yOCA4LjIzIDAuMjcgNS40My01Ljg5IDUuNDMtNS45LTEuNTgtNy41MWMtMC44Ny00LjE0LTEuNjYtNy41OS0xLjc1LTcuNjctMC4yNS0wLjI0LTE0LjI5LTcuMDYtMTQuNTctNy4wOHoiIGNsYXNzPSJjbHMtMTMiIGlkPSJwYXRoMjA3OCIvPiYjeGE7ICA8cGF0aCBkPSJtMjkxLjA1IDQ0MC4zN2gtMC40NmE2LjMgNi4zIDAgMCAxLTIuNjItMC42NiAyMSAyMSAwIDAgMCAwLjUtNC4zMiAyMy44NiAyMy44NiAwIDAgMC0yLjkxLTMuNDIgNS43NyA1Ljc3IDAgMCAxIDIuMi0ybDAuNC0wLjIxLTAuMy0wLjMzYTE1Ljg0IDE1Ljg0IDAgMCAwLTUuNDItMy45NGwtMC40Mi0wLjE5LTAuMTIgMC40MWE1LjQzIDUuNDMgMCAwIDEtMS41OCAyLjQ5IDI1LjQxIDI1LjQxIDAgMCAwLTQuMy0xLjgxIDI1IDI1IDAgMCAwLTQuMzkgMS41MiA1LjQ0IDUuNDQgMCAwIDEtMS40Mi0yLjU4bC0wLjA5LTAuNDItMC40MyAwLjE2YTE2IDE2IDAgMCAwLTUuNjkgMy41M2wtMC4zMSAwLjMxIDAuMzggMC4yM2E1LjcgNS43IDAgMCAxIDIuMDUgMi4xOCAyMy41MyAyMy41MyAwIDAgMC0zLjEyIDMuMiAyMS4zNyAyMS4zNyAwIDAgMCAwLjIgNC4zNyA2LjM2IDYuMzYgMCAwIDEtMi42NCAwLjQ4IDMuNDQgMy40NCAwIDAgMS0wLjQ2IDBoLTAuNDV2MC40M2ExMy45IDEzLjkgMCAwIDAgMS45MyA2LjEzbDAuMjIgMC4zOCAwLjM2LTAuMjdhNi4yMyA2LjIzIDAgMCAxIDIuODYtMS4xMyAyMi45MiAyMi45MiAwIDAgMCAyLjMgMy43NCAyNi40NiAyNi40NiAwIDAgMCA0LjU1IDEuMiA1LjExIDUuMTEgMCAwIDEtMC40OCAyLjg5bC0wLjE4IDAuMzkgMC40NCAwLjExYTE2LjgzIDE2LjgzIDAgMCAwIDMuNDMgMC40NmwzLjQ0LTAuMjQgMC40NS0wLjA3LTAuMTYtMC40YTUuMTUgNS4xNSAwIDAgMS0wLjI4LTIuOTIgMjUuODIgMjUuODIgMCAwIDAgNC42LTAuOSAyMS43MiAyMS43MiAwIDAgMCAyLjU0LTMuNTggNi4wNyA2LjA3IDAgMCAxIDIuOCAxLjMzbDAuMzQgMC4yOCAwLjI1LTAuMzZhMTMuOTEgMTMuOTEgMCAwIDAgMi4zMy02bDAuMDYtMC40MnptLTEwLjczIDQuODNhMjAgMjAgMCAwIDEtOS44My0wLjMzIDE3LjE2IDE3LjE2IDAgMCAxLTItNC4xOCAxNi4yMiAxNi4yMiAwIDAgMS0wLjc0LTQuNTUgMTguNDQgMTguNDQgMCAwIDEgMy42Ny0zIDE5LjM0IDE5LjM0IDAgMCAxIDQuNDItMi4wNSAxOS41NyAxOS41NyAwIDAgMSA0LjI2IDIuMzQgMTguMzggMTguMzggMCAwIDEgMy40OCAzLjI5IDE2LjE5IDE2LjE5IDAgMCAxLTEuMDUgNC40NyAxNy4wOSAxNy4wOSAwIDAgMS0yLjIxIDQuMDF6bS0zLjMyLTcuMzlhMi4wOCAyLjA4IDAgMCAwIDQuMTUgMC4xNCAyLjA4IDIuMDggMCAwIDAtNC4xNS0wLjE0em0tMi42OS0wLjA5YTIuMDggMi4wOCAwIDEgMS0yLTIgMiAyIDAgMCAxIDIgMnoiIGNsYXNzPSJjbHMtMTEiIGlkPSJwYXRoNDU5MCIvPiYjeGE7IDwvZz4mI3hhOyA8dGV4dCBmb250LXNpemU9IjEycHgiIGZvbnQtZmFtaWx5PSInT3BlbiBTYW5zJywgc2Fucy1zZXJpZiIgeT0iNDcuMDMwODMiIHg9IjQ4MC4xMTcyNSIgY2xhc3M9ImNscy0yMiIgaWQ9InRleHQyNzQiPjx0c3BhbiBmb250LXdlaWdodD0iYm9sZCIgZm9udC1zaXplPSIyMS4zMzNweCIgZm9udC1mYW1pbHk9IidPcGVuIFNhbnMnIiBmaWxsPSIjZmZmZmZmIiBpZD0idHNwYW4xMzE0Ij5LdWJlcm5ldGVzIGNsdXN0ZXI8L3RzcGFuPjwvdGV4dD4mI3hhOyA8ZyB0cmFuc2Zvcm09InRyYW5zbGF0ZSgtMTIzLjgyIC00MC45OTcpIiBpZD0iZzIwMTgiPiYjeGE7ICA8ZyBkYXRhLW5hbWU9ImxheWVyMSIgdHJhbnNmb3JtPSJ0cmFuc2xhdGUoLTQyLjY0NSAtNC45OTUpIiBpZD0ibGF5ZXIxLTEwLTEiPiYjeGE7ICAgPGcgZGF0YS1uYW1lPSJnNzAiIGlkPSJnNzAtMTAtMiI+JiN4YTsgICAgPHBhdGggZGF0YS1uYW1lPSJwYXRoMzA1NSIgZD0ibTQ2My42MSAyNTcuMjJhNC4zOSA0LjM5IDAgMCAwLTEuNiAwLjRsLTIxLjgxIDEwLjQzYTQuMTUgNC4xNSAwIDAgMC0yLjI2IDIuOGwtNS4zOCAyMy40MWE0LjEyIDQuMTIgMCAwIDAgMC41NyAzLjE3IDMuNDMgMy40MyAwIDAgMCAwLjI0IDAuMzNsMTUuMDkgMTguNzdhNC4xOSA0LjE5IDAgMCAwIDMuMjYgMS41NWgyNC4yMWE0LjE5IDQuMTkgMCAwIDAgMy4yNi0xLjU1bDE1LjA5LTE4Ljc4YTQuMTIgNC4xMiAwIDAgMCAwLjgxLTMuNWwtNS4zOS0yMy40YTQuMTYgNC4xNiAwIDAgMC0yLjI2LTIuODFsLTIxLjgxLTEwLjQyYTQuMTYgNC4xNiAwIDAgMC0yLjAyLTAuNHoiIGNsYXNzPSJjbHMtMTEiIGlkPSJwYXRoMzA1NS0xMC01Ii8+JiN4YTsgICAgPHBhdGggZGF0YS1uYW1lPSJwYXRoMzA1NC0yLTkiIGQ9Im00NjMuNiAyNTUuNTNhNC40OCA0LjQ4IDAgMCAwLTEuNjkgMC40MmwtMjMgMTFhNC4zOSA0LjM5IDAgMCAwLTIuMzkgM2wtNS42OCAyNC43MWE0LjMzIDQuMzMgMCAwIDAgMC42IDMuMzRjMC4wOCAwLjEyIDAuMTYgMC4yNCAwLjI1IDAuMzVsMTUuOTQgMTkuODJhNC40MyA0LjQzIDAgMCAwIDMuNDQgMS42NGgyNS41M2E0LjQzIDQuNDMgMCAwIDAgMy40NS0xLjY0bDE1Ljk1LTE5Ljg1YTQuMzkgNC4zOSAwIDAgMCAwLjg1LTMuN2wtNS42OS0yNC43MWE0LjQxIDQuNDEgMCAwIDAtMi4zOC0zbC0yMy0xMWE0LjM1IDQuMzUgMCAwIDAtMi4xOC0wLjM4em0wIDEuNjlhNC4xNyA0LjE3IDAgMCAxIDIgMC40MWwyMS44NCAxMC4zN2E0LjE5IDQuMTkgMCAwIDEgMi4yNiAyLjgxbDUuMzkgMjMuNGE0LjEyIDQuMTIgMCAwIDEtMC44MSAzLjVsLTE1LjA5IDE4Ljc4YTQuMTkgNC4xOSAwIDAgMS0zLjI2IDEuNTVoLTI0LjIxYTQuMTkgNC4xOSAwIDAgMS0zLjI2LTEuNTZsLTE1LjA5LTE4Ljc3YTMuNDMgMy40MyAwIDAgMS0wLjI0LTAuMzMgNC4xMiA0LjEyIDAgMCAxLTAuNTctMy4xN2w1LjM4LTIzLjQxYTQuMTcgNC4xNyAwIDAgMSAyLjI2LTIuOGwyMS44LTEwLjM3YTQuMjEgNC4yMSAwIDAgMSAxLjYtMC40MXoiIGNsYXNzPSJjbHMtMTMiIGlkPSJwYXRoMzA1NC0yLTktMTAtNyIvPiYjeGE7ICAgPC9nPiYjeGE7ICAgPGcgZGF0YS1uYW1lPSJ0ZXh0MjA2NiIgY2xhc3M9ImNscy0xNCIgaWQ9InRleHQyMDY2LTEwLTIiPiYjeGE7ICAgIDx0ZXh0IHRyYW5zZm9ybT0idHJhbnNsYXRlKDQ1Ny4wOCwzMTIuOTQpIiBjbGFzcz0iY2xzLTE4IiBpZD0idGV4dDIwNS02Ij5hcGk8L3RleHQ+JiN4YTsgICA8L2c+JiN4YTsgICA8cGF0aCBkYXRhLW5hbWU9InBhdGgxOTg0IiBkPSJtNDYzLjc2IDI2Ny41NGMtMC41MSAwLTE0LjY3IDYuOTQtMTQuODYgNy4zLTAuNDQgMC44Ni0zLjY2IDE1LjcyLTMuNDcgMTZzMi40MyAzLjEzIDUuMTUgNi41NGw1IDYuMmgxNi4zMWw1LjE5LTYuNDkgNS4xOS02LjQ4LTEuODEtOGMtMS00LjM4LTEuOS04LTItOC4xMy0wLjI1LTAuMjQtMTQuNC03LTE0LjY3LTd6bTAuODcgNy4yOGMwLjY4IDAgMC43NSAxLjA3IDIuMjIgMS4xOCAxLjkxIDAuMTQgMS43MS0xLjY0IDMuMTctMC40cy0wLjMyIDEuMzMgMC4xMyAzLjIgMi4wOSAxLjEyIDEuMzYgMi44OS0xLjM3IDAuMS0zIDEuMTEtMC40MiAyLjM0LTIuMzQgMi4xOS0wLjUxLTEuMjctMi0yLjUxLTIuMzUgMC4zMi0yLjgtMS41NCAxLjA1LTAuODkgMS43OC0yLjY3LTEtMi4xMyAwLjYtMy4xNGEyLjI4IDIuMjggMCAwIDEgMC41Mi0wLjI2IDAuODggMC44OCAwIDAgMSAwLjM0LTAuMDV6bTEuOTEgMi4xYTIuODYgMi44NiAwIDAgMC0wLjgyIDAuMTIgMi43NyAyLjc3IDAgMSAwIDAuODItMC4xMnptLTExIDQuNzhhMS44NCAxLjg0IDAgMCAxIDAuNTUgMC4xYzEuNzYgMC41NCAwIDEuNDcgMS4yMiAyLjgxczIuMzEtMC4zNyAyLjczIDEuNDMtMS4yOSAwLjcxLTEuODMgMi40NyAxLjQ3IDEuODEgMC4xMyAzLjA3LTEuMjYtMC43Ni0zLjA2LTAuMzQtMC44MyAyLjE4LTIuNTkgMS42NCAwLTEuNDctMS4yMy0yLjgyLTIuMzEgMC4zNy0yLjcyLTEuNDIgMS4yOS0wLjcxIDEuODMtMi40Ny0xLjQ4LTEuODItMC4xMy0zLjA3IDEuMjYgMC43NSAzLjA1IDAuMzRjMS41Ny0wLjM2IDEtMS43NiAyLjA1LTEuNzR6bTEzLjEgMS45MmEyLjA4IDIuMDggMCAwIDEgMC42MyAwLjE1YzIgMC43OS0wLjY1IDIgMC45MyAzLjUxczIuNjctMS4yMiAzLjU1IDAuNzctMS44OCAxLTEuODMgMy4xNCAyLjc1IDEgMiAzLjA2LTItMC42NS0zLjUxIDAuOTMgMS4yMSAyLjY3LTAuNzggMy41NS0xLTEuODctMy4xNC0xLjgzLTEgMi43NS0zLjA1IDIgMC42NC0yLTAuOTQtMy41MS0yLjY3IDEuMjItMy41NC0wLjc4IDEuODctMSAxLjgyLTMuMTQtMi43NS0xLTItMy4wNSAyIDAuNjQgMy41MS0wLjkzLTEuMjItMi42NyAwLjc3LTMuNTUgMSAxLjg3IDMuMTQgMS44MmMxLjkxIDAgMS4yNi0yLjEyIDIuNDMtMi4xMXptLTE0LjI1IDAuOTRhMi43OCAyLjc4IDAgMSAwIDIuNzggMi43OCAyLjc3IDIuNzcgMCAwIDAtMi43Ny0yLjc4em0xMiAyLjY2YTQuMSA0LjEgMCAxIDAgNC4wOSA0LjEgNC4xIDQuMSAwIDAgMC00LjEzLTQuMXoiIGNsYXNzPSJjbHMtMTMiIGlkPSJwYXRoMTk4NC00LTAiLz4mI3hhOyAgPC9nPiYjeGE7ICA8ZyBkYXRhLW5hbWU9ImxheWVyMSIgdHJhbnNmb3JtPSJ0cmFuc2xhdGUoLTMzLjg5NSA0LjUxNSkiIGlkPSJsYXllcjEtMTAiPiYjeGE7ICAgPGcgZGF0YS1uYW1lPSJnNzAiIGlkPSJnNzAtMTAiPiYjeGE7ICAgIDxwYXRoIGRhdGEtbmFtZT0icGF0aDMwNTUiIGQ9Im00NjMuNjEgMjU3LjIyYTQuMzkgNC4zOSAwIDAgMC0xLjYgMC40bC0yMS44MSAxMC40M2E0LjE1IDQuMTUgMCAwIDAtMi4yNiAyLjhsLTUuMzggMjMuNDFhNC4xMiA0LjEyIDAgMCAwIDAuNTcgMy4xNyAzLjQzIDMuNDMgMCAwIDAgMC4yNCAwLjMzbDE1LjA5IDE4Ljc3YTQuMTkgNC4xOSAwIDAgMCAzLjI2IDEuNTVoMjQuMjFhNC4xOSA0LjE5IDAgMCAwIDMuMjYtMS41NWwxNS4wOS0xOC43OGE0LjEyIDQuMTIgMCAwIDAgMC44MS0zLjVsLTUuMzktMjMuNGE0LjE2IDQuMTYgMCAwIDAtMi4yNi0yLjgxbC0yMS44MS0xMC40MmE0LjE2IDQuMTYgMCAwIDAtMi4wMi0wLjR6IiBjbGFzcz0iY2xzLTExIiBpZD0icGF0aDMwNTUtMTAiLz4mI3hhOyAgICA8cGF0aCBkYXRhLW5hbWU9InBhdGgzMDU0LTItOSIgZD0ibTQ2My42IDI1NS41M2E0LjQ4IDQuNDggMCAwIDAtMS42OSAwLjQybC0yMyAxMWE0LjM5IDQuMzkgMCAwIDAtMi4zOSAzbC01LjY4IDI0LjcxYTQuMzMgNC4zMyAwIDAgMCAwLjYgMy4zNGMwLjA4IDAuMTIgMC4xNiAwLjI0IDAuMjUgMC4zNWwxNS45NCAxOS44MmE0LjQzIDQuNDMgMCAwIDAgMy40NCAxLjY0aDI1LjUzYTQuNDMgNC40MyAwIDAgMCAzLjQ1LTEuNjRsMTUuOTUtMTkuODVhNC4zOSA0LjM5IDAgMCAwIDAuODUtMy43bC01LjY5LTI0LjcxYTQuNDEgNC40MSAwIDAgMC0yLjM4LTNsLTIzLTExYTQuMzUgNC4zNSAwIDAgMC0yLjE4LTAuMzh6bTAgMS42OWE0LjE3IDQuMTcgMCAwIDEgMiAwLjQxbDIxLjg0IDEwLjM3YTQuMTkgNC4xOSAwIDAgMSAyLjI2IDIuODFsNS4zOSAyMy40YTQuMTIgNC4xMiAwIDAgMS0wLjgxIDMuNWwtMTUuMDkgMTguNzhhNC4xOSA0LjE5IDAgMCAxLTMuMjYgMS41NWgtMjQuMjFhNC4xOSA0LjE5IDAgMCAxLTMuMjYtMS41NmwtMTUuMDktMTguNzdhMy40MyAzLjQzIDAgMCAxLTAuMjQtMC4zMyA0LjEyIDQuMTIgMCAwIDEtMC41Ny0zLjE3bDUuMzgtMjMuNDFhNC4xNyA0LjE3IDAgMCAxIDIuMjYtMi44bDIxLjgtMTAuMzdhNC4yMSA0LjIxIDAgMCAxIDEuNi0wLjQxeiIgY2xhc3M9ImNscy0xMyIgaWQ9InBhdGgzMDU0LTItOS0xMCIvPiYjeGE7ICAgPC9nPiYjeGE7ICAgPGcgZGF0YS1uYW1lPSJ0ZXh0MjA2NiIgY2xhc3M9ImNscy0xNCIgaWQ9InRleHQyMDY2LTEwIj4mI3hhOyAgICA8dGV4dCB0cmFuc2Zvcm09InRyYW5zbGF0ZSg0NTcuMDgsMzEyLjk0KSIgY2xhc3M9ImNscy0xOCIgaWQ9InRleHQyMDUiPmFwaTwvdGV4dD4mI3hhOyAgIDwvZz4mI3hhOyAgIDxwYXRoIGRhdGEtbmFtZT0icGF0aDE5ODQiIGQ9Im00NjMuNzYgMjY3LjU0Yy0wLjUxIDAtMTQuNjcgNi45NC0xNC44NiA3LjMtMC40NCAwLjg2LTMuNjYgMTUuNzItMy40NyAxNnMyLjQzIDMuMTMgNS4xNSA2LjU0bDUgNi4yaDE2LjMxbDUuMTktNi40OSA1LjE5LTYuNDgtMS44MS04Yy0xLTQuMzgtMS45LTgtMi04LjEzLTAuMjUtMC4yNC0xNC40LTctMTQuNjctN3ptMC44NyA3LjI4YzAuNjggMCAwLjc1IDEuMDcgMi4yMiAxLjE4IDEuOTEgMC4xNCAxLjcxLTEuNjQgMy4xNy0wLjRzLTAuMzIgMS4zMyAwLjEzIDMuMiAyLjA5IDEuMTIgMS4zNiAyLjg5LTEuMzcgMC4xLTMgMS4xMS0wLjQyIDIuMzQtMi4zNCAyLjE5LTAuNTEtMS4yNy0yLTIuNTEtMi4zNSAwLjMyLTIuOC0xLjU0IDEuMDUtMC44OSAxLjc4LTIuNjctMS0yLjEzIDAuNi0zLjE0YTIuMjggMi4yOCAwIDAgMSAwLjUyLTAuMjYgMC44OCAwLjg4IDAgMCAxIDAuMzQtMC4wNXptMS45MSAyLjFhMi44NiAyLjg2IDAgMCAwLTAuODIgMC4xMiAyLjc3IDIuNzcgMCAxIDAgMC44Mi0wLjEyem0tMTEgNC43OGExLjg0IDEuODQgMCAwIDEgMC41NSAwLjFjMS43NiAwLjU0IDAgMS40NyAxLjIyIDIuODFzMi4zMS0wLjM3IDIuNzMgMS40My0xLjI5IDAuNzEtMS44MyAyLjQ3IDEuNDcgMS44MSAwLjEzIDMuMDctMS4yNi0wLjc2LTMuMDYtMC4zNC0wLjgzIDIuMTgtMi41OSAxLjY0IDAtMS40Ny0xLjIzLTIuODItMi4zMSAwLjM3LTIuNzItMS40MiAxLjI5LTAuNzEgMS44My0yLjQ3LTEuNDgtMS44Mi0wLjEzLTMuMDcgMS4yNiAwLjc1IDMuMDUgMC4zNGMxLjU3LTAuMzYgMS0xLjc2IDIuMDUtMS43NHptMTMuMSAxLjkyYTIuMDggMi4wOCAwIDAgMSAwLjYzIDAuMTVjMiAwLjc5LTAuNjUgMiAwLjkzIDMuNTFzMi42Ny0xLjIyIDMuNTUgMC43Ny0xLjg4IDEtMS44MyAzLjE0IDIuNzUgMSAyIDMuMDYtMi0wLjY1LTMuNTEgMC45MyAxLjIxIDIuNjctMC43OCAzLjU1LTEtMS44Ny0zLjE0LTEuODMtMSAyLjc1LTMuMDUgMiAwLjY0LTItMC45NC0zLjUxLTIuNjcgMS4yMi0zLjU0LTAuNzggMS44Ny0xIDEuODItMy4xNC0yLjc1LTEtMi0zLjA1IDIgMC42NCAzLjUxLTAuOTMtMS4yMi0yLjY3IDAuNzctMy41NSAxIDEuODcgMy4xNCAxLjgyYzEuOTEgMCAxLjI2LTIuMTIgMi40My0yLjExem0tMTQuMjUgMC45NGEyLjc4IDIuNzggMCAxIDAgMi43OCAyLjc4IDIuNzcgMi43NyAwIDAgMC0yLjc3LTIuNzh6bTEyIDIuNjZhNC4xIDQuMSAwIDEgMCA0LjA5IDQuMSA0LjEgNC4xIDAgMCAwLTQuMTMtNC4xeiIgY2xhc3M9ImNscy0xMyIgaWQ9InBhdGgxOTg0LTQiLz4mI3hhOyAgPC9nPiYjeGE7ICA8ZyBkYXRhLW5hbWU9ImxheWVyMSIgdHJhbnNmb3JtPSJ0cmFuc2xhdGUoLTI1LjE0NSAxNC4wMjUpIiBpZD0ibGF5ZXIxLTEwLTE0Ij4mI3hhOyAgIDxnIGRhdGEtbmFtZT0iZzcwIiBpZD0iZzcwLTEwLTEiPiYjeGE7ICAgIDxwYXRoIGRhdGEtbmFtZT0icGF0aDMwNTUiIGQ9Im00NjMuNjEgMjU3LjIyYTQuMzkgNC4zOSAwIDAgMC0xLjYgMC40bC0yMS44MSAxMC40M2E0LjE1IDQuMTUgMCAwIDAtMi4yNiAyLjhsLTUuMzggMjMuNDFhNC4xMiA0LjEyIDAgMCAwIDAuNTcgMy4xNyAzLjQzIDMuNDMgMCAwIDAgMC4yNCAwLjMzbDE1LjA5IDE4Ljc3YTQuMTkgNC4xOSAwIDAgMCAzLjI2IDEuNTVoMjQuMjFhNC4xOSA0LjE5IDAgMCAwIDMuMjYtMS41NWwxNS4wOS0xOC43OGE0LjEyIDQuMTIgMCAwIDAgMC44MS0zLjVsLTUuMzktMjMuNGE0LjE2IDQuMTYgMCAwIDAtMi4yNi0yLjgxbC0yMS44MS0xMC40MmE0LjE2IDQuMTYgMCAwIDAtMi4wMi0wLjR6IiBjbGFzcz0iY2xzLTExIiBpZD0icGF0aDMwNTUtMTAtNTMiLz4mI3hhOyAgICA8cGF0aCBkYXRhLW5hbWU9InBhdGgzMDU0LTItOSIgZD0ibTQ2My42IDI1NS41M2E0LjQ4IDQuNDggMCAwIDAtMS42OSAwLjQybC0yMyAxMWE0LjM5IDQuMzkgMCAwIDAtMi4zOSAzbC01LjY4IDI0LjcxYTQuMzMgNC4zMyAwIDAgMCAwLjYgMy4zNGMwLjA4IDAuMTIgMC4xNiAwLjI0IDAuMjUgMC4zNWwxNS45NCAxOS44MmE0LjQzIDQuNDMgMCAwIDAgMy40NCAxLjY0aDI1LjUzYTQuNDMgNC40MyAwIDAgMCAzLjQ1LTEuNjRsMTUuOTUtMTkuODVhNC4zOSA0LjM5IDAgMCAwIDAuODUtMy43bC01LjY5LTI0LjcxYTQuNDEgNC40MSAwIDAgMC0yLjM4LTNsLTIzLTExYTQuMzUgNC4zNSAwIDAgMC0yLjE4LTAuMzh6bTAgMS42OWE0LjE3IDQuMTcgMCAwIDEgMiAwLjQxbDIxLjg0IDEwLjM3YTQuMTkgNC4xOSAwIDAgMSAyLjI2IDIuODFsNS4zOSAyMy40YTQuMTIgNC4xMiAwIDAgMS0wLjgxIDMuNWwtMTUuMDkgMTguNzhhNC4xOSA0LjE5IDAgMCAxLTMuMjYgMS41NWgtMjQuMjFhNC4xOSA0LjE5IDAgMCAxLTMuMjYtMS41NmwtMTUuMDktMTguNzdhMy40MyAzLjQzIDAgMCAxLTAuMjQtMC4zMyA0LjEyIDQuMTIgMCAwIDEtMC41Ny0zLjE3bDUuMzgtMjMuNDFhNC4xNyA0LjE3IDAgMCAxIDIuMjYtMi44bDIxLjgtMTAuMzdhNC4yMSA0LjIxIDAgMCAxIDEuNi0wLjQxeiIgY2xhc3M9ImNscy0xMyIgaWQ9InBhdGgzMDU0LTItOS0xMC01Ii8+JiN4YTsgICA8L2c+JiN4YTsgICA8ZyBkYXRhLW5hbWU9InRleHQyMDY2IiBjbGFzcz0iY2xzLTE0IiBpZD0idGV4dDIwNjYtMTAtNyI+JiN4YTsgICAgPHRleHQgdHJhbnNmb3JtPSJ0cmFuc2xhdGUoNDU3LjA4LDMxMi45NCkiIGNsYXNzPSJjbHMtMTgiIGlkPSJ0ZXh0MjA1LTciPmFwaTwvdGV4dD4mI3hhOyAgIDwvZz4mI3hhOyAgIDxwYXRoIGRhdGEtbmFtZT0icGF0aDE5ODQiIGQ9Im00NjMuNzYgMjY3LjU0Yy0wLjUxIDAtMTQuNjcgNi45NC0xNC44NiA3LjMtMC40NCAwLjg2LTMuNjYgMTUuNzItMy40NyAxNnMyLjQzIDMuMTMgNS4xNSA2LjU0bDUgNi4yaDE2LjMxbDUuMTktNi40OSA1LjE5LTYuNDgtMS44MS04Yy0xLTQuMzgtMS45LTgtMi04LjEzLTAuMjUtMC4yNC0xNC40LTctMTQuNjctN3ptMC44NyA3LjI4YzAuNjggMCAwLjc1IDEuMDcgMi4yMiAxLjE4IDEuOTEgMC4xNCAxLjcxLTEuNjQgMy4xNy0wLjRzLTAuMzIgMS4zMyAwLjEzIDMuMiAyLjA5IDEuMTIgMS4zNiAyLjg5LTEuMzcgMC4xLTMgMS4xMS0wLjQyIDIuMzQtMi4zNCAyLjE5LTAuNTEtMS4yNy0yLTIuNTEtMi4zNSAwLjMyLTIuOC0xLjU0IDEuMDUtMC44OSAxLjc4LTIuNjctMS0yLjEzIDAuNi0zLjE0YTIuMjggMi4yOCAwIDAgMSAwLjUyLTAuMjYgMC44OCAwLjg4IDAgMCAxIDAuMzQtMC4wNXptMS45MSAyLjFhMi44NiAyLjg2IDAgMCAwLTAuODIgMC4xMiAyLjc3IDIuNzcgMCAxIDAgMC44Mi0wLjEyem0tMTEgNC43OGExLjg0IDEuODQgMCAwIDEgMC41NSAwLjFjMS43NiAwLjU0IDAgMS40NyAxLjIyIDIuODFzMi4zMS0wLjM3IDIuNzMgMS40My0xLjI5IDAuNzEtMS44MyAyLjQ3IDEuNDcgMS44MSAwLjEzIDMuMDctMS4yNi0wLjc2LTMuMDYtMC4zNC0wLjgzIDIuMTgtMi41OSAxLjY0IDAtMS40Ny0xLjIzLTIuODItMi4zMSAwLjM3LTIuNzItMS40MiAxLjI5LTAuNzEgMS44My0yLjQ3LTEuNDgtMS44Mi0wLjEzLTMuMDcgMS4yNiAwLjc1IDMuMDUgMC4zNGMxLjU3LTAuMzYgMS0xLjc2IDIuMDUtMS43NHptMTMuMSAxLjkyYTIuMDggMi4wOCAwIDAgMSAwLjYzIDAuMTVjMiAwLjc5LTAuNjUgMiAwLjkzIDMuNTFzMi42Ny0xLjIyIDMuNTUgMC43Ny0xLjg4IDEtMS44MyAzLjE0IDIuNzUgMSAyIDMuMDYtMi0wLjY1LTMuNTEgMC45MyAxLjIxIDIuNjctMC43OCAzLjU1LTEtMS44Ny0zLjE0LTEuODMtMSAyLjc1LTMuMDUgMiAwLjY0LTItMC45NC0zLjUxLTIuNjcgMS4yMi0zLjU0LTAuNzggMS44Ny0xIDEuODItMy4xNC0yLjc1LTEtMi0zLjA1IDIgMC42NCAzLjUxLTAuOTMtMS4yMi0yLjY3IDAuNzctMy41NSAxIDEuODcgMy4xNCAxLjgyYzEuOTEgMCAxLjI2LTIuMTIgMi40My0yLjExem0tMTQuMjUgMC45NGEyLjc4IDIuNzggMCAxIDAgMi43OCAyLjc4IDIuNzcgMi43NyAwIDAgMC0yLjc3LTIuNzh6bTEyIDIuNjZhNC4xIDQuMSAwIDEgMCA0LjA5IDQuMSA0LjEgNC4xIDAgMCAwLTQuMTMtNC4xeiIgY2xhc3M9ImNscy0xMyIgaWQ9InBhdGgxOTg0LTQtMyIvPiYjeGE7ICA8L2c+JiN4YTsgPC9nPiYjeGE7IDxnIHRyYW5zZm9ybT0idHJhbnNsYXRlKC0xMjMuODIgLTQwLjk5NykiIGlkPSJnMjA2NiI+JiN4YTsgIDxwYXRoIGQ9Im0zOTYuNSAxMDYuMTVoNzB2NzAuMTRoLTcweiIgY2xhc3M9ImNscy00IiBpZD0icGF0aDg0Ii8+JiN4YTsgIDxnIGRhdGEtbmFtZT0ibGF5ZXIxIiB0cmFuc2Zvcm09InRyYW5zbGF0ZSgtMzEuMzI2IC0yLjg0NDUpIiBpZD0ibGF5ZXIxLTExIj4mI3hhOyAgIDxnIGRhdGEtbmFtZT0iZzcwIiBpZD0iZzcwLTExIj4mI3hhOyAgICA8cGF0aCBkYXRhLW5hbWU9InBhdGgzMDU1IiBkPSJtNDYyLjQ4IDEwOS43MmE0LjMzIDQuMzMgMCAwIDAtMS42NSAwLjQybC0yMi41NSAxMC43N2E0LjI5IDQuMjkgMCAwIDAtMi4zMyAyLjlsLTUuNTYgMjQuMTlhNC4yMiA0LjIyIDAgMCAwIDAuNTkgMy4yOCAyLjYyIDIuNjIgMCAwIDAgMC4yNCAwLjM0bDE1LjYxIDE5LjM4YTQuMjkgNC4yOSAwIDAgMCAzLjM3IDEuNjFoMjVhNC4zNCA0LjM0IDAgMCAwIDMuMzctMS42bDE1LjYtMTkuNDFhNC4yMiA0LjIyIDAgMCAwIDAuODMtMy42bC01LjU3LTI0LjE5YTQuMjcgNC4yNyAwIDAgMC0yLjMzLTIuOWwtMjIuNTUtMTAuNzdhNC4zMSA0LjMxIDAgMCAwLTIuMDctMC40MnoiIGNsYXNzPSJjbHMtMTEiIGlkPSJwYXRoMzA1NS0xMSIvPiYjeGE7ICAgIDxwYXRoIGRhdGEtbmFtZT0icGF0aDMwNTQtMi05IiBkPSJtNDYyLjQ3IDEwOGE0LjU2IDQuNTYgMCAwIDAtMS43NCAwLjQ0bC0yMy44IDExLjM3YTQuNTMgNC41MyAwIDAgMC0yLjQ3IDMuMDZsLTUuODcgMjUuNTVhNC40OSA0LjQ5IDAgMCAwIDAuNjIgMy40NmwwLjI2IDAuMzYgMTYuNDcgMjAuNDhhNC41NyA0LjU3IDAgMCAwIDMuNTYgMS43aDI2LjQyYTQuNTYgNC41NiAwIDAgMCAzLjU2LTEuNjlsMTYuNDYtMjAuNDlhNC40NCA0LjQ0IDAgMCAwIDAuODgtMy44MWwtNS44OC0yNS41NWE0LjUgNC41IDAgMCAwLTIuNDYtMy4wNmwtMjMuOC0xMS4zN2E0LjU3IDQuNTcgMCAwIDAtMi4yMS0wLjQ1em0wIDEuNzVhNC4zMSA0LjMxIDAgMCAxIDIuMDkgMC40MmwyMi41NSAxMC43N2E0LjI3IDQuMjcgMCAwIDEgMi4zMyAyLjlsNS41NiAyNC4xNmE0LjIxIDQuMjEgMCAwIDEtMC44MyAzLjYybC0xNS41OCAxOS4zOGE0LjMxIDQuMzEgMCAwIDEtMy4zNyAxLjZoLTI1YTQuMzMgNC4zMyAwIDAgMS0zLjM4LTEuNjFsLTE1LjYtMTkuNGMtMC4wOS0wLjExLTAuMTctMC4yMi0wLjI1LTAuMzRhNC4yNiA0LjI2IDAgMCAxLTAuNTgtMy4yOGw1LjU2LTI0LjJhNC4yOSA0LjI5IDAgMCAxIDIuMzMtMi45bDIyLjU1LTEwLjc3YTQuMzMgNC4zMyAwIDAgMSAxLjY1LTAuNDJ6IiBjbGFzcz0iY2xzLTEzIiBpZD0icGF0aDMwNTQtMi05LTExIi8+JiN4YTsgICA8L2c+JiN4YTsgICA8ZyBkYXRhLW5hbWU9InRleHQyMDY2IiBjbGFzcz0iY2xzLTE0IiBpZD0idGV4dDIwNjYtMTEiPiYjeGE7ICAgIDx0ZXh0IHRyYW5zZm9ybT0idHJhbnNsYXRlKDQ0OS40NiwxNjcuMzIpIiBjbGFzcz0iY2xzLTE5IiBpZD0idGV4dDIxMyI+Yy1jLW08L3RleHQ+JiN4YTsgICA8L2c+JiN4YTsgICA8cGF0aCBkYXRhLW5hbWU9InBhdGgxOTg0IiBkPSJtNDYyLjY0IDEyMC4zOWMtMC41MyAwLTE1LjE3IDcuMTgtMTUuMzYgNy41NS0wLjQ2IDAuODgtMy43OSAxNi4yNS0zLjU5IDE2LjU4czIuNTEgMy4yMyA1LjMzIDYuNzZsNS4xMiA2LjRoMTYuODZsNS4zNi02LjcgNS4zNy02LjctMS44OC04LjIzYy0xLTQuNTMtMi04LjMxLTIuMDUtOC40LTAuMjctMC4yNS0xNC44OS03LjI2LTE1LjE3LTcuMjd6bTAuOSA3LjUyYzAuNyAwIDAuNzggMS4xMSAyLjI5IDEuMjIgMiAwLjE1IDEuNzctMS42OSAzLjI4LTAuNDFzLTAuMzMgMS4zOCAwLjE0IDMuMzEgMi4xNiAxLjE1IDEuNCAzLTEuNDEgMC4xLTMuMSAxLjE1LTAuNDMgMi40MS0yLjQxIDIuMjYtMC41NC0xLjMxLTIuMDUtMi42LTIuNDMgMC4zNC0yLjktMS41OSAxLjA4LTAuOTIgMS44My0yLjc1LTEuMDYtMi4yMSAwLjYzLTMuMjVhMi40NSAyLjQ1IDAgMCAxIDAuNTQtMC4yNyAwLjkyIDAuOTIgMCAwIDEgMC4zNS0wLjA2em0yIDIuMTdhMyAzIDAgMCAwLTAuODQgMC4xMiAyLjg4IDIuODggMCAxIDAgMC44NC0wLjEyem0tMTEuMzggNC45MmEyLjQ3IDIuNDcgMCAwIDEgMC41NiAwLjExYzEuODIgMC41NiAwIDEuNTEgMS4yNyAyLjkxczIuMzgtMC4zOCAyLjgxIDEuNDctMS4zMyAwLjczLTEuODkgMi41NiAxLjUzIDEuODcgMC4xMyAzLjE3LTEuMjktMC43OC0zLjE1LTAuMzUtMC44NiAyLjI1LTIuNjggMS42OSAwLTEuNTEtMS4yNy0yLjkxLTIuMzkgMC4zOC0yLjgyLTEuNDcgMS4zMy0wLjczIDEuODktMi41Ni0xLjUzLTEuODctMC4xMy0zLjE3IDEuMyAwLjc4IDMuMTUgMC4zNmMxLjYzLTAuMzggMS4wNy0xLjgyIDIuMTMtMS44MXptMTMuNTQgMmExLjgxIDEuODEgMCAwIDEgMC42NCAwLjE0YzIuMSAwLjgyLTAuNjYgMi4wOCAxIDMuNjNzMi43Ny0xLjI2IDMuNjcgMC44LTEuOTMgMS0xLjg4IDMuMjUgMi44NCAxLjA2IDIgMy4xNi0yLjA3LTAuNjctMy42MyAxIDEuMjYgMi43Ni0wLjggMy42Ny0xLTEuOTQtMy4yNS0xLjg5LTEuMDYgMi44NS0zLjE2IDIgMC42Ny0yLjA3LTEtMy42My0yLjc2IDEuMjctMy42Ny0wLjc5IDEuOTQtMSAxLjg5LTMuMjUtMi44NS0xLjA2LTItMy4xNiAyLjA3IDAuNjcgMy42My0xLTEuMjYtMi43NiAwLjgtMy42NyAxIDEuOTMgMy4yNCAxLjg4YzIgMCAxLjMxLTIuMTkgMi41Mi0yLjE3em0tMTQuNyAxYTIuODggMi44OCAwIDEgMCAyLjg3IDIuODggMi44OCAyLjg4IDAgMCAwLTIuODctMi44OHptMTIuMzUgMi43NmE0LjIzIDQuMjMgMCAxIDAgNC4yNCA0LjIzIDQuMjMgNC4yMyAwIDAgMC00LjI4LTQuMjV6IiBjbGFzcz0iY2xzLTEzIiBpZD0icGF0aDE5ODQtNSIvPiYjeGE7ICA8L2c+JiN4YTsgIDxnIGRhdGEtbmFtZT0ibGF5ZXIxIiB0cmFuc2Zvcm09InRyYW5zbGF0ZSgtMjIuMjMyIDUuMzM1NSkiIGlkPSJsYXllcjEtMTEtMyI+JiN4YTsgICA8ZyBkYXRhLW5hbWU9Imc3MCIgaWQ9Imc3MC0xMS0yIj4mI3hhOyAgICA8cGF0aCBkYXRhLW5hbWU9InBhdGgzMDU1IiBkPSJtNDYyLjQ4IDEwOS43MmE0LjMzIDQuMzMgMCAwIDAtMS42NSAwLjQybC0yMi41NSAxMC43N2E0LjI5IDQuMjkgMCAwIDAtMi4zMyAyLjlsLTUuNTYgMjQuMTlhNC4yMiA0LjIyIDAgMCAwIDAuNTkgMy4yOCAyLjYyIDIuNjIgMCAwIDAgMC4yNCAwLjM0bDE1LjYxIDE5LjM4YTQuMjkgNC4yOSAwIDAgMCAzLjM3IDEuNjFoMjVhNC4zNCA0LjM0IDAgMCAwIDMuMzctMS42bDE1LjYtMTkuNDFhNC4yMiA0LjIyIDAgMCAwIDAuODMtMy42bC01LjU3LTI0LjE5YTQuMjcgNC4yNyAwIDAgMC0yLjMzLTIuOWwtMjIuNTUtMTAuNzdhNC4zMSA0LjMxIDAgMCAwLTIuMDctMC40MnoiIGNsYXNzPSJjbHMtMTEiIGlkPSJwYXRoMzA1NS0xMS0wIi8+JiN4YTsgICAgPHBhdGggZGF0YS1uYW1lPSJwYXRoMzA1NC0yLTkiIGQ9Im00NjIuNDcgMTA4YTQuNTYgNC41NiAwIDAgMC0xLjc0IDAuNDRsLTIzLjggMTEuMzdhNC41MyA0LjUzIDAgMCAwLTIuNDcgMy4wNmwtNS44NyAyNS41NWE0LjQ5IDQuNDkgMCAwIDAgMC42MiAzLjQ2bDAuMjYgMC4zNiAxNi40NyAyMC40OGE0LjU3IDQuNTcgMCAwIDAgMy41NiAxLjdoMjYuNDJhNC41NiA0LjU2IDAgMCAwIDMuNTYtMS42OWwxNi40Ni0yMC40OWE0LjQ0IDQuNDQgMCAwIDAgMC44OC0zLjgxbC01Ljg4LTI1LjU1YTQuNSA0LjUgMCAwIDAtMi40Ni0zLjA2bC0yMy44LTExLjM3YTQuNTcgNC41NyAwIDAgMC0yLjIxLTAuNDV6bTAgMS43NWE0LjMxIDQuMzEgMCAwIDEgMi4wOSAwLjQybDIyLjU1IDEwLjc3YTQuMjcgNC4yNyAwIDAgMSAyLjMzIDIuOWw1LjU2IDI0LjE2YTQuMjEgNC4yMSAwIDAgMS0wLjgzIDMuNjJsLTE1LjU4IDE5LjM4YTQuMzEgNC4zMSAwIDAgMS0zLjM3IDEuNmgtMjVhNC4zMyA0LjMzIDAgMCAxLTMuMzgtMS42MWwtMTUuNi0xOS40Yy0wLjA5LTAuMTEtMC4xNy0wLjIyLTAuMjUtMC4zNGE0LjI2IDQuMjYgMCAwIDEtMC41OC0zLjI4bDUuNTYtMjQuMmE0LjI5IDQuMjkgMCAwIDEgMi4zMy0yLjlsMjIuNTUtMTAuNzdhNC4zMyA0LjMzIDAgMCAxIDEuNjUtMC40MnoiIGNsYXNzPSJjbHMtMTMiIGlkPSJwYXRoMzA1NC0yLTktMTEtNyIvPiYjeGE7ICAgPC9nPiYjeGE7ICAgPGcgZGF0YS1uYW1lPSJ0ZXh0MjA2NiIgY2xhc3M9ImNscy0xNCIgaWQ9InRleHQyMDY2LTExLTQiPiYjeGE7ICAgIDx0ZXh0IHRyYW5zZm9ybT0idHJhbnNsYXRlKDQ0OS40NiwxNjcuMzIpIiBjbGFzcz0iY2xzLTE5IiBpZD0idGV4dDIxMy03Ij5jLWMtbTwvdGV4dD4mI3hhOyAgIDwvZz4mI3hhOyAgIDxwYXRoIGRhdGEtbmFtZT0icGF0aDE5ODQiIGQ9Im00NjIuNjQgMTIwLjM5Yy0wLjUzIDAtMTUuMTcgNy4xOC0xNS4zNiA3LjU1LTAuNDYgMC44OC0zLjc5IDE2LjI1LTMuNTkgMTYuNThzMi41MSAzLjIzIDUuMzMgNi43Nmw1LjEyIDYuNGgxNi44Nmw1LjM2LTYuNyA1LjM3LTYuNy0xLjg4LTguMjNjLTEtNC41My0yLTguMzEtMi4wNS04LjQtMC4yNy0wLjI1LTE0Ljg5LTcuMjYtMTUuMTctNy4yN3ptMC45IDcuNTJjMC43IDAgMC43OCAxLjExIDIuMjkgMS4yMiAyIDAuMTUgMS43Ny0xLjY5IDMuMjgtMC40MXMtMC4zMyAxLjM4IDAuMTQgMy4zMSAyLjE2IDEuMTUgMS40IDMtMS40MSAwLjEtMy4xIDEuMTUtMC40MyAyLjQxLTIuNDEgMi4yNi0wLjU0LTEuMzEtMi4wNS0yLjYtMi40MyAwLjM0LTIuOS0xLjU5IDEuMDgtMC45MiAxLjgzLTIuNzUtMS4wNi0yLjIxIDAuNjMtMy4yNWEyLjQ1IDIuNDUgMCAwIDEgMC41NC0wLjI3IDAuOTIgMC45MiAwIDAgMSAwLjM1LTAuMDZ6bTIgMi4xN2EzIDMgMCAwIDAtMC44NCAwLjEyIDIuODggMi44OCAwIDEgMCAwLjg0LTAuMTJ6bS0xMS4zOCA0LjkyYTIuNDcgMi40NyAwIDAgMSAwLjU2IDAuMTFjMS44MiAwLjU2IDAgMS41MSAxLjI3IDIuOTFzMi4zOC0wLjM4IDIuODEgMS40Ny0xLjMzIDAuNzMtMS44OSAyLjU2IDEuNTMgMS44NyAwLjEzIDMuMTctMS4yOS0wLjc4LTMuMTUtMC4zNS0wLjg2IDIuMjUtMi42OCAxLjY5IDAtMS41MS0xLjI3LTIuOTEtMi4zOSAwLjM4LTIuODItMS40NyAxLjMzLTAuNzMgMS44OS0yLjU2LTEuNTMtMS44Ny0wLjEzLTMuMTcgMS4zIDAuNzggMy4xNSAwLjM2YzEuNjMtMC4zOCAxLjA3LTEuODIgMi4xMy0xLjgxem0xMy41NCAyYTEuODEgMS44MSAwIDAgMSAwLjY0IDAuMTRjMi4xIDAuODItMC42NiAyLjA4IDEgMy42M3MyLjc3LTEuMjYgMy42NyAwLjgtMS45MyAxLTEuODggMy4yNSAyLjg0IDEuMDYgMiAzLjE2LTIuMDctMC42Ny0zLjYzIDEgMS4yNiAyLjc2LTAuOCAzLjY3LTEtMS45NC0zLjI1LTEuODktMS4wNiAyLjg1LTMuMTYgMiAwLjY3LTIuMDctMS0zLjYzLTIuNzYgMS4yNy0zLjY3LTAuNzkgMS45NC0xIDEuODktMy4yNS0yLjg1LTEuMDYtMi0zLjE2IDIuMDcgMC42NyAzLjYzLTEtMS4yNi0yLjc2IDAuOC0zLjY3IDEgMS45MyAzLjI0IDEuODhjMiAwIDEuMzEtMi4xOSAyLjUyLTIuMTd6bS0xNC43IDFhMi44OCAyLjg4IDAgMSAwIDIuODcgMi44OCAyLjg4IDIuODggMCAwIDAtMi44Ny0yLjg4em0xMi4zNSAyLjc2YTQuMjMgNC4yMyAwIDEgMCA0LjI0IDQuMjMgNC4yMyA0LjIzIDAgMCAwLTQuMjgtNC4yNXoiIGNsYXNzPSJjbHMtMTMiIGlkPSJwYXRoMTk4NC01LTYiLz4mI3hhOyAgPC9nPiYjeGE7ICA8ZyBkYXRhLW5hbWU9ImxheWVyMSIgdHJhbnNmb3JtPSJ0cmFuc2xhdGUoLTEzLjEzNiAxMy41MTUpIiBpZD0ibGF5ZXIxLTExLTgiPiYjeGE7ICAgPGcgZGF0YS1uYW1lPSJnNzAiIGlkPSJnNzAtMTEtMSI+JiN4YTsgICAgPHBhdGggZGF0YS1uYW1lPSJwYXRoMzA1NSIgZD0ibTQ2Mi40OCAxMDkuNzJhNC4zMyA0LjMzIDAgMCAwLTEuNjUgMC40MmwtMjIuNTUgMTAuNzdhNC4yOSA0LjI5IDAgMCAwLTIuMzMgMi45bC01LjU2IDI0LjE5YTQuMjIgNC4yMiAwIDAgMCAwLjU5IDMuMjggMi42MiAyLjYyIDAgMCAwIDAuMjQgMC4zNGwxNS42MSAxOS4zOGE0LjI5IDQuMjkgMCAwIDAgMy4zNyAxLjYxaDI1YTQuMzQgNC4zNCAwIDAgMCAzLjM3LTEuNmwxNS42LTE5LjQxYTQuMjIgNC4yMiAwIDAgMCAwLjgzLTMuNmwtNS41Ny0yNC4xOWE0LjI3IDQuMjcgMCAwIDAtMi4zMy0yLjlsLTIyLjU1LTEwLjc3YTQuMzEgNC4zMSAwIDAgMC0yLjA3LTAuNDJ6IiBjbGFzcz0iY2xzLTExIiBpZD0icGF0aDMwNTUtMTEtOCIvPiYjeGE7ICAgIDxwYXRoIGRhdGEtbmFtZT0icGF0aDMwNTQtMi05IiBkPSJtNDYyLjQ3IDEwOGE0LjU2IDQuNTYgMCAwIDAtMS43NCAwLjQ0bC0yMy44IDExLjM3YTQuNTMgNC41MyAwIDAgMC0yLjQ3IDMuMDZsLTUuODcgMjUuNTVhNC40OSA0LjQ5IDAgMCAwIDAuNjIgMy40NmwwLjI2IDAuMzYgMTYuNDcgMjAuNDhhNC41NyA0LjU3IDAgMCAwIDMuNTYgMS43aDI2LjQyYTQuNTYgNC41NiAwIDAgMCAzLjU2LTEuNjlsMTYuNDYtMjAuNDlhNC40NCA0LjQ0IDAgMCAwIDAuODgtMy44MWwtNS44OC0yNS41NWE0LjUgNC41IDAgMCAwLTIuNDYtMy4wNmwtMjMuOC0xMS4zN2E0LjU3IDQuNTcgMCAwIDAtMi4yMS0wLjQ1em0wIDEuNzVhNC4zMSA0LjMxIDAgMCAxIDIuMDkgMC40MmwyMi41NSAxMC43N2E0LjI3IDQuMjcgMCAwIDEgMi4zMyAyLjlsNS41NiAyNC4xNmE0LjIxIDQuMjEgMCAwIDEtMC44MyAzLjYybC0xNS41OCAxOS4zOGE0LjMxIDQuMzEgMCAwIDEtMy4zNyAxLjZoLTI1YTQuMzMgNC4zMyAwIDAgMS0zLjM4LTEuNjFsLTE1LjYtMTkuNGMtMC4wOS0wLjExLTAuMTctMC4yMi0wLjI1LTAuMzRhNC4yNiA0LjI2IDAgMCAxLTAuNTgtMy4yOGw1LjU2LTI0LjJhNC4yOSA0LjI5IDAgMCAxIDIuMzMtMi45bDIyLjU1LTEwLjc3YTQuMzMgNC4zMyAwIDAgMSAxLjY1LTAuNDJ6IiBjbGFzcz0iY2xzLTEzIiBpZD0icGF0aDMwNTQtMi05LTExLTkiLz4mI3hhOyAgIDwvZz4mI3hhOyAgIDxnIGRhdGEtbmFtZT0idGV4dDIwNjYiIGNsYXNzPSJjbHMtMTQiIGlkPSJ0ZXh0MjA2Ni0xMS0zIj4mI3hhOyAgICA8dGV4dCB0cmFuc2Zvcm09InRyYW5zbGF0ZSg0NDkuNDYsMTY3LjMyKSIgY2xhc3M9ImNscy0xOSIgaWQ9InRleHQyMTMtNzIiPmMtYy1tPC90ZXh0PiYjeGE7ICAgPC9nPiYjeGE7ICAgPHBhdGggZGF0YS1uYW1lPSJwYXRoMTk4NCIgZD0ibTQ2Mi42NCAxMjAuMzljLTAuNTMgMC0xNS4xNyA3LjE4LTE1LjM2IDcuNTUtMC40NiAwLjg4LTMuNzkgMTYuMjUtMy41OSAxNi41OHMyLjUxIDMuMjMgNS4zMyA2Ljc2bDUuMTIgNi40aDE2Ljg2bDUuMzYtNi43IDUuMzctNi43LTEuODgtOC4yM2MtMS00LjUzLTItOC4zMS0yLjA1LTguNC0wLjI3LTAuMjUtMTQuODktNy4yNi0xNS4xNy03LjI3em0wLjkgNy41MmMwLjcgMCAwLjc4IDEuMTEgMi4yOSAxLjIyIDIgMC4xNSAxLjc3LTEuNjkgMy4yOC0wLjQxcy0wLjMzIDEuMzggMC4xNCAzLjMxIDIuMTYgMS4xNSAxLjQgMy0xLjQxIDAuMS0zLjEgMS4xNS0wLjQzIDIuNDEtMi40MSAyLjI2LTAuNTQtMS4zMS0yLjA1LTIuNi0yLjQzIDAuMzQtMi45LTEuNTkgMS4wOC0wLjkyIDEuODMtMi43NS0xLjA2LTIuMjEgMC42My0zLjI1YTIuNDUgMi40NSAwIDAgMSAwLjU0LTAuMjcgMC45MiAwLjkyIDAgMCAxIDAuMzUtMC4wNnptMiAyLjE3YTMgMyAwIDAgMC0wLjg0IDAuMTIgMi44OCAyLjg4IDAgMSAwIDAuODQtMC4xMnptLTExLjM4IDQuOTJhMi40NyAyLjQ3IDAgMCAxIDAuNTYgMC4xMWMxLjgyIDAuNTYgMCAxLjUxIDEuMjcgMi45MXMyLjM4LTAuMzggMi44MSAxLjQ3LTEuMzMgMC43My0xLjg5IDIuNTYgMS41MyAxLjg3IDAuMTMgMy4xNy0xLjI5LTAuNzgtMy4xNS0wLjM1LTAuODYgMi4yNS0yLjY4IDEuNjkgMC0xLjUxLTEuMjctMi45MS0yLjM5IDAuMzgtMi44Mi0xLjQ3IDEuMzMtMC43MyAxLjg5LTIuNTYtMS41My0xLjg3LTAuMTMtMy4xNyAxLjMgMC43OCAzLjE1IDAuMzZjMS42My0wLjM4IDEuMDctMS44MiAyLjEzLTEuODF6bTEzLjU0IDJhMS44MSAxLjgxIDAgMCAxIDAuNjQgMC4xNGMyLjEgMC44Mi0wLjY2IDIuMDggMSAzLjYzczIuNzctMS4yNiAzLjY3IDAuOC0xLjkzIDEtMS44OCAzLjI1IDIuODQgMS4wNiAyIDMuMTYtMi4wNy0wLjY3LTMuNjMgMSAxLjI2IDIuNzYtMC44IDMuNjctMS0xLjk0LTMuMjUtMS44OS0xLjA2IDIuODUtMy4xNiAyIDAuNjctMi4wNy0xLTMuNjMtMi43NiAxLjI3LTMuNjctMC43OSAxLjk0LTEgMS44OS0zLjI1LTIuODUtMS4wNi0yLTMuMTYgMi4wNyAwLjY3IDMuNjMtMS0xLjI2LTIuNzYgMC44LTMuNjcgMSAxLjkzIDMuMjQgMS44OGMyIDAgMS4zMS0yLjE5IDIuNTItMi4xN3ptLTE0LjcgMWEyLjg4IDIuODggMCAxIDAgMi44NyAyLjg4IDIuODggMi44OCAwIDAgMC0yLjg3LTIuODh6bTEyLjM1IDIuNzZhNC4yMyA0LjIzIDAgMSAwIDQuMjQgNC4yMyA0LjIzIDQuMjMgMCAwIDAtNC4yOC00LjI1eiIgY2xhc3M9ImNscy0xMyIgaWQ9InBhdGgxOTg0LTUtNyIvPiYjeGE7ICA8L2c+JiN4YTsgPC9nPiYjeGE7IDxnIHRyYW5zZm9ybT0idHJhbnNsYXRlKC0xMjMuODIgLTQwLjk5NykiIGlkPSJnMjA0MiI+JiN4YTsgIDxwYXRoIGQ9Im0yMDguNyAxMDYuMTVoNzB2NzAuMTRoLTcweiIgY2xhc3M9ImNscy00IiBpZD0icGF0aDgyIi8+JiN4YTsgIDxnIGRhdGEtbmFtZT0ibGF5ZXIxIiB0cmFuc2Zvcm09InRyYW5zbGF0ZSgtNDUuNTc1IC00LjkxKSIgaWQ9ImxheWVyMS0xMiI+JiN4YTsgICA8ZyBkYXRhLW5hbWU9Imc3MCIgaWQ9Imc3MC0xMiI+JiN4YTsgICAgPHBhdGggZGF0YS1uYW1lPSJwYXRoMzA1NSIgZD0ibTI3NS4yNCAxMDguNWE0LjMzIDQuMzMgMCAwIDAtMS42MiAwLjM5bC0yMi4xOCAxMC4xMWE0IDQgMCAwIDAtMi4yOSAyLjcybC01LjQ3IDIyLjcyYTMuODMgMy44MyAwIDAgMCAwLjU3IDMuMDhsMC4yNCAwLjMyIDE1LjM1IDE4LjIyYTQuMzcgNC4zNyAwIDAgMCAzLjMyIDEuNTFoMjQuNjJhNC4zIDQuMyAwIDAgMCAzLjMxLTEuNTFsMTUuMzUtMTguMjFhMy45IDMuOSAwIDAgMCAwLjgyLTMuNGwtNS40OC0yMi43MmE0LjA4IDQuMDggMCAwIDAtMi4zLTIuNzJsLTIyLjE4LTEwLjEyYTQuNDEgNC40MSAwIDAgMC0yLjA2LTAuMzl6IiBjbGFzcz0iY2xzLTExIiBpZD0icGF0aDMwNTUtMTIiLz4mI3hhOyAgICA8cGF0aCBkYXRhLW5hbWU9InBhdGgzMDU0LTItOSIgZD0ibTI3NS4yMyAxMDYuODVhNC42MiA0LjYyIDAgMCAwLTEuNzEgMC40MmwtMjMuNDEgMTAuNjdhNC4zMiA0LjMyIDAgMCAwLTIuNDMgMi44OGwtNS43NyAyNGE0IDQgMCAwIDAgMC42MSAzLjI1YzAuMDggMC4xMiAwLjE2IDAuMjMgMC4yNSAwLjM0bDE2LjIzIDE5LjIxYTQuNjEgNC42MSAwIDAgMCAzLjUxIDEuNTloMjZhNC41OCA0LjU4IDAgMCAwIDMuNS0xLjZsMTYuMi0xOS4yM2E0IDQgMCAwIDAgMC44Ni0zLjU4bC01Ljc4LTI0YTQuMjYgNC4yNiAwIDAgMC0yLjQyLTIuODdsLTIzLjQxLTEwLjY4YTQuNzkgNC43OSAwIDAgMC0yLjIzLTAuNHptMCAxLjY1YTQuNDEgNC40MSAwIDAgMSAyLjA2IDAuMzlsMjIuMTkgMTAuMTFhNC4wOCA0LjA4IDAgMCAxIDIuMyAyLjcybDUuNDggMjIuNzJhMy45IDMuOSAwIDAgMS0wLjgyIDMuNGwtMTUuMzUgMTguMjFhNC4zIDQuMyAwIDAgMS0zLjMxIDEuNTFoLTI0LjYyYTQuMzcgNC4zNyAwIDAgMS0zLjMyLTEuNTFsLTE1LjM1LTE4LjIyLTAuMjQtMC4zMmEzLjgzIDMuODMgMCAwIDEtMC41Ny0zLjA4bDUuNDctMjIuNzFhNCA0IDAgMCAxIDIuMjktMi43M2wyMi4xOC0xMC4xMWE0LjMzIDQuMzMgMCAwIDEgMS42Mi0wLjM5eiIgY2xhc3M9ImNscy0xMyIgaWQ9InBhdGgzMDU0LTItOS0xMiIvPiYjeGE7ICAgPC9nPiYjeGE7ICAgPGcgZGF0YS1uYW1lPSJ0ZXh0MjA2NiIgY2xhc3M9ImNscy0xNCIgaWQ9InRleHQyMDY2LTEyIj4mI3hhOyAgICA8dGV4dCB0cmFuc2Zvcm09Im1hdHJpeCgxLjA1LDAsMCwxLDI2Ni44MywxNjIuNTcpIiBjbGFzcz0iY2xzLTIwIiBpZD0idGV4dDIyMSI+Yy1tPC90ZXh0PiYjeGE7ICAgPC9nPiYjeGE7ICAgPHBhdGggZGF0YS1uYW1lPSJwYXRoMTk4NCIgZD0ibTI3NS40IDExOC41MWMtMC41MiAwLTE0LjkyIDYuNzQtMTUuMTEgNy4wOS0wLjQ1IDAuODMtMy43MyAxNS4yNS0zLjUzIDE1LjU3czIuNDcgMyA1LjI0IDYuMzRsNSA2aDE2LjU5bDUuMjgtNi4yOSA1LjI3LTYuMjktMS44NC03LjczYy0xLTQuMjUtMS45My03LjgtMi03Ljg4LTAuMjYtMC4yNC0xNC42NC02LjgyLTE0LjkyLTYuODN6bTAuODggNy4wNmMwLjcgMCAwLjc3IDEgMi4yNiAxLjE1IDEuOTUgMC4xNCAxLjc0LTEuNTkgMy4yMy0wLjM5cy0wLjMzIDEuMyAwLjEzIDMuMTEgMi4xMiAxLjA4IDEuMzggMi44MS0xLjM5IDAuMS0zIDEuMDgtMC40MyAyLjI2LTIuMzcgMi4xMi0wLjUzLTEuMjMtMi0yLjQ0LTIuMzkgMC4zMS0yLjg1LTEuNSAxLjA2LTAuODYgMS44MS0yLjU4LTEuMDUtMi4wNyAwLjYxLTMuMDVhMi43MSAyLjcxIDAgMCAxIDAuNTMtMC4yNSAxLjE2IDEuMTYgMCAwIDEgMC4zNC0wLjA2em0yIDJhMi45NCAyLjk0IDAgMCAwLTAuODQgMC4xMiAyLjY4IDIuNjggMCAwIDAtMS44OSAzLjM2IDIuODUgMi44NSAwIDAgMCAzLjUyIDEuOCAyLjY3IDIuNjcgMCAwIDAgMS44OS0zLjM2IDIuOCAyLjggMCAwIDAtMi43My0xLjg4em0tMTEuMTggNC42NGEyIDIgMCAwIDEgMC41NiAwLjFjMS43OSAwLjUyIDAgMS40MiAxLjI1IDIuNzNzMi4zNC0wLjM2IDIuNzYgMS4zOS0xLjMgMC42OC0xLjg1IDIuMzkgMS41IDEuNzYgMC4xMiAzLTEuMjctMC43My0zLjEtMC4zMy0wLjg1IDIuMTItMi42NCAxLjU5IDAtMS40Mi0xLjI1LTIuNzMtMi4zNCAwLjM2LTIuNzYtMS4zOCAxLjMtMC42OSAxLjg1LTIuNC0xLjUtMS43Ni0wLjEzLTMgMS4yOCAwLjc0IDMuMTEgMC4zM2MxLjYtMC4zNSAxLTEuNyAyLjA4LTEuNjl6bTEzLjMyIDEuODdhMi4wNiAyLjA2IDAgMCAxIDAuNjQgMC4xNGMyLjA2IDAuNzctMC42NiAyIDAuOTUgMy40MXMyLjcxLTEuMTkgMy42MSAwLjc1LTEuOTEgMC45My0xLjg2IDMuMDUgMi44IDEgMiAzLTItMC42Mi0zLjU3IDAuOTEgMS4yNCAyLjU5LTAuNzkgMy40NC0xLTEuODItMy4xOS0xLjc3LTEgMi42Ny0zLjExIDEuOSAwLjY1LTEuOTQtMC45NS0zLjQtMi43MSAxLjE4LTMuNjEtMC43NSAxLjkxLTAuOTQgMS44Ni0zLTIuOC0xLTItMyAyIDAuNjMgMy41Ny0wLjktMS4yNC0yLjU5IDAuNzktMy40NCAxIDEuODEgMy4xOSAxLjc3YzEuOTQgMCAxLjI4LTIuMDYgMi40Ny0yem0tMTQuNDkgMC45MWEyLjcgMi43IDAgMSAwIDIuODMgMi43IDIuNzcgMi43NyAwIDAgMC0yLjg4LTIuNjl6bTEyLjA3IDIuNjJhNCA0IDAgMSAwIDQuMTYgNCA0LjA3IDQuMDcgMCAwIDAtNC4xNi00eiIgY2xhc3M9ImNscy0xMyIgaWQ9InBhdGgxOTg0LTYiLz4mI3hhOyAgPC9nPiYjeGE7ICA8ZyBkYXRhLW5hbWU9ImxheWVyMSIgdHJhbnNmb3JtPSJ0cmFuc2xhdGUoLTM3LjMzIDUuNzQpIiBpZD0ibGF5ZXIxLTEyLTMiPiYjeGE7ICAgPGcgZGF0YS1uYW1lPSJnNzAiIGlkPSJnNzAtMTItNCI+JiN4YTsgICAgPHBhdGggZGF0YS1uYW1lPSJwYXRoMzA1NSIgZD0ibTI3NS4yNCAxMDguNWE0LjMzIDQuMzMgMCAwIDAtMS42MiAwLjM5bC0yMi4xOCAxMC4xMWE0IDQgMCAwIDAtMi4yOSAyLjcybC01LjQ3IDIyLjcyYTMuODMgMy44MyAwIDAgMCAwLjU3IDMuMDhsMC4yNCAwLjMyIDE1LjM1IDE4LjIyYTQuMzcgNC4zNyAwIDAgMCAzLjMyIDEuNTFoMjQuNjJhNC4zIDQuMyAwIDAgMCAzLjMxLTEuNTFsMTUuMzUtMTguMjFhMy45IDMuOSAwIDAgMCAwLjgyLTMuNGwtNS40OC0yMi43MmE0LjA4IDQuMDggMCAwIDAtMi4zLTIuNzJsLTIyLjE4LTEwLjEyYTQuNDEgNC40MSAwIDAgMC0yLjA2LTAuMzl6IiBjbGFzcz0iY2xzLTExIiBpZD0icGF0aDMwNTUtMTItMCIvPiYjeGE7ICAgIDxwYXRoIGRhdGEtbmFtZT0icGF0aDMwNTQtMi05IiBkPSJtMjc1LjIzIDEwNi44NWE0LjYyIDQuNjIgMCAwIDAtMS43MSAwLjQybC0yMy40MSAxMC42N2E0LjMyIDQuMzIgMCAwIDAtMi40MyAyLjg4bC01Ljc3IDI0YTQgNCAwIDAgMCAwLjYxIDMuMjVjMC4wOCAwLjEyIDAuMTYgMC4yMyAwLjI1IDAuMzRsMTYuMjMgMTkuMjFhNC42MSA0LjYxIDAgMCAwIDMuNTEgMS41OWgyNmE0LjU4IDQuNTggMCAwIDAgMy41LTEuNmwxNi4yLTE5LjIzYTQgNCAwIDAgMCAwLjg2LTMuNThsLTUuNzgtMjRhNC4yNiA0LjI2IDAgMCAwLTIuNDItMi44N2wtMjMuNDEtMTAuNjhhNC43OSA0Ljc5IDAgMCAwLTIuMjMtMC40em0wIDEuNjVhNC40MSA0LjQxIDAgMCAxIDIuMDYgMC4zOWwyMi4xOSAxMC4xMWE0LjA4IDQuMDggMCAwIDEgMi4zIDIuNzJsNS40OCAyMi43MmEzLjkgMy45IDAgMCAxLTAuODIgMy40bC0xNS4zNSAxOC4yMWE0LjMgNC4zIDAgMCAxLTMuMzEgMS41MWgtMjQuNjJhNC4zNyA0LjM3IDAgMCAxLTMuMzItMS41MWwtMTUuMzUtMTguMjItMC4yNC0wLjMyYTMuODMgMy44MyAwIDAgMS0wLjU3LTMuMDhsNS40Ny0yMi43MWE0IDQgMCAwIDEgMi4yOS0yLjczbDIyLjE4LTEwLjExYTQuMzMgNC4zMyAwIDAgMSAxLjYyLTAuMzl6IiBjbGFzcz0iY2xzLTEzIiBpZD0icGF0aDMwNTQtMi05LTEyLTkiLz4mI3hhOyAgIDwvZz4mI3hhOyAgIDxnIGRhdGEtbmFtZT0idGV4dDIwNjYiIGNsYXNzPSJjbHMtMTQiIGlkPSJ0ZXh0MjA2Ni0xMi02Ij4mI3hhOyAgICA8dGV4dCB0cmFuc2Zvcm09Im1hdHJpeCgxLjA1LDAsMCwxLDI2Ni44MywxNjIuNTcpIiBjbGFzcz0iY2xzLTIwIiBpZD0idGV4dDIyMS04Ij5jLW08L3RleHQ+JiN4YTsgICA8L2c+JiN4YTsgICA8cGF0aCBkYXRhLW5hbWU9InBhdGgxOTg0IiBkPSJtMjc1LjQgMTE4LjUxYy0wLjUyIDAtMTQuOTIgNi43NC0xNS4xMSA3LjA5LTAuNDUgMC44My0zLjczIDE1LjI1LTMuNTMgMTUuNTdzMi40NyAzIDUuMjQgNi4zNGw1IDZoMTYuNTlsNS4yOC02LjI5IDUuMjctNi4yOS0xLjg0LTcuNzNjLTEtNC4yNS0xLjkzLTcuOC0yLTcuODgtMC4yNi0wLjI0LTE0LjY0LTYuODItMTQuOTItNi44M3ptMC44OCA3LjA2YzAuNyAwIDAuNzcgMSAyLjI2IDEuMTUgMS45NSAwLjE0IDEuNzQtMS41OSAzLjIzLTAuMzlzLTAuMzMgMS4zIDAuMTMgMy4xMSAyLjEyIDEuMDggMS4zOCAyLjgxLTEuMzkgMC4xLTMgMS4wOC0wLjQzIDIuMjYtMi4zNyAyLjEyLTAuNTMtMS4yMy0yLTIuNDQtMi4zOSAwLjMxLTIuODUtMS41IDEuMDYtMC44NiAxLjgxLTIuNTgtMS4wNS0yLjA3IDAuNjEtMy4wNWEyLjcxIDIuNzEgMCAwIDEgMC41My0wLjI1IDEuMTYgMS4xNiAwIDAgMSAwLjM0LTAuMDZ6bTIgMmEyLjk0IDIuOTQgMCAwIDAtMC44NCAwLjEyIDIuNjggMi42OCAwIDAgMC0xLjg5IDMuMzYgMi44NSAyLjg1IDAgMCAwIDMuNTIgMS44IDIuNjcgMi42NyAwIDAgMCAxLjg5LTMuMzYgMi44IDIuOCAwIDAgMC0yLjczLTEuODh6bS0xMS4xOCA0LjY0YTIgMiAwIDAgMSAwLjU2IDAuMWMxLjc5IDAuNTIgMCAxLjQyIDEuMjUgMi43M3MyLjM0LTAuMzYgMi43NiAxLjM5LTEuMyAwLjY4LTEuODUgMi4zOSAxLjUgMS43NiAwLjEyIDMtMS4yNy0wLjczLTMuMS0wLjMzLTAuODUgMi4xMi0yLjY0IDEuNTkgMC0xLjQyLTEuMjUtMi43My0yLjM0IDAuMzYtMi43Ni0xLjM4IDEuMy0wLjY5IDEuODUtMi40LTEuNS0xLjc2LTAuMTMtMyAxLjI4IDAuNzQgMy4xMSAwLjMzYzEuNi0wLjM1IDEtMS43IDIuMDgtMS42OXptMTMuMzIgMS44N2EyLjA2IDIuMDYgMCAwIDEgMC42NCAwLjE0YzIuMDYgMC43Ny0wLjY2IDIgMC45NSAzLjQxczIuNzEtMS4xOSAzLjYxIDAuNzUtMS45MSAwLjkzLTEuODYgMy4wNSAyLjggMSAyIDMtMi0wLjYyLTMuNTcgMC45MSAxLjI0IDIuNTktMC43OSAzLjQ0LTEtMS44Mi0zLjE5LTEuNzctMSAyLjY3LTMuMTEgMS45IDAuNjUtMS45NC0wLjk1LTMuNC0yLjcxIDEuMTgtMy42MS0wLjc1IDEuOTEtMC45NCAxLjg2LTMtMi44LTEtMi0zIDIgMC42MyAzLjU3LTAuOS0xLjI0LTIuNTkgMC43OS0zLjQ0IDEgMS44MSAzLjE5IDEuNzdjMS45NCAwIDEuMjgtMi4wNiAyLjQ3LTJ6bS0xNC40OSAwLjkxYTIuNyAyLjcgMCAxIDAgMi44MyAyLjcgMi43NyAyLjc3IDAgMCAwLTIuODgtMi42OXptMTIuMDcgMi42MmE0IDQgMCAxIDAgNC4xNiA0IDQuMDcgNC4wNyAwIDAgMC00LjE2LTR6IiBjbGFzcz0iY2xzLTEzIiBpZD0icGF0aDE5ODQtNi0yIi8+JiN4YTsgIDwvZz4mI3hhOyAgPGcgZGF0YS1uYW1lPSJsYXllcjEiIHRyYW5zZm9ybT0idHJhbnNsYXRlKC0yOS4wODUgMTYuMzkpIiBpZD0ibGF5ZXIxLTEyLTYiPiYjeGE7ICAgPGcgZGF0YS1uYW1lPSJnNzAiIGlkPSJnNzAtMTItNDIiPiYjeGE7ICAgIDxwYXRoIGRhdGEtbmFtZT0icGF0aDMwNTUiIGQ9Im0yNzUuMjQgMTA4LjVhNC4zMyA0LjMzIDAgMCAwLTEuNjIgMC4zOWwtMjIuMTggMTAuMTFhNCA0IDAgMCAwLTIuMjkgMi43MmwtNS40NyAyMi43MmEzLjgzIDMuODMgMCAwIDAgMC41NyAzLjA4bDAuMjQgMC4zMiAxNS4zNSAxOC4yMmE0LjM3IDQuMzcgMCAwIDAgMy4zMiAxLjUxaDI0LjYyYTQuMyA0LjMgMCAwIDAgMy4zMS0xLjUxbDE1LjM1LTE4LjIxYTMuOSAzLjkgMCAwIDAgMC44Mi0zLjRsLTUuNDgtMjIuNzJhNC4wOCA0LjA4IDAgMCAwLTIuMy0yLjcybC0yMi4xOC0xMC4xMmE0LjQxIDQuNDEgMCAwIDAtMi4wNi0wLjM5eiIgY2xhc3M9ImNscy0xMSIgaWQ9InBhdGgzMDU1LTEyLTMiLz4mI3hhOyAgICA8cGF0aCBkYXRhLW5hbWU9InBhdGgzMDU0LTItOSIgZD0ibTI3NS4yMyAxMDYuODVhNC42MiA0LjYyIDAgMCAwLTEuNzEgMC40MmwtMjMuNDEgMTAuNjdhNC4zMiA0LjMyIDAgMCAwLTIuNDMgMi44OGwtNS43NyAyNGE0IDQgMCAwIDAgMC42MSAzLjI1YzAuMDggMC4xMiAwLjE2IDAuMjMgMC4yNSAwLjM0bDE2LjIzIDE5LjIxYTQuNjEgNC42MSAwIDAgMCAzLjUxIDEuNTloMjZhNC41OCA0LjU4IDAgMCAwIDMuNS0xLjZsMTYuMi0xOS4yM2E0IDQgMCAwIDAgMC44Ni0zLjU4bC01Ljc4LTI0YTQuMjYgNC4yNiAwIDAgMC0yLjQyLTIuODdsLTIzLjQxLTEwLjY4YTQuNzkgNC43OSAwIDAgMC0yLjIzLTAuNHptMCAxLjY1YTQuNDEgNC40MSAwIDAgMSAyLjA2IDAuMzlsMjIuMTkgMTAuMTFhNC4wOCA0LjA4IDAgMCAxIDIuMyAyLjcybDUuNDggMjIuNzJhMy45IDMuOSAwIDAgMS0wLjgyIDMuNGwtMTUuMzUgMTguMjFhNC4zIDQuMyAwIDAgMS0zLjMxIDEuNTFoLTI0LjYyYTQuMzcgNC4zNyAwIDAgMS0zLjMyLTEuNTFsLTE1LjM1LTE4LjIyLTAuMjQtMC4zMmEzLjgzIDMuODMgMCAwIDEtMC41Ny0zLjA4bDUuNDctMjIuNzFhNCA0IDAgMCAxIDIuMjktMi43M2wyMi4xOC0xMC4xMWE0LjMzIDQuMzMgMCAwIDEgMS42Mi0wLjM5eiIgY2xhc3M9ImNscy0xMyIgaWQ9InBhdGgzMDU0LTItOS0xMi0wIi8+JiN4YTsgICA8L2c+JiN4YTsgICA8ZyBkYXRhLW5hbWU9InRleHQyMDY2IiBjbGFzcz0iY2xzLTE0IiBpZD0idGV4dDIwNjYtMTItNSI+JiN4YTsgICAgPHRleHQgdHJhbnNmb3JtPSJtYXRyaXgoMS4wNSwwLDAsMSwyNjYuODMsMTYyLjU3KSIgY2xhc3M9ImNscy0yMCIgaWQ9InRleHQyMjEtMCI+Yy1tPC90ZXh0PiYjeGE7ICAgPC9nPiYjeGE7ICAgPHBhdGggZGF0YS1uYW1lPSJwYXRoMTk4NCIgZD0ibTI3NS40IDExOC41MWMtMC41MiAwLTE0LjkyIDYuNzQtMTUuMTEgNy4wOS0wLjQ1IDAuODMtMy43MyAxNS4yNS0zLjUzIDE1LjU3czIuNDcgMyA1LjI0IDYuMzRsNSA2aDE2LjU5bDUuMjgtNi4yOSA1LjI3LTYuMjktMS44NC03LjczYy0xLTQuMjUtMS45My03LjgtMi03Ljg4LTAuMjYtMC4yNC0xNC42NC02LjgyLTE0LjkyLTYuODN6bTAuODggNy4wNmMwLjcgMCAwLjc3IDEgMi4yNiAxLjE1IDEuOTUgMC4xNCAxLjc0LTEuNTkgMy4yMy0wLjM5cy0wLjMzIDEuMyAwLjEzIDMuMTEgMi4xMiAxLjA4IDEuMzggMi44MS0xLjM5IDAuMS0zIDEuMDgtMC40MyAyLjI2LTIuMzcgMi4xMi0wLjUzLTEuMjMtMi0yLjQ0LTIuMzkgMC4zMS0yLjg1LTEuNSAxLjA2LTAuODYgMS44MS0yLjU4LTEuMDUtMi4wNyAwLjYxLTMuMDVhMi43MSAyLjcxIDAgMCAxIDAuNTMtMC4yNSAxLjE2IDEuMTYgMCAwIDEgMC4zNC0wLjA2em0yIDJhMi45NCAyLjk0IDAgMCAwLTAuODQgMC4xMiAyLjY4IDIuNjggMCAwIDAtMS44OSAzLjM2IDIuODUgMi44NSAwIDAgMCAzLjUyIDEuOCAyLjY3IDIuNjcgMCAwIDAgMS44OS0zLjM2IDIuOCAyLjggMCAwIDAtMi43My0xLjg4em0tMTEuMTggNC42NGEyIDIgMCAwIDEgMC41NiAwLjFjMS43OSAwLjUyIDAgMS40MiAxLjI1IDIuNzNzMi4zNC0wLjM2IDIuNzYgMS4zOS0xLjMgMC42OC0xLjg1IDIuMzkgMS41IDEuNzYgMC4xMiAzLTEuMjctMC43My0zLjEtMC4zMy0wLjg1IDIuMTItMi42NCAxLjU5IDAtMS40Mi0xLjI1LTIuNzMtMi4zNCAwLjM2LTIuNzYtMS4zOCAxLjMtMC42OSAxLjg1LTIuNC0xLjUtMS43Ni0wLjEzLTMgMS4yOCAwLjc0IDMuMTEgMC4zM2MxLjYtMC4zNSAxLTEuNyAyLjA4LTEuNjl6bTEzLjMyIDEuODdhMi4wNiAyLjA2IDAgMCAxIDAuNjQgMC4xNGMyLjA2IDAuNzctMC42NiAyIDAuOTUgMy40MXMyLjcxLTEuMTkgMy42MSAwLjc1LTEuOTEgMC45My0xLjg2IDMuMDUgMi44IDEgMiAzLTItMC42Mi0zLjU3IDAuOTEgMS4yNCAyLjU5LTAuNzkgMy40NC0xLTEuODItMy4xOS0xLjc3LTEgMi42Ny0zLjExIDEuOSAwLjY1LTEuOTQtMC45NS0zLjQtMi43MSAxLjE4LTMuNjEtMC43NSAxLjkxLTAuOTQgMS44Ni0zLTIuOC0xLTItMyAyIDAuNjMgMy41Ny0wLjktMS4yNC0yLjU5IDAuNzktMy40NCAxIDEuODEgMy4xOSAxLjc3YzEuOTQgMCAxLjI4LTIuMDYgMi40Ny0yem0tMTQuNDkgMC45MWEyLjcgMi43IDAgMSAwIDIuODMgMi43IDIuNzcgMi43NyAwIDAgMC0yLjg4LTIuNjl6bTEyLjA3IDIuNjJhNCA0IDAgMSAwIDQuMTYgNCA0LjA3IDQuMDcgMCAwIDAtNC4xNi00eiIgY2xhc3M9ImNscy0xMyIgaWQ9InBhdGgxOTg0LTYtNyIvPiYjeGE7ICA8L2c+JiN4YTsgPC9nPiYjeGE7IDx0ZXh0IGZvbnQtc2l6ZT0iMTJweCIgZm9udC1mYW1pbHk9IidPcGVuIFNhbnMnLCBzYW5zLXNlcmlmIiB5PSIyNzMuOTc1NCIgeD0iNzA5Ljc0NjIyIiBjbGFzcz0iY2xzLTIyIiBpZD0idGV4dDI1Ny0wIj48dHNwYW4gc3R5bGU9ImZvbnQtdmFyaWFudC1jYXBzOm5vcm1hbDtmb250LXZhcmlhbnQtZWFzdC1hc2lhbjpub3JtYWw7Zm9udC12YXJpYW50LWxpZ2F0dXJlczpub3JtYWw7Zm9udC12YXJpYW50LW51bWVyaWM6bm9ybWFsIiB0ZXh0LWFuY2hvcj0ibWlkZGxlIiBmb250LXdlaWdodD0iYm9sZCIgZm9udC1zaXplPSIxNC42NjdweCIgZm9udC1mYW1pbHk9IidPcGVuIFNhbnMnIiBpZD0idHNwYW4xMzEyLTUiPk5vZGU8L3RzcGFuPjwvdGV4dD4mI3hhOyA8dGV4dCBmb250LXNpemU9IjEycHgiIGZvbnQtZmFtaWx5PSInT3BlbiBTYW5zJywgc2Fucy1zZXJpZiIgeT0iMjczLjE0MzM0IiB4PSI4NzAuNDM2MzQiIGNsYXNzPSJjbHMtMjIiIGlkPSJ0ZXh0MjU3LTAtOCI+PHRzcGFuIHN0eWxlPSJmb250LXZhcmlhbnQtY2Fwczpub3JtYWw7Zm9udC12YXJpYW50LWVhc3QtYXNpYW46bm9ybWFsO2ZvbnQtdmFyaWFudC1saWdhdHVyZXM6bm9ybWFsO2ZvbnQtdmFyaWFudC1udW1lcmljOm5vcm1hbCIgdGV4dC1hbmNob3I9Im1pZGRsZSIgZm9udC13ZWlnaHQ9ImJvbGQiIGZvbnQtc2l6ZT0iMTQuNjY3cHgiIGZvbnQtZmFtaWx5PSInT3BlbiBTYW5zJyIgaWQ9InRzcGFuMTMxMi01LTAiPk5vZGU8L3RzcGFuPjwvdGV4dD4mI3hhOyA8ZyB0cmFuc2Zvcm09InRyYW5zbGF0ZSgtMTIzLjgyIC00MC45OTcpIiBpZD0iZzE3ODIiPiYjeGE7ICA8cGF0aCBzdHJva2Utd2lkdGg9IjEuNSIgZD0ibTQ4Mi4yIDE1MS45NWgzOTEuOTUiIGNsYXNzPSJjbHMtNyIgaWQ9InBhdGgyNCIvPiYjeGE7ICA8cGF0aCBkPSJtODcyLjMxIDE1Ny4xOSAxMy40Ni00Ljg0LTEzLjQ2LTQuODN6IiBpZD0icGF0aDI2Ii8+JiN4YTsgPC9nPiYjeGE7IDxnIHRyYW5zZm9ybT0idHJhbnNsYXRlKC0xMjMuODIgNjY0Ljc0KSIgaWQ9ImczOTg4Ij4mI3hhOyAgPGcgaWQ9ImczOTkwIi8+JiN4YTsgPC9nPiYjeGE7IDxnIHRyYW5zZm9ybT0idHJhbnNsYXRlKC0xMjMuODIgNjY0Ljc0KSIgaWQ9Imc0MDE0Ij4mI3hhOyAgPGcgaWQ9Imc0MDE2Ii8+JiN4YTsgPC9nPiYjeGE7IDxwYXRoIHN0eWxlPSJmb250LWZlYXR1cmUtc2V0dGluZ3M6bm9ybWFsO2ZvbnQtdmFyaWFudC1hbHRlcm5hdGVzOm5vcm1hbDtmb250LXZhcmlhbnQtY2Fwczpub3JtYWw7Zm9udC12YXJpYW50LWVhc3QtYXNpYW46bm9ybWFsO2ZvbnQtdmFyaWFudC1saWdhdHVyZXM6bm9ybWFsO2ZvbnQtdmFyaWFudC1udW1lcmljOm5vcm1hbDtmb250LXZhcmlhbnQtcG9zaXRpb246bm9ybWFsO2ZvbnQtdmFyaWF0aW9uLXNldHRpbmdzOm5vcm1hbDtpbmxpbmUtc2l6ZTowO2lzb2xhdGlvbjphdXRvO21peC1ibGVuZC1tb2RlOm5vcm1hbDtzaGFwZS1tYXJnaW46MDtzaGFwZS1wYWRkaW5nOjA7dGV4dC1kZWNvcmF0aW9uLWNvbG9yOiMwMDAwMDA7dGV4dC1kZWNvcmF0aW9uLWxpbmU6bm9uZTt0ZXh0LWRlY29yYXRpb24tc3R5bGU6c29saWQ7dGV4dC1pbmRlbnQ6MDt0ZXh0LW9yaWVudGF0aW9uOm1peGVkO3RleHQtdHJhbnNmb3JtOm5vbmU7d2hpdGUtc3BhY2U6bm9ybWFsIiBzdG9wLWNvbG9yPSIjMDAwMDAwIiBzaGFwZS1yZW5kZXJpbmc9ImF1dG8iIGltYWdlLXJlbmRlcmluZz0iYXV0byIgZmlsbC1ydWxlPSJldmVub2RkIiBjb2xvci1yZW5kZXJpbmc9ImF1dG8iIGNvbG9yPSIjMDAwMDAwIiBkPSJtNDY4LjMyIDM2OC45MXYxMDAuMzNoNDcuNjA1di0xaC00Ni42MDV2LTk5LjMzNHoiIGlkPSJwYXRoNDg1NyIvPiYjeGE7IDxwYXRoIHN0eWxlPSJmb250LWZlYXR1cmUtc2V0dGluZ3M6bm9ybWFsO2ZvbnQtdmFyaWFudC1hbHRlcm5hdGVzOm5vcm1hbDtmb250LXZhcmlhbnQtY2Fwczpub3JtYWw7Zm9udC12YXJpYW50LWVhc3QtYXNpYW46bm9ybWFsO2ZvbnQtdmFyaWFudC1saWdhdHVyZXM6bm9ybWFsO2ZvbnQtdmFyaWFudC1udW1lcmljOm5vcm1hbDtmb250LXZhcmlhbnQtcG9zaXRpb246bm9ybWFsO2ZvbnQtdmFyaWF0aW9uLXNldHRpbmdzOm5vcm1hbDtpbmxpbmUtc2l6ZTowO2lzb2xhdGlvbjphdXRvO21peC1ibGVuZC1tb2RlOm5vcm1hbDtzaGFwZS1tYXJnaW46MDtzaGFwZS1wYWRkaW5nOjA7dGV4dC1kZWNvcmF0aW9uLWNvbG9yOiMwMDAwMDA7dGV4dC1kZWNvcmF0aW9uLWxpbmU6bm9uZTt0ZXh0LWRlY29yYXRpb24tc3R5bGU6c29saWQ7dGV4dC1pbmRlbnQ6MDt0ZXh0LW9yaWVudGF0aW9uOm1peGVkO3RleHQtdHJhbnNmb3JtOm5vbmU7d2hpdGUtc3BhY2U6bm9ybWFsIiBzdG9wLWNvbG9yPSIjMDAwMDAwIiBzaGFwZS1yZW5kZXJpbmc9ImF1dG8iIGltYWdlLXJlbmRlcmluZz0iYXV0byIgZmlsbC1ydWxlPSJldmVub2RkIiBjb2xvci1yZW5kZXJpbmc9ImF1dG8iIGNvbG9yPSIjMDAwMDAwIiBkPSJtMzQ2LjEgMjU5Ljk5Yy0zMjMuMzUtMjEwLjIzLTE2MS42OC0xMDUuMTEgMCAweiIgaWQ9InBhdGg0ODUzIi8+JiN4YTsgPHBhdGggc3R5bGU9ImZvbnQtZmVhdHVyZS1zZXR0aW5nczpub3JtYWw7Zm9udC12YXJpYW50LWFsdGVybmF0ZXM6bm9ybWFsO2ZvbnQtdmFyaWFudC1jYXBzOm5vcm1hbDtmb250LXZhcmlhbnQtZWFzdC1hc2lhbjpub3JtYWw7Zm9udC12YXJpYW50LWxpZ2F0dXJlczpub3JtYWw7Zm9udC12YXJpYW50LW51bWVyaWM6bm9ybWFsO2ZvbnQtdmFyaWFudC1wb3NpdGlvbjpub3JtYWw7Zm9udC12YXJpYXRpb24tc2V0dGluZ3M6bm9ybWFsO2lubGluZS1zaXplOjA7aXNvbGF0aW9uOmF1dG87bWl4LWJsZW5kLW1vZGU6bm9ybWFsO3NoYXBlLW1hcmdpbjowO3NoYXBlLXBhZGRpbmc6MDt0ZXh0LWRlY29yYXRpb24tY29sb3I6IzAwMDAwMDt0ZXh0LWRlY29yYXRpb24tbGluZTpub25lO3RleHQtZGVjb3JhdGlvbi1zdHlsZTpzb2xpZDt0ZXh0LWluZGVudDowO3RleHQtb3JpZW50YXRpb246bWl4ZWQ7dGV4dC10cmFuc2Zvcm06bm9uZTt3aGl0ZS1zcGFjZTpub3JtYWwiIHN0b3AtY29sb3I9IiMwMDAwMDAiIHNoYXBlLXJlbmRlcmluZz0iYXV0byIgaW1hZ2UtcmVuZGVyaW5nPSJhdXRvIiBmaWxsLXJ1bGU9ImV2ZW5vZGQiIGNvbG9yLXJlbmRlcmluZz0iYXV0byIgY29sb3I9IiMwMDAwMDAiIGQ9Im02MjkuNzYgMzY5LjYxdjEwMC4zM2g0NS4yMzh2LTFoLTQ0LjIzOHYtOTkuMzM0eiIgaWQ9InBhdGgzOTM0Ii8+JiN4YTsgPGcgdHJhbnNmb3JtPSJ0cmFuc2xhdGUoLTMxMi4yMSA5My44MTQpIiBpZD0ibGF5ZXIxIj4mI3hhOyAgPGcgaWQ9Imc3MCI+JiN4YTsgICA8cGF0aCBkPSJtODYxLjM2IDMyOC40NGE0Ljc5IDQuNzkgMCAwIDAtMS44MiAwLjQ2bC0yNC43NyAxMS44M2E0LjcxIDQuNzEgMCAwIDAtMi41NiAzLjE5bC02LjEyIDI2LjU5YTQuNjYgNC42NiAwIDAgMCAwLjY1IDMuNiAzLjI4IDMuMjggMCAwIDAgMC4yNyAwLjM4bDE3LjE0IDIxLjMyYTQuNzUgNC43NSAwIDAgMCAzLjcxIDEuNzZoMjcuNWE0Ljc0IDQuNzQgMCAwIDAgMy43LTEuNzdsMTcuMTQtMjEuMzJhNC42OCA0LjY4IDAgMCAwIDAuOTItNGwtNi4xMi0yNi41NmE0LjY5IDQuNjkgMCAwIDAtMi41Ni0zLjE5bC0yNC43OS0xMS44M2E0Ljc2IDQuNzYgMCAwIDAtMi4yOS0wLjQ2eiIgY2xhc3M9ImNscy0xMSIgaWQ9InBhdGgzMDU1Ii8+JiN4YTsgICA8cGF0aCBkPSJtODYxLjM0IDMyNi41MWE1LjA5IDUuMDkgMCAwIDAtMS45MSAwLjQ5bC0yNi4xNSAxMi40OWE1IDUgMCAwIDAtMi43MSAzLjM3bC02LjQ1IDI4LjA3YTQuOSA0LjkgMCAwIDAgMC42OCAzLjhjMC4wOSAwLjE0IDAuMTggMC4yNyAwLjI4IDAuNGwxOC4xIDIyLjVhNSA1IDAgMCAwIDMuOTEgMS44N2gyOWE1IDUgMCAwIDAgMy45MS0xLjg2bDE4LjEtMjIuNTFhNSA1IDAgMCAwIDEtNC4ybC02LjQ2LTI4LjA3YTUgNSAwIDAgMC0yLjctMy4zNmwtMjYuMTctMTIuNWE1LjA3IDUuMDcgMCAwIDAtMi40My0wLjQ5em0wIDEuOTNhNC43NiA0Ljc2IDAgMCAxIDIuMjkgMC40NmwyNC43OCAxMS44M2E0LjY5IDQuNjkgMCAwIDEgMi41NiAzLjE5bDYuMTIgMjYuNTlhNC42MyA0LjYzIDAgMCAxLTAuOTEgNGwtMTcuMTIgMjEuMjlhNC43NSA0Ljc1IDAgMCAxLTMuNzEgMS43N2gtMjcuNDlhNC43NSA0Ljc1IDAgMCAxLTMuNzEtMS43N2wtMTcuMTUtMjEuMzFhMy4yOCAzLjI4IDAgMCAxLTAuMjctMC4zOCA0LjY2IDQuNjYgMCAwIDEtMC42NS0zLjZsNi4xMS0yNi41OWE0LjczIDQuNzMgMCAwIDEgMi41Ny0zLjE4bDI0Ljc3LTExLjg0YTQuNzkgNC43OSAwIDAgMSAxLjgyLTAuNDZ6IiBjbGFzcz0iY2xzLTEzIiBpZD0icGF0aDMwNTQtMi05Ii8+JiN4YTsgIDwvZz4mI3hhOyAgPGcgY2xhc3M9ImNscy0xNCIgaWQ9InRleHQyMDY2Ij4mI3hhOyAgIDx0ZXh0IHRyYW5zZm9ybT0idHJhbnNsYXRlKDg0MS45NywzOTEuNzMpIiBjbGFzcz0iY2xzLTE1IiBpZD0idGV4dDEzMyI+ay1wcm94eTwvdGV4dD4mI3hhOyAgPC9nPiYjeGE7ICA8cGF0aCBkPSJtODYxLjUzIDMzOC42OWMtMC41OCAwLTE2LjY2IDcuODktMTYuODcgOC4yOS0wLjUxIDEtNC4xNyAxNy44Ni00IDE4LjIzIDAuMTMgMC4yMSAyLjc3IDMuNTUgNS44NiA3LjQybDUuNjMgN2gxOC41M2w1LjktNy4zNyA1Ljg5LTcuMzYtMi4wNi05Yy0xLjEzLTUtMi4xNS05LjEzLTIuMjUtOS4yMy0wLjI5LTAuMjgtMTYuMzYtOC0xNi42Ny04em0wLjgyIDMuOTUgMy43OSAxLjEtMy43OSAxLjEtMy43OS0xLjF6bS0zLjc5IDEuNTIgMy41NSAxLjA2djQuOTNsLTMuNTMtMnptNy41OCAwdjRsLTMuNTMgMnYtNC45M3ptLTkuMTQgNi43MyAzLjc5IDEuMS0zLjc5IDEuMS0zLjc5LTEuMXptOS4yMiAwIDMuNzggMS4xMS0zLjc5IDEuMS0zLjgtMS4xem0tMTMgMS41MiAzLjU1IDEuMDZ2NC45M2wtMy41NC0xLjk1em03LjU4IDB2NGwtMy41MyAxLjk1di00Ljkzem0xLjYzIDAgMy41NSAxLjA2djQuOTNsLTMuNTMtMS45NXptNy41OSAwdjRsLTMuNTQgMS45NXYtNC45M3ptLTE0LjM5IDYuMzJjMS4xMyAwIDAuMjUgMS4xOCAxLjUzIDEuNzlzMS42NS0xIDIuNTEgMC4yNi0wLjc2IDAuOTMtMC42NCAyLjQ0IDEuNjcgMC45NCAxIDIuMzEtMS4xOS0wLjItMi40MyAwLjY2IDAgMS45Mi0xLjQ4IDItMC40My0xLjEzLTEuNzktMS43OC0xLjY1IDEtMi41MS0wLjI3IDAuNzYtMC45MyAwLjY0LTIuNDMtMS42Ny0wLjk0LTEtMi4zMSAxLjE5IDAuMiAyLjQzLTAuNjYgMC0xLjkyIDEuNDktMnptOS43NCAxLjUyYzIgMC4wNSAwLjA2IDEuOTUgMS45IDIuNzdzMS45NS0xLjg5IDMuMzQtMC40My0xLjM0IDEuNDItMC42MiAzLjMxIDIuNzIgMCAyLjY2IDIuMDUtMiAwLjA2LTIuNzcgMS45IDEuODkgMS45NSAwLjQzIDMuMzQtMS40Mi0xLjM0LTMuMzEtMC42MiAwIDIuNzItMi4wNSAyLjY2LTAuMDYtMi0xLjktMi43Ny0yIDEuODktMy4zNCAwLjQzIDEuMzQtMS40MiAwLjYyLTMuMzEtMi43MiAwLTIuNjYtMi4wNSAyLTAuMDYgMi43Ny0xLjktMS44OS0xLjk1LTAuNDMtMy4zNCAxLjQyIDEuMzQgMy4zMSAwLjYyLTAuMDEtMi43MiAyLjAxLTIuNjZ6bS05LjY1IDEuMDVhMi4yMiAyLjIyIDAgMSAwIDIuMjEgMi4yMiAyLjIyIDIuMjIgMCAwIDAtMi4yNS0yLjIyem05LjQ0IDJhNC40MyA0LjQzIDAgMSAwIDQuNDMgNC40MyA0LjQzIDQuNDMgMCAwIDAtNC40Ny00LjQyeiIgY2xhc3M9ImNscy0xMyIgaWQ9InBhdGgxOTk0Ii8+JiN4YTsgPC9nPiYjeGE7IDxnIGRhdGEtbmFtZT0ibGF5ZXIxIiB0cmFuc2Zvcm09InRyYW5zbGF0ZSgtMzEyLjIyIDkzLjgxNCkiIGlkPSJsYXllcjEtNCI+JiN4YTsgIDxnIGRhdGEtbmFtZT0iZzcwIiBpZD0iZzcwLTQiPiYjeGE7ICAgPHBhdGggZGF0YS1uYW1lPSJwYXRoMzA1NSIgZD0ibTg2MS4zNyAyMzkuMjJhNC40NSA0LjQ1IDAgMCAwLTEuNzIgMC40M2wtMjMuNDUgMTEuMjFhNC40NiA0LjQ2IDAgMCAwLTIuNDMgM2wtNS43NyAyNS4xOWE0LjQ2IDQuNDYgMCAwIDAgMC42MSAzLjQxYzAuMDggMC4xMiAwLjE3IDAuMjQgMC4yNiAwLjM1bDE2LjIxIDIwLjE5YTQuNTIgNC41MiAwIDAgMCAzLjUxIDEuNjdoMjZhNC40NiA0LjQ2IDAgMCAwIDMuNTEtMS42N2wxNi4yMy0yMC4xOGE0LjQyIDQuNDIgMCAwIDAgMC44Ni0zLjc3bC01Ljc5LTI1LjE3YTQuNDYgNC40NiAwIDAgMC0yLjQzLTNsLTIzLjQ1LTExLjJhNC41NiA0LjU2IDAgMCAwLTIuMTUtMC40NnoiIGNsYXNzPSJjbHMtMTEiIGlkPSJwYXRoMzA1NS00Ii8+JiN4YTsgICA8cGF0aCBkYXRhLW5hbWU9InBhdGgzMDU0LTItOSIgZD0ibTg2MS4zNiAyMzcuMzlhNC43MSA0LjcxIDAgMCAwLTEuODEgMC40N2wtMjQuNzcgMTEuODJhNC43NCA0Ljc0IDAgMCAwLTIuNTYgMy4xOWwtNi4xIDI2LjU3YTQuNjIgNC42MiAwIDAgMCAwLjY0IDMuNiAzLjI4IDMuMjggMCAwIDAgMC4yNyAwLjM4bDE3LjEzIDIxLjMxYTQuNzggNC43OCAwIDAgMCAzLjcxIDEuNzZoMjcuNDhhNC43NCA0Ljc0IDAgMCAwIDMuNy0xLjc3bDE3LjEzLTIxLjMxYTQuNjYgNC42NiAwIDAgMCAwLjkyLTRsLTYuMS0yNi41NWE0LjcyIDQuNzIgMCAwIDAtMi41Ni0zLjE4bC0yNC43Ni0xMS44M2E0LjgyIDQuODIgMCAwIDAtMi4zMi0wLjQ2em0wIDEuODNhNC40OSA0LjQ5IDAgMCAxIDIuMTcgMC40M2wyMy40NyAxMS4yYTQuNDggNC40OCAwIDAgMSAyLjQzIDNsNS43OSAyNS4xNWE0LjQyIDQuNDIgMCAwIDEtMC44NiAzLjc3bC0xNi4yMyAyMC4yM2E0LjUgNC41IDAgMCAxLTMuNTEgMS42OGgtMjZhNC40OSA0LjQ5IDAgMCAxLTMuNTEtMS42N2wtMTYuMjMtMjAuMTljLTAuMDktMC4xMS0wLjE4LTAuMjMtMC4yNi0wLjM1YTQuNDIgNC40MiAwIDAgMS0wLjYxLTMuNDFsNS43OS0yNS4xN2E0LjQ2IDQuNDYgMCAwIDEgMi40My0zbDIzLjQ1LTExLjIxYTQuNDUgNC40NSAwIDAgMSAxLjcyLTAuNDN6IiBjbGFzcz0iY2xzLTEzIiBpZD0icGF0aDMwNTQtMi05LTQiLz4mI3hhOyAgPC9nPiYjeGE7ICA8ZyBkYXRhLW5hbWU9InRleHQyMDY2IiBjbGFzcz0iY2xzLTE0IiBpZD0idGV4dDIwNjYtNCI+JiN4YTsgICA8dGV4dCB0cmFuc2Zvcm09InRyYW5zbGF0ZSg4NDMuMywyOTkuMTQpIiBjbGFzcz0iY2xzLTE2IiBpZD0idGV4dDE1NyI+a3ViZWxldDwvdGV4dD4mI3hhOyAgPC9nPiYjeGE7ICA8cGF0aCBkYXRhLW5hbWU9InBhdGgxOTk0IiBkPSJtODYxLjUzIDI0OC45MmMtMC41NCAwLTE1Ljc3IDcuNDctMTYgNy44NS0wLjQ4IDAuOTMtMy45NSAxNi45MS0zLjc0IDE3LjI1czIuNjEgMy4zNyA1LjU0IDdsNS4zMyA2LjY3aDE3LjU1bDExLjE2LTE0LTEuOTUtOC41NmMtMS4wOC00LjcxLTItOC42NC0yLjE0LTguNzQtMC4yNy0wLjI2LTE1LjQ4LTcuNTUtMTUuNzgtNy41NnptMC43OCAzLjc0IDMuNTkgMS0zLjU5IDEtMy41OS0xem0tMy41OSAxLjQ0IDMuMzYgMXY0LjY3bC0zLjM0LTEuODV6bTcuMTggMHYzLjgybC0zLjM1IDEuODV2LTQuNjd6bS04LjY4IDYuMzggMy41OSAxLTMuNTkgMS0zLjU5LTF6bTguNzIgMCAzLjU5IDEtMy41OSAxLTMuNTktMXptLTEyLjMxIDEuNDMgMy4zNiAxdjQuNjhsLTMuMzUtMS44NnptNy4xOCAwdjMuODJsLTMuMzUgMS44NnYtNC42OHptMS41NCAwIDMuMzYgMXY0LjY4bC0zLjM1LTEuODZ6bTcuMTggMHYzLjgybC0zLjM0IDEuODZ2LTQuNjh6bS0xMy42MiA2YzEuMDcgMCAwLjI0IDEuMTEgMS40NSAxLjY5czEuNTYtMC45MyAyLjM4IDAuMjUtMC43MyAwLjg4LTAuNjEgMi4zMSAxLjU4IDAuODkgMSAyLjE4LTEuMTMtMC4xOS0yLjMxIDAuNjIgMCAxLjgyLTEuNCAxLjk0LTAuNC0xLjA3LTEuNy0xLjY5LTEuNTYgMC45My0yLjM3LTAuMjUgMC43My0wLjg4IDAuNjEtMi4zMS0xLjU5LTAuODgtMS0yLjE4IDEuMTIgMC4xOSAyLjMtMC42MiAwLTEuODIgMS40MS0xLjk0em05LjIyIDEuNDNjMS45MSAwLjA1IDAuMDYgMS44NSAxLjggMi42M3MxLjg1LTEuOCAzLjE2LTAuNDEtMS4yNiAxLjM0LTAuNTggMy4xMyAyLjU3IDAgMi41MiAxLjk0LTEuODUgMC4wNi0yLjYzIDEuOCAxLjc5IDEuODUgMC40MSAzLjE2LTEuMzUtMS4yNi0zLjEzLTAuNTggMCAyLjU3LTEuOTUgMi41Mi0wLjA1LTEuODUtMS44LTIuNjMtMS44NCAxLjgtMy4xNSAwLjQxIDEuMjYtMS4zNCAwLjU4LTMuMTMtMi41OCAwLTIuNTItMS45NCAxLjg0LTAuMDYgMi42Mi0xLjgxLTEuNzktMS44NC0wLjQtMy4xNSAxLjM0IDEuMjYgMy4xMyAwLjU4IDAuMDMtMi41OCAxLjk0LTIuNTN6bS05LjE0IDFhMi4xIDIuMSAwIDEgMCAyLjEgMi4xIDIuMSAyLjEgMCAwIDAtMi4wOS0yLjExem04Ljk0IDEuOWE0LjIgNC4yIDAgMSAwIDQuMiA0LjE5IDQuMiA0LjIgMCAwIDAtNC4yLTQuMnoiIGNsYXNzPSJjbHMtMTMiIGlkPSJwYXRoMTk5NC00Ii8+JiN4YTsgPC9nPiYjeGE7IDxnIGRhdGEtbmFtZT0ibGF5ZXIxIiB0cmFuc2Zvcm09InRyYW5zbGF0ZSgtMjg4LjMyIDkzLjgxNCkiIGlkPSJsYXllcjEtNSI+JiN4YTsgIDxnIGRhdGEtbmFtZT0iZzcwIiBpZD0iZzcwLTUiPiYjeGE7ICAgPHBhdGggZGF0YS1uYW1lPSJwYXRoMzA1NSIgZD0ibTk5OC4xNSAyMzkuMjJhNC40NSA0LjQ1IDAgMCAwLTEuNzIgMC40M2wtMjMuNDMgMTEuMjFhNC40NSA0LjQ1IDAgMCAwLTIuNDIgM2wtNS43OSAyNS4xN2E0LjQyIDQuNDIgMCAwIDAgMC42MSAzLjQxIDIuODggMi44OCAwIDAgMCAwLjI2IDAuMzVsMTYuMiAyMC4yMWE0LjUyIDQuNTIgMCAwIDAgMy41MSAxLjY3aDI2YTQuNDkgNC40OSAwIDAgMCAzLjUxLTEuNjdsMTYuMjItMjAuMThhNC40MiA0LjQyIDAgMCAwIDAuOS0zLjgybC01Ljc5LTI1LjE3YTQuNDggNC40OCAwIDAgMC0yLjQzLTNsLTIzLjQ2LTExLjJhNC40OSA0LjQ5IDAgMCAwLTIuMTctMC40MXoiIGNsYXNzPSJjbHMtMTEiIGlkPSJwYXRoMzA1NS01Ii8+JiN4YTsgICA8cGF0aCBkYXRhLW5hbWU9InBhdGgzMDU0LTItOSIgZD0ibTk5OC4xMyAyMzcuMzlhNC44MSA0LjgxIDAgMCAwLTEuODEgMC40N2wtMjQuNzYgMTEuODJhNC43MSA0LjcxIDAgMCAwLTIuNTYgMy4xOWwtNi4xMSAyNi41N2E0LjcgNC43IDAgMCAwIDAuNjQgMy42bDAuMjcgMC4zOCAxNy4xNCAyMS4zMWE0Ljc2IDQuNzYgMCAwIDAgMy43IDEuNzZoMjcuNDhhNC43NiA0Ljc2IDAgMCAwIDMuNzEtMS43N2wxNy4xNy0yMS4zMWE0LjY2IDQuNjYgMCAwIDAgMC45MS00bC02LjExLTI2LjU4YTQuNzMgNC43MyAwIDAgMC0yLjU3LTMuMThsLTI0Ljc2LTExLjgzYTQuNzcgNC43NyAwIDAgMC0yLjM0LTAuNDN6bTAgMS44M2E0LjUyIDQuNTIgMCAwIDEgMi4xNyAwLjQzbDIzLjQ2IDExLjJhNC40OCA0LjQ4IDAgMCAxIDIuNDMgM2w1LjgxIDI1LjE1YTQuNDIgNC40MiAwIDAgMS0wLjg3IDMuNzdsLTE2LjIyIDIwLjIzYTQuNTMgNC41MyAwIDAgMS0zLjUxIDEuNjhoLTI2YTQuNDkgNC40OSAwIDAgMS0zLjUxLTEuNjdsLTE2LjIzLTIwLjE5YTIuODggMi44OCAwIDAgMS0wLjI2LTAuMzUgNC40MiA0LjQyIDAgMCAxLTAuNjEtMy40MWw1Ljc5LTI1LjE3YTQuNDQgNC40NCAwIDAgMSAyLjQyLTNsMjMuNDYtMTEuMjFhNC40NSA0LjQ1IDAgMCAxIDEuNzItMC40M3oiIGNsYXNzPSJjbHMtMTMiIGlkPSJwYXRoMzA1NC0yLTktNSIvPiYjeGE7ICA8L2c+JiN4YTsgIDxnIGRhdGEtbmFtZT0idGV4dDIwNjYiIGNsYXNzPSJjbHMtMTQiIGlkPSJ0ZXh0MjA2Ni01Ij4mI3hhOyAgIDx0ZXh0IHRyYW5zZm9ybT0idHJhbnNsYXRlKDk4MC4wOCwyOTkuMTQpIiBjbGFzcz0iY2xzLTE2IiBpZD0idGV4dDE2NSI+a3ViZWxldDwvdGV4dD4mI3hhOyAgPC9nPiYjeGE7ICA8cGF0aCBkYXRhLW5hbWU9InBhdGgxOTk0IiBkPSJtOTk4LjMxIDI0OC45MmMtMC41NSAwLTE1Ljc4IDcuNDctMTYgNy44NS0wLjQ4IDAuOTMtNCAxNi45MS0zLjc1IDE3LjI1czIuNjIgMy4zNyA1LjU1IDdsNS4zMyA2LjY3aDE3LjU2bDUuNTktNyA1LjU4LTctMi04LjU2Yy0xLjA3LTQuNzEtMi04LjY0LTIuMTMtOC43NC0wLjI4LTAuMjYtMTUuNDgtNy41NS0xNS43OC03LjU2em0wLjc3IDMuNzQgMy41OSAxLTMuNTkgMS0zLjU4LTF6bS0zLjU4IDEuNDQgMy4zNiAxdjQuNjdsLTMuMzQtMS44NXptNy4xNyAwdjMuODJsLTMuMzQgMS44NXYtNC42N3ptLTguNjcgNi4zOCAzLjU5IDEtMy41OSAxLTMuNTktMXptOC43MiAwIDMuNTkgMS0zLjU5IDEtMy41OS0xem0tMTIuMzEgMS40MyAzLjM2IDF2NC42OGwtMy4zNC0xLjg2em03LjE4IDB2My44MmwtMy4zNSAxLjg2di00LjY4em0xLjU0IDAgMy4zNiAxdjQuNjhsLTMuMzQtMS44NnptNy4xOCAwdjMuODJsLTMuMzUgMS44NnYtNC42OHptLTEzLjYyIDZjMS4wNiAwIDAuMjQgMS4xMSAxLjQ1IDEuNjlzMS41Ni0wLjkzIDIuMzcgMC4yNS0wLjcyIDAuODgtMC42MSAyLjMxIDEuNTkgMC44OSAxIDIuMTgtMS4xMy0wLjE5LTIuMzEgMC42MiAwIDEuODItMS40IDEuOTQtMC40MS0xLjA3LTEuNy0xLjY5LTEuNTYgMC45My0yLjM3LTAuMjUgMC43Mi0wLjg4IDAuNjEtMi4zMS0xLjU5LTAuODgtMS0yLjE4IDEuMTIgMC4xOSAyLjMtMC42MiAwLTEuODIgMS40MS0xLjk0em05LjIyIDEuNDNjMS45MSAwLjA1IDAuMDYgMS44NSAxLjggMi42M3MxLjg0LTEuOCAzLjE2LTAuNDEtMS4yNyAxLjM0LTAuNTkgMy4xMyAyLjU4IDAgMi41MiAxLjk0LTEuODQgMC4wNi0yLjYyIDEuOCAxLjc5IDEuODUgMC40IDMuMTYtMS4zNC0xLjI2LTMuMTItMC41OCAwIDIuNTctMiAyLjUyLTAuMDYtMS44NS0xLjgtMi42My0xLjg1IDEuOC0zLjE2IDAuNDEgMS4yNy0xLjM0IDAuNTgtMy4xMy0yLjU3IDAtMi41MS0xLjk0IDEuODQtMC4wNiAyLjYyLTEuODEtMS43OS0xLjg0LTAuNDEtMy4xNSAxLjM1IDEuMjYgMy4xMyAwLjU4IDAuMDktMi41OCAyLTIuNTN6bS05LjE0IDFhMi4xIDIuMSAwIDEgMCAyLjEgMi4xIDIuMSAyLjEgMCAwIDAtMi4xLTIuMTF6bTguOTQgMS45YTQuMiA0LjIgMCAxIDAgNC4xOSA0LjE5IDQuMiA0LjIgMCAwIDAtNC4xOS00LjJ6IiBjbGFzcz0iY2xzLTEzIiBpZD0icGF0aDE5OTQtNSIvPiYjeGE7IDwvZz4mI3hhOyA8ZyBkYXRhLW5hbWU9ImxheWVyMSIgdHJhbnNmb3JtPSJ0cmFuc2xhdGUoLTQ0MC40IDkzLjgxNCkiIGlkPSJsYXllcjEtMy0zIj4mI3hhOyAgPGcgZGF0YS1uYW1lPSJnNzAiIGlkPSJnNzAtMy0wIj4mI3hhOyAgIDxwYXRoIGRhdGEtbmFtZT0icGF0aDMwNTUiIGQ9Im0xMTUwLjIgMzI4LjQ0YTQuNzkgNC43OSAwIDAgMC0xLjgyIDAuNDZsLTI0Ljc3IDExLjgzYTQuNzEgNC43MSAwIDAgMC0yLjU2IDMuMTlsLTYuMSAyNi41OWE0LjY2IDQuNjYgMCAwIDAgMC42NSAzLjYgMy4yOCAzLjI4IDAgMCAwIDAuMjcgMC4zOGwxNy4wOCAyMS4zMmE0Ljc1IDQuNzUgMCAwIDAgMy43MSAxLjc2aDI3LjVhNC43NCA0Ljc0IDAgMCAwIDMuNy0xLjc3bDE3LjE0LTIxLjMyYTQuNjggNC42OCAwIDAgMCAwLjkyLTRsLTYuMTMtMjYuNThhNC42OSA0LjY5IDAgMCAwLTIuNTYtMy4xOWwtMjQuNzctMTEuODNhNC44MiA0LjgyIDAgMCAwLTIuMjYtMC40NHoiIGNsYXNzPSJjbHMtMTEiIGlkPSJwYXRoMzA1NS0zLTQiLz4mI3hhOyAgIDxwYXRoIGRhdGEtbmFtZT0icGF0aDMwNTQtMi05IiBkPSJtMTE1MC4yIDMyNi41MWE1LjA5IDUuMDkgMCAwIDAtMS45MSAwLjQ5bC0yNi4xNSAxMi40OWE1IDUgMCAwIDAtMi43MSAzLjM3bC02LjQ2IDI4LjA3YTQuOSA0LjkgMCAwIDAgMC42OCAzLjhjMC4wOSAwLjE0IDAuMTggMC4yNyAwLjI4IDAuNGwxOC4xIDIyLjVhNSA1IDAgMCAwIDMuOTEgMS44N2gyOWE1IDUgMCAwIDAgMy45MS0xLjg2bDE4LjEtMjIuNTFhNSA1IDAgMCAwIDEtNC4ybC02LjQ2LTI4LjA3YTUgNSAwIDAgMC0yLjctMy4zNmwtMjYuMTYtMTIuNWE1LjA3IDUuMDcgMCAwIDAtMi40My0wLjQ5em0wIDEuOTNhNC43NiA0Ljc2IDAgMCAxIDIuMjkgMC40NmwyNC43OCAxMS44M2E0LjY5IDQuNjkgMCAwIDEgMi41NiAzLjE5bDYuMTMgMjYuNTlhNC42NiA0LjY2IDAgMCAxLTAuOTIgNGwtMTcuMDcgMjEuMjlhNC43NCA0Ljc0IDAgMCAxLTMuNyAxLjc3aC0yNy41YTQuNzYgNC43NiAwIDAgMS0zLjcxLTEuNzdsLTE3LjE0LTIxLjMyYTMuMjggMy4yOCAwIDAgMS0wLjI3LTAuMzggNC42NiA0LjY2IDAgMCAxLTAuNjUtMy42bDYuMTItMjYuNTlhNC42OSA0LjY5IDAgMCAxIDIuNTYtMy4xOGwyNC43Ny0xMS44NGE0Ljc5IDQuNzkgMCAwIDEgMS44Mi0wLjQ2eiIgY2xhc3M9ImNscy0xMyIgaWQ9InBhdGgzMDU0LTItOS0zLTAiLz4mI3hhOyAgPC9nPiYjeGE7ICA8ZyBkYXRhLW5hbWU9InRleHQyMDY2IiBjbGFzcz0iY2xzLTE0IiBpZD0idGV4dDIwNjYtMy0wIj4mI3hhOyAgIDx0ZXh0IHRyYW5zZm9ybT0idHJhbnNsYXRlKDExMzAuOSAzOTEuNzMpIiBjbGFzcz0iY2xzLTE1IiBpZD0idGV4dDE0OS01Ij5rLXByb3h5PC90ZXh0PiYjeGE7ICA8L2c+JiN4YTsgIDxwYXRoIGRhdGEtbmFtZT0icGF0aDE5OTQiIGQ9Im0xMTUwLjQgMzM4LjY5Yy0wLjU4IDAtMTYuNjYgNy44OS0xNi44NyA4LjI5LTAuNTEgMS00LjE3IDE3Ljg2LTQgMTguMjMgMC4xMiAwLjIxIDIuNzYgMy41NSA1Ljg1IDcuNDJsNS42MyA3aDE4LjUzbDUuOS03LjM3IDUuODktNy4zNi0yLjA2LTljLTEuMTMtNS0yLjE1LTkuMTMtMi4yNS05LjIzLTAuMjktMC4yOC0xNi4zNi04LTE2LjY3LTh6bTAuODIgMy45NSAzLjc5IDEuMS0zLjc5IDEuMS0zLjc5LTEuMXptLTMuNzkgMS41MiAzLjU1IDEuMDZ2NC45M2wtMy41My0yem03LjU4IDB2NGwtMy41MyAydi00Ljkzem0tOS4xNyA2LjczIDMuNzkgMS4xLTMuNzkgMS4xLTMuNzktMS4xem05LjIyIDAgMy43OSAxLjEtMy43OSAxLjEtMy44LTEuMXptLTEzIDEuNTIgMy41NSAxLjA2djQuOTNsLTMuNTQtMS45NXptNy41OCAwdjRsLTMuNTMgMS45NXYtNC45M3ptMS42MyAwIDMuNTUgMS4wNnY0LjkzbC0zLjUzLTEuOTV6bTcuNTkgMHY0bC0zLjUzIDEuOTV2LTQuOTN6bS0xNC4zOSA2LjMyYzEuMTMgMCAwLjI1IDEuMTggMS41NCAxLjc5czEuNjQtMSAyLjUgMC4yNi0wLjc2IDAuOTMtMC42NCAyLjQ0IDEuNjcgMC45NCAxIDIuMzEtMS4xOS0wLjItMi40MyAwLjY2IDAgMS45Mi0xLjQ4IDItMC40My0xLjEzLTEuNzktMS43OC0xLjY1IDEtMi41MS0wLjI3IDAuNzYtMC45MyAwLjY0LTIuNDMtMS42Ny0wLjk0LTEtMi4zMSAxLjE5IDAuMiAyLjQzLTAuNjYgMC0xLjkyIDEuNDktMnptOS43NCAxLjUyYzIgMC4wNSAwLjA2IDEuOTUgMS45IDIuNzdzMi0xLjg5IDMuMzQtMC40My0xLjM0IDEuNDItMC42MiAzLjMxIDIuNzIgMCAyLjY2IDIuMDUtMiAwLjA2LTIuNzcgMS45IDEuODkgMS45NSAwLjQzIDMuMzQtMS40Mi0xLjM0LTMuMy0wLjYyIDAgMi43Mi0yLjA2IDIuNjYtMC4wNi0yLTEuOS0yLjc3LTIgMS44OS0zLjM0IDAuNDMgMS4zNC0xLjQyIDAuNjItMy4zMS0yLjcyIDAtMi42Ni0yLjA1IDItMC4wNiAyLjc3LTEuOS0xLjg5LTEuOTUtMC40My0zLjM0IDEuNDIgMS4zNCAzLjMxIDAuNjIgMC4wMi0yLjcyIDIuMDQtMi42NnptLTkuNjUgMS4wNWEyLjIyIDIuMjIgMCAxIDAgMi4yMiAyLjIyIDIuMjIgMi4yMiAwIDAgMC0yLjIzLTIuMjJ6bTkuNDQgMmE0LjQzIDQuNDMgMCAxIDAgNC40MyA0LjQzIDQuNDMgNC40MyAwIDAgMC00LjQ1LTQuNDJ6IiBjbGFzcz0iY2xzLTEzIiBpZD0icGF0aDE5OTQtMy01Ii8+JiN4YTsgPC9nPiYjeGE7IDxnIHNoYXBlLXJlbmRlcmluZz0iYXV0byIgZmlsbC1ydWxlPSJldmVub2RkIiB0cmFuc2Zvcm09InRyYW5zbGF0ZSgtMTM4Ljk0IC01NS4zNTYpIiBpZD0iZzQ4OTYiPiYjeGE7ICA8ZyBpZD0iZzQ4ODUiPiYjeGE7ICAgPHBhdGggc3R5bGU9ImZvbnQtZmVhdHVyZS1zZXR0aW5nczpub3JtYWw7Zm9udC12YXJpYW50LWFsdGVybmF0ZXM6bm9ybWFsO2ZvbnQtdmFyaWFudC1jYXBzOm5vcm1hbDtmb250LXZhcmlhbnQtZWFzdC1hc2lhbjpub3JtYWw7Zm9udC12YXJpYW50LWxpZ2F0dXJlczpub3JtYWw7Zm9udC12YXJpYW50LW51bWVyaWM6bm9ybWFsO2ZvbnQtdmFyaWFudC1wb3NpdGlvbjpub3JtYWw7Zm9udC12YXJpYXRpb24tc2V0dGluZ3M6bm9ybWFsO2lubGluZS1zaXplOjA7aXNvbGF0aW9uOmF1dG87bWl4LWJsZW5kLW1vZGU6bm9ybWFsO3NoYXBlLW1hcmdpbjowO3NoYXBlLXBhZGRpbmc6MDt0ZXh0LWRlY29yYXRpb24tY29sb3I6IzAwMDAwMDt0ZXh0LWRlY29yYXRpb24tbGluZTpub25lO3RleHQtZGVjb3JhdGlvbi1zdHlsZTpzb2xpZDt0ZXh0LWluZGVudDowO3RleHQtb3JpZW50YXRpb246bWl4ZWQ7dGV4dC10cmFuc2Zvcm06bm9uZTt3aGl0ZS1zcGFjZTpub3JtYWwiIHN0b3AtY29sb3I9IiMwMDAwMDAiIGltYWdlLXJlbmRlcmluZz0iYXV0byIgY29sb3ItcmVuZGVyaW5nPSJhdXRvIiBjb2xvcj0iIzAwMDAwMCIgZD0ibTU5NC45MSAyNzQuOTl2MjcuMTYzaC0xMDcuMDh2MWgxMDguMDh2LTI3LjE2M2gzMzMuMzN2MjUwLjM0aDQ5LjMyNnYtMWgtNDguMzI2di0xMDAuMzdoNDguMzI2di0xaC00OC4zMjZ2LTE0OC45OHoiIGlkPSJwYXRoNDg0NyIvPiYjeGE7ICAgPHBhdGggc3R5bGU9ImZvbnQtZmVhdHVyZS1zZXR0aW5nczpub3JtYWw7Zm9udC12YXJpYW50LWFsdGVybmF0ZXM6bm9ybWFsO2ZvbnQtdmFyaWFudC1jYXBzOm5vcm1hbDtmb250LXZhcmlhbnQtZWFzdC1hc2lhbjpub3JtYWw7Zm9udC12YXJpYW50LWxpZ2F0dXJlczpub3JtYWw7Zm9udC12YXJpYW50LW51bWVyaWM6bm9ybWFsO2ZvbnQtdmFyaWFudC1wb3NpdGlvbjpub3JtYWw7Zm9udC12YXJpYXRpb24tc2V0dGluZ3M6bm9ybWFsO2lubGluZS1zaXplOjA7aXNvbGF0aW9uOmF1dG87bWl4LWJsZW5kLW1vZGU6bm9ybWFsO3NoYXBlLW1hcmdpbjowO3NoYXBlLXBhZGRpbmc6MDt0ZXh0LWRlY29yYXRpb24tY29sb3I6IzAwMDAwMDt0ZXh0LWRlY29yYXRpb24tbGluZTpub25lO3RleHQtZGVjb3JhdGlvbi1zdHlsZTpzb2xpZDt0ZXh0LWluZGVudDowO3RleHQtb3JpZW50YXRpb246bWl4ZWQ7dGV4dC10cmFuc2Zvcm06bm9uZTt3aGl0ZS1zcGFjZTpub3JtYWwiIHN0b3AtY29sb3I9IiMwMDAwMDAiIGltYWdlLXJlbmRlcmluZz0iYXV0byIgY29sb3ItcmVuZGVyaW5nPSJhdXRvIiBjb2xvcj0iIzAwMDAwMCIgZD0ibTQ4OC43OCAzMDAuMDdjLTAuMDI2Ni0yZS0zIC0wLjA1MzIgMmUtMyAtMC4wNzgxIDAuMDExN2wtNi41NTQ3IDIuNDEwMmMtMC4xNjI5NSAwLjA2MDUtMC4xNjI5NSAwLjI5MTAyIDAgMC4zNTE1Nmw2LjU1NDcgMi40MTIxYzAuMTczMSAwLjA2MyAwLjMyMzgzLTAuMTM1MjEgMC4yMTY3OS0wLjI4NTE1LTAuOTk1MTItMS4zODY1LTAuOTk4Ny0zLjI0NDQgMC00LjYwMTYgMC4wODg1LTAuMTE5MzcgMC4wMS0wLjI4OTM0LTAuMTM4NjctMC4yOTg4MnoiIGlkPSJwYXRoNDg0NSIvPiYjeGE7ICA8L2c+JiN4YTsgIDxnIGlkPSJnNDg3NyI+JiN4YTsgICA8cGF0aCBzdHlsZT0iZm9udC1mZWF0dXJlLXNldHRpbmdzOm5vcm1hbDtmb250LXZhcmlhbnQtYWx0ZXJuYXRlczpub3JtYWw7Zm9udC12YXJpYW50LWNhcHM6bm9ybWFsO2ZvbnQtdmFyaWFudC1lYXN0LWFzaWFuOm5vcm1hbDtmb250LXZhcmlhbnQtbGlnYXR1cmVzOm5vcm1hbDtmb250LXZhcmlhbnQtbnVtZXJpYzpub3JtYWw7Zm9udC12YXJpYW50LXBvc2l0aW9uOm5vcm1hbDtmb250LXZhcmlhdGlvbi1zZXR0aW5nczpub3JtYWw7aW5saW5lLXNpemU6MDtpc29sYXRpb246YXV0bzttaXgtYmxlbmQtbW9kZTpub3JtYWw7c2hhcGUtbWFyZ2luOjA7c2hhcGUtcGFkZGluZzowO3RleHQtZGVjb3JhdGlvbi1jb2xvcjojMDAwMDAwO3RleHQtZGVjb3JhdGlvbi1saW5lOm5vbmU7dGV4dC1kZWNvcmF0aW9uLXN0eWxlOnNvbGlkO3RleHQtaW5kZW50OjA7dGV4dC1vcmllbnRhdGlvbjptaXhlZDt0ZXh0LXRyYW5zZm9ybTpub25lO3doaXRlLXNwYWNlOm5vcm1hbCIgc3RvcC1jb2xvcj0iIzAwMDAwMCIgaW1hZ2UtcmVuZGVyaW5nPSJhdXRvIiBjb2xvci1yZW5kZXJpbmc9ImF1dG8iIGNvbG9yPSIjMDAwMDAwIiBkPSJtNDg5LjY5IDMyOS42M3YxaDExNy41MnY5NC41NjRoNDcuNjA1di0xaC00Ni42MDV2LTk0LjU2NHoiIGlkPSJwYXRoNDg2MSIvPiYjeGE7ICAgPHBhdGggc3R5bGU9ImZvbnQtZmVhdHVyZS1zZXR0aW5nczpub3JtYWw7Zm9udC12YXJpYW50LWFsdGVybmF0ZXM6bm9ybWFsO2ZvbnQtdmFyaWFudC1jYXBzOm5vcm1hbDtmb250LXZhcmlhbnQtZWFzdC1hc2lhbjpub3JtYWw7Zm9udC12YXJpYW50LWxpZ2F0dXJlczpub3JtYWw7Zm9udC12YXJpYW50LW51bWVyaWM6bm9ybWFsO2ZvbnQtdmFyaWFudC1wb3NpdGlvbjpub3JtYWw7Zm9udC12YXJpYXRpb24tc2V0dGluZ3M6bm9ybWFsO2lubGluZS1zaXplOjA7aXNvbGF0aW9uOmF1dG87bWl4LWJsZW5kLW1vZGU6bm9ybWFsO3NoYXBlLW1hcmdpbjowO3NoYXBlLXBhZGRpbmc6MDt0ZXh0LWRlY29yYXRpb24tY29sb3I6IzAwMDAwMDt0ZXh0LWRlY29yYXRpb24tbGluZTpub25lO3RleHQtZGVjb3JhdGlvbi1zdHlsZTpzb2xpZDt0ZXh0LWluZGVudDowO3RleHQtb3JpZW50YXRpb246bWl4ZWQ7dGV4dC10cmFuc2Zvcm06bm9uZTt3aGl0ZS1zcGFjZTpub3JtYWwiIHN0b3AtY29sb3I9IiMwMDAwMDAiIGltYWdlLXJlbmRlcmluZz0iYXV0byIgY29sb3ItcmVuZGVyaW5nPSJhdXRvIiBjb2xvcj0iIzAwMDAwMCIgZD0ibTQ5MC43OCAzMjcuNTRjLTAuMDE0IDJlLTMgLTAuMDI3NyA1ZS0zIC0wLjA0MSAwLjAxbC02LjU1NDcgMi40MTIxYy0wLjE2Mjk1IDAuMDYwNS0wLjE2Mjk1IDAuMjkxMDIgMCAwLjM1MTU2bDYuNTU0NyAyLjQxMDJjMC4xNzMxMiAwLjA2MzEgMC4zMjM4Ny0wLjEzNTIyIDAuMjE2OC0wLjI4NTE2LTAuOTk1MTItMS4zODY1LTEuMDAwNy0zLjI0NDQtMmUtMyAtNC42MDE2IDAuMDk2OC0wLjEzMjM5LTAuMDExLTAuMzE2NTItMC4xNzM4Mi0wLjI5Njg3eiIgaWQ9InBhdGg0ODU5Ii8+JiN4YTsgIDwvZz4mI3hhOyAgPGcgaWQ9Imc0ODgxIj4mI3hhOyAgIDxwYXRoIHN0eWxlPSJmb250LWZlYXR1cmUtc2V0dGluZ3M6bm9ybWFsO2ZvbnQtdmFyaWFudC1hbHRlcm5hdGVzOm5vcm1hbDtmb250LXZhcmlhbnQtY2Fwczpub3JtYWw7Zm9udC12YXJpYW50LWVhc3QtYXNpYW46bm9ybWFsO2ZvbnQtdmFyaWFudC1saWdhdHVyZXM6bm9ybWFsO2ZvbnQtdmFyaWFudC1udW1lcmljOm5vcm1hbDtmb250LXZhcmlhbnQtcG9zaXRpb246bm9ybWFsO2ZvbnQtdmFyaWF0aW9uLXNldHRpbmdzOm5vcm1hbDtpbmxpbmUtc2l6ZTowO2lzb2xhdGlvbjphdXRvO21peC1ibGVuZC1tb2RlOm5vcm1hbDtzaGFwZS1tYXJnaW46MDtzaGFwZS1wYWRkaW5nOjA7dGV4dC1kZWNvcmF0aW9uLWNvbG9yOiMwMDAwMDA7dGV4dC1kZWNvcmF0aW9uLWxpbmU6bm9uZTt0ZXh0LWRlY29yYXRpb24tc3R5bGU6c29saWQ7dGV4dC1pbmRlbnQ6MDt0ZXh0LW9yaWVudGF0aW9uOm1peGVkO3RleHQtdHJhbnNmb3JtOm5vbmU7d2hpdGUtc3BhY2U6bm9ybWFsIiBzdG9wLWNvbG9yPSIjMDAwMDAwIiBpbWFnZS1yZW5kZXJpbmc9ImF1dG8iIGNvbG9yLXJlbmRlcmluZz0iYXV0byIgY29sb3I9IiMwMDAwMDAiIGQ9Im02MDcuMDIgMjg3LjA3djI3Ljc2M2gtMTE3LjQ4djFoMTE4LjQ4di0yNy43NjNoMTYwLjY4djEzNy4zOWg0NS4yNzF2LTFoLTQ0LjI3MXYtMTM3LjM5eiIgaWQ9InBhdGg0ODU1Ii8+JiN4YTsgICA8cGF0aCBzdHlsZT0iZm9udC1mZWF0dXJlLXNldHRpbmdzOm5vcm1hbDtmb250LXZhcmlhbnQtYWx0ZXJuYXRlczpub3JtYWw7Zm9udC12YXJpYW50LWNhcHM6bm9ybWFsO2ZvbnQtdmFyaWFudC1lYXN0LWFzaWFuOm5vcm1hbDtmb250LXZhcmlhbnQtbGlnYXR1cmVzOm5vcm1hbDtmb250LXZhcmlhbnQtbnVtZXJpYzpub3JtYWw7Zm9udC12YXJpYW50LXBvc2l0aW9uOm5vcm1hbDtmb250LXZhcmlhdGlvbi1zZXR0aW5nczpub3JtYWw7aW5saW5lLXNpemU6MDtpc29sYXRpb246YXV0bzttaXgtYmxlbmQtbW9kZTpub3JtYWw7c2hhcGUtbWFyZ2luOjA7c2hhcGUtcGFkZGluZzowO3RleHQtZGVjb3JhdGlvbi1jb2xvcjojMDAwMDAwO3RleHQtZGVjb3JhdGlvbi1saW5lOm5vbmU7dGV4dC1kZWNvcmF0aW9uLXN0eWxlOnNvbGlkO3RleHQtaW5kZW50OjA7dGV4dC1vcmllbnRhdGlvbjptaXhlZDt0ZXh0LXRyYW5zZm9ybTpub25lO3doaXRlLXNwYWNlOm5vcm1hbCIgc3RvcC1jb2xvcj0iIzAwMDAwMCIgaW1hZ2UtcmVuZGVyaW5nPSJhdXRvIiBjb2xvci1yZW5kZXJpbmc9ImF1dG8iIGNvbG9yPSIjMDAwMDAwIiBkPSJtNDkyLjExIDMxMi43NWMtMC4wMTQgMmUtMyAtMC4wMjc4IDVlLTMgLTAuMDQxIDAuMDFsLTYuNTU0NyAyLjQxMDJjLTAuMTY2NTUgMC4wNTktMC4xNjY1NSAwLjI5NDUzIDAgMC4zNTM1Mmw2LjU1NDcgMi40MTAyYzAuMTczMTEgMC4wNjMxIDAuMzIzODUtMC4xMzUyMiAwLjIxNjc5LTAuMjg1MTYtMC45OTUxMi0xLjM4NjUtMC45OTg3LTMuMjQ0NCAwLTQuNjAxNiAwLjA5NzgtMC4xMzMxOC0wLjAxMi0wLjMxODU5LTAuMTc1NzgtMC4yOTY4OHoiIGlkPSJwYXRoNDg1MSIvPiYjeGE7ICA8L2c+JiN4YTsgPC9nPiYjeGE7IDxyZWN0IHN0cm9rZS13aWR0aD0iMi42IiBzdHJva2UtbWl0ZXJsaW1pdD0iMS40MTQiIHN0cm9rZS1kYXNoYXJyYXk9IjIwLjgsIDIuNiIgc3Ryb2tlPSIjMzM2ZGU1IiBvcGFjaXR5PSIuOTUiIGZpbGw9Im5vbmUiIHJ5PSIxOC45MTYiIGhlaWdodD0iNDU5Ljc5IiB3aWR0aD0iMzUxLjcxIiB5PSI0MC44NzIiIHg9IjQwLjk1OSIgaWQ9InJlY3QxMDUxIi8+JiN4YTsgPGcgaWQ9Imc0NTYwIj4mI3hhOyAgPHRleHQgZm9udC1zaXplPSIxMnB4IiBmb250LWZhbWlseT0iJ09wZW4gU2FucycsIHNhbnMtc2VyaWYiIHk9IjUwMC42ODc3NyIgeD0iMTE0OC40NjA0IiBjbGFzcz0iY2xzLTIyIiBpZD0idGV4dDI3MCI+PHRzcGFuIHN0eWxlPSJmb250LXZhcmlhbnQtY2Fwczpub3JtYWw7Zm9udC12YXJpYW50LWVhc3QtYXNpYW46bm9ybWFsO2ZvbnQtdmFyaWFudC1saWdhdHVyZXM6bm9ybWFsO2ZvbnQtdmFyaWFudC1udW1lcmljOm5vcm1hbCIgdGV4dC1hbmNob3I9ImVuZCIgZm9udC13ZWlnaHQ9IjYwMCIgZm9udC1zaXplPSIxNC42NjdweCIgZm9udC1mYW1pbHk9IidPcGVuIFNhbnMnIiBpZD0idHNwYW4xMDQ3Ij5Db250cm9sIHBsYW5lPC90c3Bhbj48L3RleHQ+JiN4YTsgIDx0ZXh0IGZvbnQtc2l6ZT0iMTJweCIgZm9udC1mYW1pbHk9IidPcGVuIFNhbnMnLCBzYW5zLXNlcmlmIiB5PSI0NTYuODc5NzkiIHg9IjExNDguMDIzNiIgY2xhc3M9ImNscy0yMiIgaWQ9InRleHQyNzAtMSI+PHRzcGFuIHN0eWxlPSJmb250LXZhcmlhbnQtY2Fwczpub3JtYWw7Zm9udC12YXJpYW50LWVhc3QtYXNpYW46bm9ybWFsO2ZvbnQtdmFyaWFudC1saWdhdHVyZXM6bm9ybWFsO2ZvbnQtdmFyaWFudC1udW1lcmljOm5vcm1hbCIgdGV4dC1hbmNob3I9ImVuZCIgZm9udC13ZWlnaHQ9IjYwMCIgZm9udC1zaXplPSIxNC42NjdweCIgZm9udC1mYW1pbHk9IidPcGVuIFNhbnMnIiBpZD0idHNwYW4xMDQ3LTciPlNjaGVkdWxlcjwvdHNwYW4+PC90ZXh0PiYjeGE7ICA8ZyB0cmFuc2Zvcm09InRyYW5zbGF0ZSgtMTM3LjU3IC01NS4zNTYpIiBpZD0idXNlMTc5NyI+JiN4YTsgICA8ZyBkYXRhLW5hbWU9ImxheWVyMSIgdHJhbnNmb3JtPSJtYXRyaXgoLjcxOTE5IDAgMCAuNzE5MTkgOTkyLjA1IDE4MC4wNCkiIGlkPSJnMTY5MSI+JiN4YTsgICAgPGcgZGF0YS1uYW1lPSJnNzAiIGlkPSJnMTY4MyI+JiN4YTsgICAgIDxwYXRoIGRhdGEtbmFtZT0icGF0aDMwNTUiIGQ9Im00NjUuNDUgNDEzLjI0YTQuNCA0LjQgMCAwIDAtMS43MSAwLjQzbC0yMy4zOCAxMS4xM2E0LjQzIDQuNDMgMCAwIDAtMi40MiAzbC01Ljc3IDI1YTQuMzYgNC4zNiAwIDAgMCAwLjYxIDMuMzkgMi44IDIuOCAwIDAgMCAwLjI1IDAuMzVsMTYuMTggMjAuMDZhNC41IDQuNSAwIDAgMCAzLjUgMS42NmgyNmE0LjUgNC41IDAgMCAwIDMuNS0xLjY2bDE2LjE4LTIwLjA2YTQuMzUgNC4zNSAwIDAgMCAwLjg2LTMuNzRsLTUuNzctMjVhNC40NCA0LjQ0IDAgMCAwLTIuNDItM2wtMjMuMzktMTEuMTNhNC40OSA0LjQ5IDAgMCAwLTIuMjItMC40M3oiIGNsYXNzPSJjbHMtMTEiIGlkPSJwYXRoMTY3OSIvPiYjeGE7ICAgICA8cGF0aCBkYXRhLW5hbWU9InBhdGgzMDU0LTItOSIgZD0ibTQ2NS40NCA0MTEuNDNhNC43MyA0LjczIDAgMCAwLTEuODEgMC40NWwtMjQuNjMgMTEuNzZhNC42NiA0LjY2IDAgMCAwLTIuNTYgMy4xNmwtNi4wOSAyNi40YTQuNjUgNC42NSAwIDAgMCAwLjY0IDMuNThsMC4yNyAwLjM3IDE3LjA5IDIxLjE4YTQuNzIgNC43MiAwIDAgMCAzLjY5IDEuNzVoMjcuNGE0Ljc2IDQuNzYgMCAwIDAgMy42OS0xLjc2bDE3LjA4LTIxLjE3YTQuNjQgNC42NCAwIDAgMCAwLjkxLTMuOTVsLTYuMTItMjYuNGE0LjY5IDQuNjkgMCAwIDAtMi41NS0zLjE3bC0yNC42OS0xMS43NWE0Ljc1IDQuNzUgMCAwIDAtMi4zMi0wLjQ1em0wIDEuODFhNC41MiA0LjUyIDAgMCAxIDIuMTcgMC40M2wyMy4zOSAxMS4xM2E0LjQyIDQuNDIgMCAwIDEgMi40MSAzbDUuNzggMjVhNC4zNSA0LjM1IDAgMCAxLTAuODYgMy43NGwtMTYuMTggMjAuMDZhNC41IDQuNSAwIDAgMS0zLjUgMS42NmgtMjZhNC41IDQuNSAwIDAgMS0zLjUtMS42NmwtMTYuMTUtMjAuMDVjLTAuMDktMC4xMS0wLjE4LTAuMjMtMC4yNi0wLjM1YTQuNCA0LjQgMCAwIDEtMC42LTMuMzlsNS43Ny0yNWE0LjQzIDQuNDMgMCAwIDEgMi40Mi0zbDIzLjM4LTExLjEzYTQuNCA0LjQgMCAwIDEgMS43MS0wLjQzeiIgY2xhc3M9ImNscy0xMyIgaWQ9InBhdGgxNjgxIi8+JiN4YTsgICAgPC9nPiYjeGE7ICAgIDxnIGRhdGEtbmFtZT0idGV4dDIwNjYiIGNsYXNzPSJjbHMtMTQiIGlkPSJnMTY4NyI+JiN4YTsgICAgIDx0ZXh0IHRyYW5zZm9ybT0idHJhbnNsYXRlKDQ1MS4wOCw0NzIuNzcpIiBjbGFzcz0iY2xzLTE3IiBpZD0idGV4dDE2ODUiPnNjaGVkPC90ZXh0PiYjeGE7ICAgIDwvZz4mI3hhOyAgICA8cGF0aCBkYXRhLW5hbWU9InBhdGgxOTg0IiBkPSJtNDY1LjYxIDQyNC4yNmMtMC41NCAwLTE1LjcyIDcuNDItMTUuOTIgNy44LTAuNDggMC45Mi0zLjkzIDE2LjgtMy43MyAxNy4xNHMyLjYxIDMuMzUgNS41MyA3bDUuMzEgNi42MmgxNy40OWw1LjU3LTYuOTMgNS41Ni02LjkyLTEuOTUtOC41MWMtMS4wNy00LjY4LTItOC41OS0yLjEyLTguNjgtMC4yOC0wLjI2LTE1LjQ0LTcuNTEtMTUuNzQtNy41MnptMC45MyA3Ljc4YzAuNzQgMCAwLjgxIDEuMTQgMi4zOSAxLjI2IDIuMDUgMC4xNSAxLjgzLTEuNzUgMy40LTAuNDNzLTAuMzUgMS40MyAwLjE0IDMuNDIgMi4yNCAxLjIgMS40NiAzLjEtMS40NyAwLjEtMy4yMiAxLjE4LTAuNDUgMi41LTIuNTEgMi4zNC0wLjU1LTEuMzUtMi4xMi0yLjY4LTIuNTIgMC4zNC0zLTEuNjUgMS4xMy0wLjk1IDEuOTEtMi44NS0xLjExLTIuMjggMC42NC0zLjM2YTIuNzggMi43OCAwIDAgMSAwLjU2LTAuMjcgMSAxIDAgMCAxIDAuMzYtMC4wNnptMi4wNiAyLjI0YTIuODkgMi44OSAwIDAgMC0wLjg4IDAuMTMgMyAzIDAgMSAwIDAuODgtMC4xM3ptLTExLjc4IDUuMTFhMi4yMSAyLjIxIDAgMCAxIDAuNTggMC4xMWMxLjg5IDAuNTggMCAxLjU3IDEuMzIgM3MyLjQ3LTAuNCAyLjkxIDEuNTItMS4zNyAwLjc2LTEuOTUgMi42NCAxLjU4IDEuOTQgMC4xMyAzLjI4LTEuMzQtMC44MS0zLjI3LTAuMzctMC44OSAyLjM0LTIuNzggMS43NiAwLTEuNTctMS4zMi0zLTIuNDcgMC40LTIuOTItMS41MiAxLjM4LTAuNzYgMi0yLjY0LTEuNTgtMS45NC0wLjE0LTMuMjggMS4zNSAwLjgxIDMuMjggMC4zNmMxLjY4LTAuMzggMS4xLTEuODggMi4yLTEuODZ6bTE0IDIuMDZhMiAyIDAgMCAxIDAuNjcgMC4xNWMyLjE4IDAuODUtMC42OSAyLjE1IDEgMy43NXMyLjg2LTEuMyAzLjggMC44My0yIDEtMS45NSAzLjM2IDIuOTUgMS4wOSAyLjEgMy4yNi0yLjE1LTAuNjktMy43NiAxIDEuMzEgMi44NS0wLjgzIDMuNzktMS0yLTMuMzctMS45NS0xLjEgMi45NC0zLjI3IDIuMSAwLjY5LTIuMTUtMS0zLjc1LTIuODYgMS4zLTMuODEtMC44MyAyLTEgMi0zLjM2LTIuOTUtMS4wOS0yLjExLTMuMjYgMi4xNSAwLjY5IDMuNzctMS0xLjMxLTIuODUgMC44My0zLjc5IDEgMiAzLjM2IDEuOTVjMi4wNS0wLjA1IDEuMzYtMi4yNiAyLjYxLTIuMjV6bS0xNS4yOCAxYTMgMyAwIDEgMCAzIDMgMyAzIDAgMCAwLTIuOTYtM3ptMTIuODEgMi44NWE0LjM4IDQuMzggMCAxIDAgNC4zOSA0LjM3IDQuMzcgNC4zNyAwIDAgMC00LjM1LTQuMzd6IiBjbGFzcz0iY2xzLTEzIiBpZD0icGF0aDE2ODkiLz4mI3hhOyAgIDwvZz4mI3hhOyAgPC9nPiYjeGE7ICA8dGV4dCBzdHlsZT0iZm9udC12YXJpYW50LWNhcHM6bm9ybWFsO2ZvbnQtdmFyaWFudC1lYXN0LWFzaWFuOm5vcm1hbDtmb250LXZhcmlhbnQtbGlnYXR1cmVzOm5vcm1hbDtmb250LXZhcmlhbnQtbnVtZXJpYzpub3JtYWwiIHRleHQtYW5jaG9yPSJlbmQiIGZvbnQtd2VpZ2h0PSI2MDAiIGZvbnQtc2l6ZT0iMTQuNjY3cHgiIGZvbnQtZmFtaWx5PSInT3BlbiBTYW5zJyIgeT0iMTA2LjA2OTk4IiB4PSIxMTQ4LjAyMzYiIGNsYXNzPSJjbHMtMjIiIGlkPSJ0ZXh0MjcwLTEtMS01Ij48dHNwYW4geT0iMTA2LjA2OTk4IiB4PSIxMTQ4LjAyMzYiIGlkPSJ0c3BhbjQ1OTkiPkNsb3VkIGNvbnRyb2xsZXI8L3RzcGFuPjx0c3BhbiB5PSIxMjQuNDAzMzYiIHg9IjExNDguMDIzNiIgaWQ9InRzcGFuNDYwMSI+bWFuYWdlcjwvdHNwYW4+PHRzcGFuIGZvbnQtc3R5bGU9Iml0YWxpYyIgeT0iMTQyLjczNjc0IiB4PSIxMTQ4LjAyMzYiIGlkPSJ0c3BhbjQ2MDMiPihvcHRpb25hbCk8L3RzcGFuPjwvdGV4dD4mI3hhOyAgPGcgdHJhbnNmb3JtPSJ0cmFuc2xhdGUoLTEzOC45NCAtNTQuMzg3KSIgaWQ9InVzZTE2MDMiPiYjeGE7ICAgPGcgZGF0YS1uYW1lPSJsYXllcjEiIHRyYW5zZm9ybT0ibWF0cml4KC43ODU3IDAgMCAuNzg1NyA5NjMuNDUgNjQuMDM0KSIgaWQ9ImcyMzU5Ij4mI3hhOyAgICA8ZyBkYXRhLW5hbWU9Imc3MCIgaWQ9ImcyMzUxIj4mI3hhOyAgICAgPHBhdGggZGF0YS1uYW1lPSJwYXRoMzA1NSIgZD0ibTQ2Mi40OCAxMDkuNzJhNC4zMyA0LjMzIDAgMCAwLTEuNjUgMC40MmwtMjIuNTUgMTAuNzdhNC4yOSA0LjI5IDAgMCAwLTIuMzMgMi45bC01LjU2IDI0LjE5YTQuMjIgNC4yMiAwIDAgMCAwLjU5IDMuMjggMi42MiAyLjYyIDAgMCAwIDAuMjQgMC4zNGwxNS42MSAxOS4zOGE0LjI5IDQuMjkgMCAwIDAgMy4zNyAxLjYxaDI1YTQuMzQgNC4zNCAwIDAgMCAzLjM3LTEuNmwxNS42LTE5LjQxYTQuMjIgNC4yMiAwIDAgMCAwLjgzLTMuNmwtNS41Ny0yNC4xOWE0LjI3IDQuMjcgMCAwIDAtMi4zMy0yLjlsLTIyLjU1LTEwLjc3YTQuMzEgNC4zMSAwIDAgMC0yLjA3LTAuNDJ6IiBjbGFzcz0iY2xzLTExIiBpZD0icGF0aDIzNDciLz4mI3hhOyAgICAgPHBhdGggZGF0YS1uYW1lPSJwYXRoMzA1NC0yLTkiIGQ9Im00NjIuNDcgMTA4YTQuNTYgNC41NiAwIDAgMC0xLjc0IDAuNDRsLTIzLjggMTEuMzdhNC41MyA0LjUzIDAgMCAwLTIuNDcgMy4wNmwtNS44NyAyNS41NWE0LjQ5IDQuNDkgMCAwIDAgMC42MiAzLjQ2bDAuMjYgMC4zNiAxNi40NyAyMC40OGE0LjU3IDQuNTcgMCAwIDAgMy41NiAxLjdoMjYuNDJhNC41NiA0LjU2IDAgMCAwIDMuNTYtMS42OWwxNi40Ni0yMC40OWE0LjQ0IDQuNDQgMCAwIDAgMC44OC0zLjgxbC01Ljg4LTI1LjU1YTQuNSA0LjUgMCAwIDAtMi40Ni0zLjA2bC0yMy44LTExLjM3YTQuNTcgNC41NyAwIDAgMC0yLjIxLTAuNDV6bTAgMS43NWE0LjMxIDQuMzEgMCAwIDEgMi4wOSAwLjQybDIyLjU1IDEwLjc3YTQuMjcgNC4yNyAwIDAgMSAyLjMzIDIuOWw1LjU2IDI0LjE2YTQuMjEgNC4yMSAwIDAgMS0wLjgzIDMuNjJsLTE1LjU4IDE5LjM4YTQuMzEgNC4zMSAwIDAgMS0zLjM3IDEuNmgtMjVhNC4zMyA0LjMzIDAgMCAxLTMuMzgtMS42MWwtMTUuNi0xOS40Yy0wLjA5LTAuMTEtMC4xNy0wLjIyLTAuMjUtMC4zNGE0LjI2IDQuMjYgMCAwIDEtMC41OC0zLjI4bDUuNTYtMjQuMmE0LjI5IDQuMjkgMCAwIDEgMi4zMy0yLjlsMjIuNTUtMTAuNzdhNC4zMyA0LjMzIDAgMCAxIDEuNjUtMC40MnoiIGNsYXNzPSJjbHMtMTMiIGlkPSJwYXRoMjM0OSIvPiYjeGE7ICAgIDwvZz4mI3hhOyAgICA8ZyBkYXRhLW5hbWU9InRleHQyMDY2IiBjbGFzcz0iY2xzLTE0IiBpZD0iZzIzNTUiPiYjeGE7ICAgICA8dGV4dCB0cmFuc2Zvcm09InRyYW5zbGF0ZSg0NDkuNDYsMTY3LjMyKSIgY2xhc3M9ImNscy0xOSIgaWQ9InRleHQyMzUzIj5jLWMtbTwvdGV4dD4mI3hhOyAgICA8L2c+JiN4YTsgICAgPHBhdGggZGF0YS1uYW1lPSJwYXRoMTk4NCIgZD0ibTQ2Mi42NCAxMjAuMzljLTAuNTMgMC0xNS4xNyA3LjE4LTE1LjM2IDcuNTUtMC40NiAwLjg4LTMuNzkgMTYuMjUtMy41OSAxNi41OHMyLjUxIDMuMjMgNS4zMyA2Ljc2bDUuMTIgNi40aDE2Ljg2bDUuMzYtNi43IDUuMzctNi43LTEuODgtOC4yM2MtMS00LjUzLTItOC4zMS0yLjA1LTguNC0wLjI3LTAuMjUtMTQuODktNy4yNi0xNS4xNy03LjI3em0wLjkgNy41MmMwLjcgMCAwLjc4IDEuMTEgMi4yOSAxLjIyIDIgMC4xNSAxLjc3LTEuNjkgMy4yOC0wLjQxcy0wLjMzIDEuMzggMC4xNCAzLjMxIDIuMTYgMS4xNSAxLjQgMy0xLjQxIDAuMS0zLjEgMS4xNS0wLjQzIDIuNDEtMi40MSAyLjI2LTAuNTQtMS4zMS0yLjA1LTIuNi0yLjQzIDAuMzQtMi45LTEuNTkgMS4wOC0wLjkyIDEuODMtMi43NS0xLjA2LTIuMjEgMC42My0zLjI1YTIuNDUgMi40NSAwIDAgMSAwLjU0LTAuMjcgMC45MiAwLjkyIDAgMCAxIDAuMzUtMC4wNnptMiAyLjE3YTMgMyAwIDAgMC0wLjg0IDAuMTIgMi44OCAyLjg4IDAgMSAwIDAuODQtMC4xMnptLTExLjM4IDQuOTJhMi40NyAyLjQ3IDAgMCAxIDAuNTYgMC4xMWMxLjgyIDAuNTYgMCAxLjUxIDEuMjcgMi45MXMyLjM4LTAuMzggMi44MSAxLjQ3LTEuMzMgMC43My0xLjg5IDIuNTYgMS41MyAxLjg3IDAuMTMgMy4xNy0xLjI5LTAuNzgtMy4xNS0wLjM1LTAuODYgMi4yNS0yLjY4IDEuNjkgMC0xLjUxLTEuMjctMi45MS0yLjM5IDAuMzgtMi44Mi0xLjQ3IDEuMzMtMC43MyAxLjg5LTIuNTYtMS41My0xLjg3LTAuMTMtMy4xNyAxLjMgMC43OCAzLjE1IDAuMzZjMS42My0wLjM4IDEuMDctMS44MiAyLjEzLTEuODF6bTEzLjU0IDJhMS44MSAxLjgxIDAgMCAxIDAuNjQgMC4xNGMyLjEgMC44Mi0wLjY2IDIuMDggMSAzLjYzczIuNzctMS4yNiAzLjY3IDAuOC0xLjkzIDEtMS44OCAzLjI1IDIuODQgMS4wNiAyIDMuMTYtMi4wNy0wLjY3LTMuNjMgMSAxLjI2IDIuNzYtMC44IDMuNjctMS0xLjk0LTMuMjUtMS44OS0xLjA2IDIuODUtMy4xNiAyIDAuNjctMi4wNy0xLTMuNjMtMi43NiAxLjI3LTMuNjctMC43OSAxLjk0LTEgMS44OS0zLjI1LTIuODUtMS4wNi0yLTMuMTYgMi4wNyAwLjY3IDMuNjMtMS0xLjI2LTIuNzYgMC44LTMuNjcgMSAxLjkzIDMuMjQgMS44OGMyIDAgMS4zMS0yLjE5IDIuNTItMi4xN3ptLTE0LjcgMWEyLjg4IDIuODggMCAxIDAgMi44NyAyLjg4IDIuODggMi44OCAwIDAgMC0yLjg3LTIuODh6bTEyLjM1IDIuNzZhNC4yMyA0LjIzIDAgMSAwIDQuMjQgNC4yMyA0LjIzIDQuMjMgMCAwIDAtNC4yOC00LjI1eiIgY2xhc3M9ImNscy0xMyIgaWQ9InBhdGgyMzU3Ii8+JiN4YTsgICA8L2c+JiN4YTsgIDwvZz4mI3hhOyAgPHRleHQgc3R5bGU9ImZvbnQtdmFyaWFudC1jYXBzOm5vcm1hbDtmb250LXZhcmlhbnQtZWFzdC1hc2lhbjpub3JtYWw7Zm9udC12YXJpYW50LWxpZ2F0dXJlczpub3JtYWw7Zm9udC12YXJpYW50LW51bWVyaWM6bm9ybWFsIiBmb250LXdlaWdodD0iNjAwIiBmb250LXNpemU9IjE0LjY2N3B4IiBmb250LWZhbWlseT0iJ09wZW4gU2FucyciIHk9IjE4Ni4xMDExNyIgeD0iMTE0OC4wMjM2IiBjbGFzcz0iY2xzLTIyIiBpZD0idGV4dDI3MC0xLTEtNS04Ij48dHNwYW4gdGV4dC1hbmNob3I9ImVuZCIgeT0iMTg2LjEwMTE3IiB4PSIxMTQ4LjAyMzYiIGlkPSJ0c3BhbjQ2MDUiPkNvbnRyb2xsZXI8L3RzcGFuPjx0c3BhbiB5PSIyMDQuNDM0NTQiIHg9IjExNDguMDIzNiIgaWQ9InRzcGFuNDYwNyI+PHRzcGFuIHRleHQtYW5jaG9yPSJlbmQiIGlkPSJ0c3BhbjQ2MDkiPm1hbmFnZTwvdHNwYW4+cjwvdHNwYW4+PC90ZXh0PiYjeGE7ICA8ZyB0cmFuc2Zvcm09InRyYW5zbGF0ZSgtMTM4LjQ0IC01My40MTgpIiBpZD0idXNlMTYzNSI+JiN4YTsgICA8ZyBkYXRhLW5hbWU9ImxheWVyMSIgdHJhbnNmb3JtPSJtYXRyaXgoLjc4MzQ1IDAgMCAuNzgzNDUgMTExMS4yIDEzMC44MSkiIGlkPSJnMTYyNSI+JiN4YTsgICAgPGcgZGF0YS1uYW1lPSJnNzAiIGlkPSJnMTYxNyI+JiN4YTsgICAgIDxwYXRoIGRhdGEtbmFtZT0icGF0aDMwNTUiIGQ9Im0yNzUuMjQgMTA4LjVhNC4zMyA0LjMzIDAgMCAwLTEuNjIgMC4zOWwtMjIuMTggMTAuMTFhNCA0IDAgMCAwLTIuMjkgMi43MmwtNS40NyAyMi43MmEzLjgzIDMuODMgMCAwIDAgMC41NyAzLjA4bDAuMjQgMC4zMiAxNS4zNSAxOC4yMmE0LjM3IDQuMzcgMCAwIDAgMy4zMiAxLjUxaDI0LjYyYTQuMyA0LjMgMCAwIDAgMy4zMS0xLjUxbDE1LjM1LTE4LjIxYTMuOSAzLjkgMCAwIDAgMC44Mi0zLjRsLTUuNDgtMjIuNzJhNC4wOCA0LjA4IDAgMCAwLTIuMy0yLjcybC0yMi4xOC0xMC4xMmE0LjQxIDQuNDEgMCAwIDAtMi4wNi0wLjM5eiIgY2xhc3M9ImNscy0xMSIgaWQ9InBhdGgxNjEzIi8+JiN4YTsgICAgIDxwYXRoIGRhdGEtbmFtZT0icGF0aDMwNTQtMi05IiBkPSJtMjc1LjIzIDEwNi44NWE0LjYyIDQuNjIgMCAwIDAtMS43MSAwLjQybC0yMy40MSAxMC42N2E0LjMyIDQuMzIgMCAwIDAtMi40MyAyLjg4bC01Ljc3IDI0YTQgNCAwIDAgMCAwLjYxIDMuMjVjMC4wOCAwLjEyIDAuMTYgMC4yMyAwLjI1IDAuMzRsMTYuMjMgMTkuMjFhNC42MSA0LjYxIDAgMCAwIDMuNTEgMS41OWgyNmE0LjU4IDQuNTggMCAwIDAgMy41LTEuNmwxNi4yLTE5LjIzYTQgNCAwIDAgMCAwLjg2LTMuNThsLTUuNzgtMjRhNC4yNiA0LjI2IDAgMCAwLTIuNDItMi44N2wtMjMuNDEtMTAuNjhhNC43OSA0Ljc5IDAgMCAwLTIuMjMtMC40em0wIDEuNjVhNC40MSA0LjQxIDAgMCAxIDIuMDYgMC4zOWwyMi4xOSAxMC4xMWE0LjA4IDQuMDggMCAwIDEgMi4zIDIuNzJsNS40OCAyMi43MmEzLjkgMy45IDAgMCAxLTAuODIgMy40bC0xNS4zNSAxOC4yMWE0LjMgNC4zIDAgMCAxLTMuMzEgMS41MWgtMjQuNjJhNC4zNyA0LjM3IDAgMCAxLTMuMzItMS41MWwtMTUuMzUtMTguMjItMC4yNC0wLjMyYTMuODMgMy44MyAwIDAgMS0wLjU3LTMuMDhsNS40Ny0yMi43MWE0IDQgMCAwIDEgMi4yOS0yLjczbDIyLjE4LTEwLjExYTQuMzMgNC4zMyAwIDAgMSAxLjYyLTAuMzl6IiBjbGFzcz0iY2xzLTEzIiBpZD0icGF0aDE2MTUiLz4mI3hhOyAgICA8L2c+JiN4YTsgICAgPGcgZGF0YS1uYW1lPSJ0ZXh0MjA2NiIgY2xhc3M9ImNscy0xNCIgaWQ9ImcxNjIxIj4mI3hhOyAgICAgPHRleHQgdHJhbnNmb3JtPSJtYXRyaXgoMS4wNSwwLDAsMSwyNjYuODMsMTYyLjU3KSIgY2xhc3M9ImNscy0yMCIgaWQ9InRleHQxNjE5Ij5jLW08L3RleHQ+JiN4YTsgICAgPC9nPiYjeGE7ICAgIDxwYXRoIGRhdGEtbmFtZT0icGF0aDE5ODQiIGQ9Im0yNzUuNCAxMTguNTFjLTAuNTIgMC0xNC45MiA2Ljc0LTE1LjExIDcuMDktMC40NSAwLjgzLTMuNzMgMTUuMjUtMy41MyAxNS41N3MyLjQ3IDMgNS4yNCA2LjM0bDUgNmgxNi41OWw1LjI4LTYuMjkgNS4yNy02LjI5LTEuODQtNy43M2MtMS00LjI1LTEuOTMtNy44LTItNy44OC0wLjI2LTAuMjQtMTQuNjQtNi44Mi0xNC45Mi02Ljgzem0wLjg4IDcuMDZjMC43IDAgMC43NyAxIDIuMjYgMS4xNSAxLjk1IDAuMTQgMS43NC0xLjU5IDMuMjMtMC4zOXMtMC4zMyAxLjMgMC4xMyAzLjExIDIuMTIgMS4wOCAxLjM4IDIuODEtMS4zOSAwLjEtMyAxLjA4LTAuNDMgMi4yNi0yLjM3IDIuMTItMC41My0xLjIzLTItMi40NC0yLjM5IDAuMzEtMi44NS0xLjUgMS4wNi0wLjg2IDEuODEtMi41OC0xLjA1LTIuMDcgMC42MS0zLjA1YTIuNzEgMi43MSAwIDAgMSAwLjUzLTAuMjUgMS4xNiAxLjE2IDAgMCAxIDAuMzQtMC4wNnptMiAyYTIuOTQgMi45NCAwIDAgMC0wLjg0IDAuMTIgMi42OCAyLjY4IDAgMCAwLTEuODkgMy4zNiAyLjg1IDIuODUgMCAwIDAgMy41MiAxLjggMi42NyAyLjY3IDAgMCAwIDEuODktMy4zNiAyLjggMi44IDAgMCAwLTIuNzMtMS44OHptLTExLjE4IDQuNjRhMiAyIDAgMCAxIDAuNTYgMC4xYzEuNzkgMC41MiAwIDEuNDIgMS4yNSAyLjczczIuMzQtMC4zNiAyLjc2IDEuMzktMS4zIDAuNjgtMS44NSAyLjM5IDEuNSAxLjc2IDAuMTIgMy0xLjI3LTAuNzMtMy4xLTAuMzMtMC44NSAyLjEyLTIuNjQgMS41OSAwLTEuNDItMS4yNS0yLjczLTIuMzQgMC4zNi0yLjc2LTEuMzggMS4zLTAuNjkgMS44NS0yLjQtMS41LTEuNzYtMC4xMy0zIDEuMjggMC43NCAzLjExIDAuMzNjMS42LTAuMzUgMS0xLjcgMi4wOC0xLjY5em0xMy4zMiAxLjg3YTIuMDYgMi4wNiAwIDAgMSAwLjY0IDAuMTRjMi4wNiAwLjc3LTAuNjYgMiAwLjk1IDMuNDFzMi43MS0xLjE5IDMuNjEgMC43NS0xLjkxIDAuOTMtMS44NiAzLjA1IDIuOCAxIDIgMy0yLTAuNjItMy41NyAwLjkxIDEuMjQgMi41OS0wLjc5IDMuNDQtMS0xLjgyLTMuMTktMS43Ny0xIDIuNjctMy4xMSAxLjkgMC42NS0xLjk0LTAuOTUtMy40LTIuNzEgMS4xOC0zLjYxLTAuNzUgMS45MS0wLjk0IDEuODYtMy0yLjgtMS0yLTMgMiAwLjYzIDMuNTctMC45LTEuMjQtMi41OSAwLjc5LTMuNDQgMSAxLjgxIDMuMTkgMS43N2MxLjk0IDAgMS4yOC0yLjA2IDIuNDctMnptLTE0LjQ5IDAuOTFhMi43IDIuNyAwIDEgMCAyLjgzIDIuNyAyLjc3IDIuNzcgMCAwIDAtMi44OC0yLjY5em0xMi4wNyAyLjYyYTQgNCAwIDEgMCA0LjE2IDQgNC4wNyA0LjA3IDAgMCAwLTQuMTYtNHoiIGNsYXNzPSJjbHMtMTMiIGlkPSJwYXRoMTYyMyIvPiYjeGE7ICAgPC9nPiYjeGE7ICA8L2c+JiN4YTsgIDx0ZXh0IGZvbnQtc2l6ZT0iMTJweCIgZm9udC1mYW1pbHk9IidPcGVuIFNhbnMnLCBzYW5zLXNlcmlmIiB5PSIzMjcuMDExNzUiIHg9IjExNDcuMzcxOCIgY2xhc3M9ImNscy0yMiIgaWQ9InRleHQyNzAtMS0yIj48dHNwYW4gc3R5bGU9ImZvbnQtdmFyaWFudC1jYXBzOm5vcm1hbDtmb250LXZhcmlhbnQtZWFzdC1hc2lhbjpub3JtYWw7Zm9udC12YXJpYW50LWxpZ2F0dXJlczpub3JtYWw7Zm9udC12YXJpYW50LW51bWVyaWM6bm9ybWFsIiB0ZXh0LWFuY2hvcj0iZW5kIiBmb250LXdlaWdodD0iNjAwIiBmb250LXN0eWxlPSJpdGFsaWMiIGZvbnQtc2l6ZT0iMTQuNjY3cHgiIGZvbnQtZmFtaWx5PSInT3BlbiBTYW5zJyIgaWQ9InRzcGFuMTA0Ny03LTIiPmt1YmVsZXQ8L3RzcGFuPjwvdGV4dD4mI3hhOyAgPGcgdHJhbnNmb3JtPSJ0cmFuc2xhdGUoLTEzOS4xNiAtNTUuMjEyKSIgaWQ9InVzZTE3MzMiPiYjeGE7ICAgPGcgZGF0YS1uYW1lPSJsYXllcjEiIHRyYW5zZm9ybT0ibWF0cml4KC43NjEwNCAwIDAgLjc2MTA0IDU2Ny4xNyAxNjMuNjUpIiBpZD0iZzE2NTkiPiYjeGE7ICAgIDxnIGRhdGEtbmFtZT0iZzcwIiBpZD0iZzE2NTEiPiYjeGE7ICAgICA8cGF0aCBkYXRhLW5hbWU9InBhdGgzMDU1IiBkPSJtOTk4LjE1IDIzOS4yMmE0LjQ1IDQuNDUgMCAwIDAtMS43MiAwLjQzbC0yMy40MyAxMS4yMWE0LjQ1IDQuNDUgMCAwIDAtMi40MiAzbC01Ljc5IDI1LjE3YTQuNDIgNC40MiAwIDAgMCAwLjYxIDMuNDEgMi44OCAyLjg4IDAgMCAwIDAuMjYgMC4zNWwxNi4yIDIwLjIxYTQuNTIgNC41MiAwIDAgMCAzLjUxIDEuNjdoMjZhNC40OSA0LjQ5IDAgMCAwIDMuNTEtMS42N2wxNi4yMi0yMC4xOGE0LjQyIDQuNDIgMCAwIDAgMC45LTMuODJsLTUuNzktMjUuMTdhNC40OCA0LjQ4IDAgMCAwLTIuNDMtM2wtMjMuNDYtMTEuMmE0LjQ5IDQuNDkgMCAwIDAtMi4xNy0wLjQxeiIgY2xhc3M9ImNscy0xMSIgaWQ9InBhdGgxNjQ3Ii8+JiN4YTsgICAgIDxwYXRoIGRhdGEtbmFtZT0icGF0aDMwNTQtMi05IiBkPSJtOTk4LjEzIDIzNy4zOWE0LjgxIDQuODEgMCAwIDAtMS44MSAwLjQ3bC0yNC43NiAxMS44MmE0LjcxIDQuNzEgMCAwIDAtMi41NiAzLjE5bC02LjExIDI2LjU3YTQuNyA0LjcgMCAwIDAgMC42NCAzLjZsMC4yNyAwLjM4IDE3LjE0IDIxLjMxYTQuNzYgNC43NiAwIDAgMCAzLjcgMS43NmgyNy40OGE0Ljc2IDQuNzYgMCAwIDAgMy43MS0xLjc3bDE3LjE3LTIxLjMxYTQuNjYgNC42NiAwIDAgMCAwLjkxLTRsLTYuMTEtMjYuNThhNC43MyA0LjczIDAgMCAwLTIuNTctMy4xOGwtMjQuNzYtMTEuODNhNC43NyA0Ljc3IDAgMCAwLTIuMzQtMC40M3ptMCAxLjgzYTQuNTIgNC41MiAwIDAgMSAyLjE3IDAuNDNsMjMuNDYgMTEuMmE0LjQ4IDQuNDggMCAwIDEgMi40MyAzbDUuODEgMjUuMTVhNC40MiA0LjQyIDAgMCAxLTAuODcgMy43N2wtMTYuMjIgMjAuMjNhNC41MyA0LjUzIDAgMCAxLTMuNTEgMS42OGgtMjZhNC40OSA0LjQ5IDAgMCAxLTMuNTEtMS42N2wtMTYuMjMtMjAuMTlhMi44OCAyLjg4IDAgMCAxLTAuMjYtMC4zNSA0LjQyIDQuNDIgMCAwIDEtMC42MS0zLjQxbDUuNzktMjUuMTdhNC40NCA0LjQ0IDAgMCAxIDIuNDItM2wyMy40Ni0xMS4yMWE0LjQ1IDQuNDUgMCAwIDEgMS43Mi0wLjQzeiIgY2xhc3M9ImNscy0xMyIgaWQ9InBhdGgxNjQ5Ii8+JiN4YTsgICAgPC9nPiYjeGE7ICAgIDxnIGRhdGEtbmFtZT0idGV4dDIwNjYiIGNsYXNzPSJjbHMtMTQiIGlkPSJnMTY1NSI+JiN4YTsgICAgIDx0ZXh0IHRyYW5zZm9ybT0idHJhbnNsYXRlKDk4MC4wOCwyOTkuMTQpIiBjbGFzcz0iY2xzLTE2IiBpZD0idGV4dDE2NTMiPmt1YmVsZXQ8L3RleHQ+JiN4YTsgICAgPC9nPiYjeGE7ICAgIDxwYXRoIGRhdGEtbmFtZT0icGF0aDE5OTQiIGQ9Im05OTguMzEgMjQ4LjkyYy0wLjU1IDAtMTUuNzggNy40Ny0xNiA3Ljg1LTAuNDggMC45My00IDE2LjkxLTMuNzUgMTcuMjVzMi42MiAzLjM3IDUuNTUgN2w1LjMzIDYuNjdoMTcuNTZsNS41OS03IDUuNTgtNy0yLTguNTZjLTEuMDctNC43MS0yLTguNjQtMi4xMy04Ljc0LTAuMjgtMC4yNi0xNS40OC03LjU1LTE1Ljc4LTcuNTZ6bTAuNzcgMy43NCAzLjU5IDEtMy41OSAxLTMuNTgtMXptLTMuNTggMS40NCAzLjM2IDF2NC42N2wtMy4zNC0xLjg1em03LjE3IDB2My44MmwtMy4zNCAxLjg1di00LjY3em0tOC42NyA2LjM4IDMuNTkgMS0zLjU5IDEtMy41OS0xem04LjcyIDAgMy41OSAxLTMuNTkgMS0zLjU5LTF6bS0xMi4zMSAxLjQzIDMuMzYgMXY0LjY4bC0zLjM0LTEuODZ6bTcuMTggMHYzLjgybC0zLjM1IDEuODZ2LTQuNjh6bTEuNTQgMCAzLjM2IDF2NC42OGwtMy4zNC0xLjg2em03LjE4IDB2My44MmwtMy4zNSAxLjg2di00LjY4em0tMTMuNjIgNmMxLjA2IDAgMC4yNCAxLjExIDEuNDUgMS42OXMxLjU2LTAuOTMgMi4zNyAwLjI1LTAuNzIgMC44OC0wLjYxIDIuMzEgMS41OSAwLjg5IDEgMi4xOC0xLjEzLTAuMTktMi4zMSAwLjYyIDAgMS44Mi0xLjQgMS45NC0wLjQxLTEuMDctMS43LTEuNjktMS41NiAwLjkzLTIuMzctMC4yNSAwLjcyLTAuODggMC42MS0yLjMxLTEuNTktMC44OC0xLTIuMTggMS4xMiAwLjE5IDIuMy0wLjYyIDAtMS44MiAxLjQxLTEuOTR6bTkuMjIgMS40M2MxLjkxIDAuMDUgMC4wNiAxLjg1IDEuOCAyLjYzczEuODQtMS44IDMuMTYtMC40MS0xLjI3IDEuMzQtMC41OSAzLjEzIDIuNTggMCAyLjUyIDEuOTQtMS44NCAwLjA2LTIuNjIgMS44IDEuNzkgMS44NSAwLjQgMy4xNi0xLjM0LTEuMjYtMy4xMi0wLjU4IDAgMi41Ny0yIDIuNTItMC4wNi0xLjg1LTEuOC0yLjYzLTEuODUgMS44LTMuMTYgMC40MSAxLjI3LTEuMzQgMC41OC0zLjEzLTIuNTcgMC0yLjUxLTEuOTQgMS44NC0wLjA2IDIuNjItMS44MS0xLjc5LTEuODQtMC40MS0zLjE1IDEuMzUgMS4yNiAzLjEzIDAuNTggMC4wOS0yLjU4IDItMi41M3ptLTkuMTQgMWEyLjEgMi4xIDAgMSAwIDIuMSAyLjEgMi4xIDIuMSAwIDAgMC0yLjEtMi4xMXptOC45NCAxLjlhNC4yIDQuMiAwIDEgMCA0LjE5IDQuMTkgNC4yIDQuMiAwIDAgMC00LjE5LTQuMnoiIGNsYXNzPSJjbHMtMTMiIGlkPSJwYXRoMTY1NyIvPiYjeGE7ICAgPC9nPiYjeGE7ICA8L2c+JiN4YTsgIDx0ZXh0IGZvbnQtc2l6ZT0iMTJweCIgZm9udC1mYW1pbHk9IidPcGVuIFNhbnMnLCBzYW5zLXNlcmlmIiB5PSIzOTAuMjU1NjgiIHg9IjExNDcuMDIxIiBjbGFzcz0iY2xzLTIyIiBpZD0idGV4dDI3MC0xLTItMiI+PHRzcGFuIHN0eWxlPSJmb250LXZhcmlhbnQtY2Fwczpub3JtYWw7Zm9udC12YXJpYW50LWVhc3QtYXNpYW46bm9ybWFsO2ZvbnQtdmFyaWFudC1saWdhdHVyZXM6bm9ybWFsO2ZvbnQtdmFyaWFudC1udW1lcmljOm5vcm1hbCIgdGV4dC1hbmNob3I9ImVuZCIgZm9udC13ZWlnaHQ9IjYwMCIgZm9udC1zdHlsZT0iaXRhbGljIiBmb250LXNpemU9IjE0LjY2N3B4IiBmb250LWZhbWlseT0iJ09wZW4gU2FucyciIGlkPSJ0c3BhbjEwNDctNy0yLTkiPmt1YmUtcHJveHk8L3RzcGFuPjwvdGV4dD4mI3hhOyAgPGcgdHJhbnNmb3JtPSJ0cmFuc2xhdGUoLTEzNy44NSAtNTQuNjc2KSIgaWQ9InVzZTE3NjUiPiYjeGE7ICAgPGcgZGF0YS1uYW1lPSJsYXllcjEiIHRyYW5zZm9ybT0ibWF0cml4KC42ODYzNSAwIDAgLjY4NjM1IDY0MS43NiAxODUuODYpIiBpZD0iZzE2NzUiPiYjeGE7ICAgIDxnIGRhdGEtbmFtZT0iZzcwIiBpZD0iZzE2NjciPiYjeGE7ICAgICA8cGF0aCBkYXRhLW5hbWU9InBhdGgzMDU1IiBkPSJtOTk4LjEzIDMyOC40NGE0Ljc1IDQuNzUgMCAwIDAtMS44MSAwLjQ2bC0yNC43NyAxMS44M2E0LjcyIDQuNzIgMCAwIDAtMi41NyAzLjE5bC02LjExIDI2LjU5YTQuNyA0LjcgMCAwIDAgMC42NCAzLjZsMC4yNyAwLjM4IDE3LjE1IDIxLjMyYTQuNzMgNC43MyAwIDAgMCAzLjcgMS43NmgyNy41YTQuNzYgNC43NiAwIDAgMCAzLjcxLTEuNzdsMTcuMTYtMjEuMzJhNC42NyA0LjY3IDAgMCAwIDAuOTEtNGwtNi4xMi0yNi41OGE0LjY5IDQuNjkgMCAwIDAtMi41Ni0zLjE5bC0yNC43OC0xMS44M2E0Ljc3IDQuNzcgMCAwIDAtMi4zMi0wLjQ0eiIgY2xhc3M9ImNscy0xMSIgaWQ9InBhdGgxNjYzIi8+JiN4YTsgICAgIDxwYXRoIGRhdGEtbmFtZT0icGF0aDMwNTQtMi05IiBkPSJtOTk4LjEyIDMyNi41MWE1LjA5IDUuMDkgMCAwIDAtMS45MSAwLjQ5bC0yNi4xNiAxMi40OWE1IDUgMCAwIDAtMi43IDMuMzdsLTYuNDUgMjguMDdhNC45IDQuOSAwIDAgMCAwLjY3IDMuOGMwLjA5IDAuMTQgMC4xOSAwLjI3IDAuMjkgMC40bDE4LjEgMjIuNWE1IDUgMCAwIDAgMy45MSAxLjg3aDI5YTUgNSAwIDAgMCAzLjkxLTEuODZsMTguMDktMjIuNTFhNC45MiA0LjkyIDAgMCAwIDEtNC4ybC02LjQ2LTI4LjA3YTUgNSAwIDAgMC0yLjcxLTMuMzZsLTI2LjE1LTEyLjVhNS4xIDUuMSAwIDAgMC0yLjQzLTAuNDl6bTAgMS45M2E0Ljc3IDQuNzcgMCAwIDEgMi4zIDAuNDZsMjQuNzggMTEuODNhNC42OSA0LjY5IDAgMCAxIDIuNTYgMy4xOWw2LjEyIDI2LjU5YTQuNjYgNC42NiAwIDAgMS0wLjkxIDRsLTE3LjE0IDIxLjMyYTQuNzYgNC43NiAwIDAgMS0zLjcxIDEuNzdoLTI3LjVhNC43NCA0Ljc0IDAgMCAxLTMuNy0xLjc3bC0xNy4xNS0yMS4zMi0wLjI3LTAuMzhhNC42NiA0LjY2IDAgMCAxLTAuNjQtMy42bDYuMTQtMjYuNjFhNC43MiA0LjcyIDAgMCAxIDIuNTYtMy4xOGwyNC43OC0xMS44NGE0Ljc1IDQuNzUgMCAwIDEgMS44MS0wLjQ2eiIgY2xhc3M9ImNscy0xMyIgaWQ9InBhdGgxNjY1Ii8+JiN4YTsgICAgPC9nPiYjeGE7ICAgIDxnIGRhdGEtbmFtZT0idGV4dDIwNjYiIGNsYXNzPSJjbHMtMTQiIGlkPSJnMTY3MSI+JiN4YTsgICAgIDx0ZXh0IHRyYW5zZm9ybT0idHJhbnNsYXRlKDk3OC43NSwzOTEuNzMpIiBjbGFzcz0iY2xzLTE1IiBpZD0idGV4dDE2NjkiPmstcHJveHk8L3RleHQ+JiN4YTsgICAgPC9nPiYjeGE7ICAgIDxwYXRoIGRhdGEtbmFtZT0icGF0aDE5OTQiIGQ9Im05OTguMzEgMzM4LjY5Yy0wLjU4IDAtMTYuNjcgNy44OS0xNi44OCA4LjI5LTAuNSAxLTQuMTYgMTcuODYtMy45NSAxOC4yMyAwLjEzIDAuMjEgMi43NiAzLjU1IDUuODYgNy40Mmw1LjYzIDdoMTguNTNsNS44OS03LjM3IDUuOS03LjM2LTIuMDYtOWMtMS4xNC01LTIuMTUtOS4xMy0yLjI2LTkuMjMtMC4yOS0wLjI4LTE2LjM1LTgtMTYuNjYtOHptMC44MSAzLjk1IDMuOCAxLjEtMy44IDEuMS0zLjc5LTEuMXptLTMuNzkgMS41MiAzLjU1IDEuMDZ2NC45M2wtMy41NC0yem03LjU5IDB2NGwtMy41NCAydi00Ljkzem0tOS4xNyA2LjczIDMuNzkgMS4xLTMuNzkgMS4xLTMuNzUtMS4wOXptOS4yMSAwIDMuNzkgMS4xLTMuNzkgMS4xLTMuNzktMS4xem0tMTMgMS41MiAzLjU1IDEuMDZ2NC45M2wtMy41MS0xLjk1em03LjU4IDB2NGwtMy41NCAxLjk5di00Ljkzem0xLjYzIDAgMy41NSAxLjA2djQuOTNsLTMuNTMtMS45NXptNy41OCAwdjRsLTMuNTMgMS45NXYtNC45M3ptLTE0LjM5IDYuMzJjMS4xMyAwIDAuMjYgMS4xOCAxLjU0IDEuNzlzMS42NS0xIDIuNTEgMC4yNi0wLjc3IDAuOTMtMC42NCAyLjQ0IDEuNjcgMC45NCAxIDIuMzEtMS4xOS0wLjItMi40NCAwLjY2IDAgMS45Mi0xLjQ4IDItMC40Mi0xLjEzLTEuNzktMS43OC0xLjY1IDEtMi41MS0wLjI3IDAuNzctMC45MyAwLjY1LTIuNDMtMS42OC0wLjk0LTEtMi4zMSAxLjE5IDAuMiAyLjQ0LTAuNjYgMC0xLjkyIDEuNDgtMnptOS43NSAxLjUyYzIgMC4wNSAwLjA2IDEuOTUgMS45IDIuNzdzMi0xLjg5IDMuMzMtMC40My0xLjMzIDEuNDItMC42MSAzLjMxIDIuNzIgMCAyLjY2IDIuMDUtMS45NSAwLjA2LTIuNzcgMS45IDEuODkgMS45NSAwLjQzIDMuMzQtMS40Mi0xLjM0LTMuMzEtMC42MiAwIDIuNzItMiAyLjY2LTAuMDYtMi0xLjktMi43Ny0yIDEuODktMy4zNCAwLjQzIDEuMzMtMS40MiAwLjYxLTMuMzEtMi43MSAwLTIuNjYtMi4wNSAyLTAuMDYgMi43OC0xLjktMS45LTEuOTUtMC40My0zLjM0IDEuNDIgMS4zNCAzLjMgMC42Mi0wLjAxLTIuNzIgMi4wMS0yLjY2em0tOS42NiAxLjA1YTIuMjIgMi4yMiAwIDEgMCAyLjIyIDIuMjIgMi4yMiAyLjIyIDAgMCAwLTIuMjItMi4yMnptOS40NSAyYTQuNDMgNC40MyAwIDEgMCA0LjQzIDQuNDMgNC40MyA0LjQzIDAgMCAwLTQuNDMtNC40MnoiIGNsYXNzPSJjbHMtMTMiIGlkPSJwYXRoMTY3MyIvPiYjeGE7ICAgPC9nPiYjeGE7ICA8L2c+JiN4YTsgIDxnIGZvbnQtc2l6ZT0iMTQuNjY3cHgiIGZvbnQtZmFtaWx5PSInT3BlbiBTYW5zJyIgdHJhbnNmb3JtPSJ0cmFuc2xhdGUoLTEzNy41MSAtMzM3LjQpIiBpZD0iZzIxNjQiPiYjeGE7ICAgPHRleHQgc3R5bGU9ImZvbnQtdmFyaWFudC1jYXBzOm5vcm1hbDtmb250LXZhcmlhbnQtZWFzdC1hc2lhbjpub3JtYWw7Zm9udC12YXJpYW50LWxpZ2F0dXJlczpub3JtYWw7Zm9udC12YXJpYW50LW51bWVyaWM6bm9ybWFsIiB5PSI1ODcuMjcxMTgiIHg9IjExNTkuNTkwNSIgY2xhc3M9ImNscy0yMiIgaWQ9InRleHQyNzAtMS0yLTkiPjx0c3BhbiBzdHlsZT0iZm9udC12YXJpYW50LWNhcHM6bm9ybWFsO2ZvbnQtdmFyaWFudC1lYXN0LWFzaWFuOm5vcm1hbDtmb250LXZhcmlhbnQtbGlnYXR1cmVzOm5vcm1hbDtmb250LXZhcmlhbnQtbnVtZXJpYzpub3JtYWwiIHk9IjU4Ny4yNzExOCIgeD0iMTE1OS41OTA1IiBpZD0idHNwYW4yMTI3Ii8+PHRzcGFuIHN0eWxlPSJmb250LXZhcmlhbnQtY2Fwczpub3JtYWw7Zm9udC12YXJpYW50LWVhc3QtYXNpYW46bm9ybWFsO2ZvbnQtdmFyaWFudC1saWdhdHVyZXM6bm9ybWFsO2ZvbnQtdmFyaWFudC1udW1lcmljOm5vcm1hbCIgeT0iNjA1LjYwNDU1IiB4PSIxMTU5LjU5MDUiIGlkPSJ0c3BhbjIxMjkiPihwZXJzaXN0ZW5jZSBzdG9yZSk8L3RzcGFuPjwvdGV4dD4mI3hhOyAgIDx0ZXh0IHN0eWxlPSJmb250LXZhcmlhbnQtY2Fwczpub3JtYWw7Zm9udC12YXJpYW50LWVhc3QtYXNpYW46bm9ybWFsO2ZvbnQtdmFyaWFudC1saWdhdHVyZXM6bm9ybWFsO2ZvbnQtdmFyaWFudC1udW1lcmljOm5vcm1hbCIgeT0iNTcxLjM2MDc4IiB4PSIxMjU1LjI0MjkiIGNsYXNzPSJjbHMtMjIiIGlkPSJ0ZXh0MjcwLTEtMi05LTAiPjx0c3BhbiBzdHlsZT0iZm9udC12YXJpYW50LWNhcHM6bm9ybWFsO2ZvbnQtdmFyaWFudC1lYXN0LWFzaWFuOm5vcm1hbDtmb250LXZhcmlhbnQtbGlnYXR1cmVzOm5vcm1hbDtmb250LXZhcmlhbnQtbnVtZXJpYzpub3JtYWwiIHk9IjU3MS4zNjA3OCIgeD0iMTI1NS4yNDI5IiBpZD0idHNwYW4yMTI3LTQiLz48dHNwYW4gc3R5bGU9ImZvbnQtdmFyaWFudC1jYXBzOm5vcm1hbDtmb250LXZhcmlhbnQtZWFzdC1hc2lhbjpub3JtYWw7Zm9udC12YXJpYW50LWxpZ2F0dXJlczpub3JtYWw7Zm9udC12YXJpYW50LW51bWVyaWM6bm9ybWFsIiB5PSI1ODkuNjk0MTUiIHg9IjEyNTUuMjQyOSIgaWQ9InRzcGFuMjEyOS0xIj5ldGNkPC90c3Bhbj48L3RleHQ+JiN4YTsgIDwvZz4mI3hhOyAgPGcgdHJhbnNmb3JtPSJ0cmFuc2xhdGUoLTEzOC4zOCAtNTMuODQzKSIgaWQ9InVzZTE2NjgiPiYjeGE7ICAgPGcgZGF0YS1uYW1lPSJsYXllcjEiIHRyYW5zZm9ybT0ibWF0cml4KC43ODg4OSAwIDAgLjc4ODg5IDExMDkuNyAtNDIuOTAxKSIgaWQ9ImcxNjQzIj4mI3hhOyAgICA8ZyBkYXRhLW5hbWU9Imc3MCIgaWQ9ImcxNjMzIj4mI3hhOyAgICAgPHBhdGggZGF0YS1uYW1lPSJwYXRoMzA1NSIgZD0ibTI3Ni40NSA0MTEuNDJhNC4zIDQuMyAwIDAgMC0xLjYzIDAuMzJsLTIyLjMgOWE0IDQgMCAwIDAtMi4zNyAyLjU1bC02LjE1IDIxLjc2YTMuNjUgMy42NSAwIDAgMCAwLjQ4IDMgMy40NiAzLjQ2IDAgMCAwIDAuMjIgMC4zMWwxNC42NCAxOC4wOGE0LjM2IDQuMzYgMCAwIDAgMy4yMyAxLjU3bDI0LjQxIDAuOGE0LjM1IDQuMzUgMCAwIDAgMy4zMy0xLjM1bDE1Ljc5LTE3LjA2YTMuNjcgMy42NyAwIDAgMCAwLjkzLTMuMjVsLTQuNzEtMjIuMDlhNCA0IDAgMCAwLTIuMTktMi43MWwtMjEuNjYtMTAuNDhhNC41MSA0LjUxIDAgMCAwLTIuMDItMC40NXoiIGNsYXNzPSJjbHMtMTEiIGlkPSJwYXRoMTYyOSIvPiYjeGE7ICAgICA8cGF0aCBkYXRhLW5hbWU9InBhdGgzMDU0LTItOSIgZD0ibTI3Ni40OSA0MDkuODNhNC43IDQuNyAwIDAgMC0xLjcxIDAuMzVsLTIzLjU2IDkuNTJhNC4xOCA0LjE4IDAgMCAwLTIuNDkgMi42OWwtNi40OSAyMi45NGEzLjg1IDMuODUgMCAwIDAgMC41IDMuMTYgMiAyIDAgMCAwIDAuMjQgMC4zM2wxNS40NSAxOS4wOWE0LjU5IDQuNTkgMCAwIDAgMy40MSAxLjY1bDI1Ljc2IDAuODVhNC42MiA0LjYyIDAgMCAwIDMuNTItMS40MmwxNi42OC0xOGEzLjg2IDMuODYgMCAwIDAgMS0zLjQzbC01LTIzLjMyYTQuMTcgNC4xNyAwIDAgMC0yLjMxLTIuODVsLTIyLjg2LTExLjA5YTQuNzggNC43OCAwIDAgMC0yLjE0LTAuNDd6bTAgMS41OWE0LjUxIDQuNTEgMCAwIDEgMiAwLjQ0bDIxLjY2IDEwLjQ4YTQgNCAwIDAgMSAyLjE5IDIuNzFsNC43IDIyLjA5YTMuNjMgMy42MyAwIDAgMS0wLjkyIDMuMjVsLTE1Ljc5IDE3LjA3YTQuMzggNC4zOCAwIDAgMS0zLjMzIDEuMzRsLTI0LjQtMC44YTQuMzQgNC4zNCAwIDAgMS0zLjIzLTEuNTdsLTE0LjY3LTE4LjA4LTAuMjMtMC4zMWEzLjY5IDMuNjkgMCAwIDEtMC40Ny0zbDYuMTUtMjEuNzNhNCA0IDAgMCAxIDIuMzYtMi41NWwyMi4zMS05YTQuNzMgNC43MyAwIDAgMSAxLjYzLTAuMzJ6IiBjbGFzcz0iY2xzLTEzIiBpZD0icGF0aDE2MzEiLz4mI3hhOyAgICA8L2c+JiN4YTsgICAgPGcgZGF0YS1uYW1lPSJ0ZXh0MjA2NiIgY2xhc3M9ImNscy0xNCIgaWQ9ImcxNjM3Ij4mI3hhOyAgICAgPHRleHQgdHJhbnNmb3JtPSJtYXRyaXgoMS4wNzk0IC4wMzU4MDggLS4wMzMxNTUgLjk5OTQ1IDI2NS4yNCA0NjMuMjYpIiBjbGFzcz0iY2xzLTIzIiBpZD0idGV4dDE2MzUiPmV0Y2Q8L3RleHQ+JiN4YTsgICAgPC9nPiYjeGE7ICAgIDxwYXRoIGQ9Im0yNzYuMjggNDIxLjA4Yy0wLjUxIDAtMTUgNi0xNS4yIDYuMzQtMC40OCAwLjc5LTQuMTkgMTQuNTktNCAxNC45czIuMzYgMyA1IDYuMjlsNC44IDYgOC4yMiAwLjI4IDguMjMgMC4yNyA1LjQzLTUuODkgNS40My01LjktMS41OC03LjUxYy0wLjg3LTQuMTQtMS42Ni03LjU5LTEuNzUtNy42Ny0wLjI1LTAuMjQtMTQuMjktNy4wNi0xNC41Ny03LjA4eiIgY2xhc3M9ImNscy0xMyIgaWQ9InBhdGgxNjM5Ii8+JiN4YTsgICAgPHBhdGggZD0ibTI5MS4wNSA0NDAuMzdoLTAuNDZhNi4zIDYuMyAwIDAgMS0yLjYyLTAuNjYgMjEgMjEgMCAwIDAgMC41LTQuMzIgMjMuODYgMjMuODYgMCAwIDAtMi45MS0zLjQyIDUuNzcgNS43NyAwIDAgMSAyLjItMmwwLjQtMC4yMS0wLjMtMC4zM2ExNS44NCAxNS44NCAwIDAgMC01LjQyLTMuOTRsLTAuNDItMC4xOS0wLjEyIDAuNDFhNS40MyA1LjQzIDAgMCAxLTEuNTggMi40OSAyNS40MSAyNS40MSAwIDAgMC00LjMtMS44MSAyNSAyNSAwIDAgMC00LjM5IDEuNTIgNS40NCA1LjQ0IDAgMCAxLTEuNDItMi41OGwtMC4wOS0wLjQyLTAuNDMgMC4xNmExNiAxNiAwIDAgMC01LjY5IDMuNTNsLTAuMzEgMC4zMSAwLjM4IDAuMjNhNS43IDUuNyAwIDAgMSAyLjA1IDIuMTggMjMuNTMgMjMuNTMgMCAwIDAtMy4xMiAzLjIgMjEuMzcgMjEuMzcgMCAwIDAgMC4yIDQuMzcgNi4zNiA2LjM2IDAgMCAxLTIuNjQgMC40OCAzLjQ0IDMuNDQgMCAwIDEtMC40NiAwaC0wLjQ1djAuNDNhMTMuOSAxMy45IDAgMCAwIDEuOTMgNi4xM2wwLjIyIDAuMzggMC4zNi0wLjI3YTYuMjMgNi4yMyAwIDAgMSAyLjg2LTEuMTMgMjIuOTIgMjIuOTIgMCAwIDAgMi4zIDMuNzQgMjYuNDYgMjYuNDYgMCAwIDAgNC41NSAxLjIgNS4xMSA1LjExIDAgMCAxLTAuNDggMi44OWwtMC4xOCAwLjM5IDAuNDQgMC4xMWExNi44MyAxNi44MyAwIDAgMCAzLjQzIDAuNDZsMy40NC0wLjI0IDAuNDUtMC4wNy0wLjE2LTAuNGE1LjE1IDUuMTUgMCAwIDEtMC4yOC0yLjkyIDI1LjgyIDI1LjgyIDAgMCAwIDQuNi0wLjkgMjEuNzIgMjEuNzIgMCAwIDAgMi41NC0zLjU4IDYuMDcgNi4wNyAwIDAgMSAyLjggMS4zM2wwLjM0IDAuMjggMC4yNS0wLjM2YTEzLjkxIDEzLjkxIDAgMCAwIDIuMzMtNmwwLjA2LTAuNDJ6bS0xMC43MyA0LjgzYTIwIDIwIDAgMCAxLTkuODMtMC4zMyAxNy4xNiAxNy4xNiAwIDAgMS0yLTQuMTggMTYuMjIgMTYuMjIgMCAwIDEtMC43NC00LjU1IDE4LjQ0IDE4LjQ0IDAgMCAxIDMuNjctMyAxOS4zNCAxOS4zNCAwIDAgMSA0LjQyLTIuMDUgMTkuNTcgMTkuNTcgMCAwIDEgNC4yNiAyLjM0IDE4LjM4IDE4LjM4IDAgMCAxIDMuNDggMy4yOSAxNi4xOSAxNi4xOSAwIDAgMS0xLjA1IDQuNDcgMTcuMDkgMTcuMDkgMCAwIDEtMi4yMSA0LjAxem0tMy4zMi03LjM5YTIuMDggMi4wOCAwIDAgMCA0LjE1IDAuMTQgMi4wOCAyLjA4IDAgMCAwLTQuMTUtMC4xNHptLTIuNjktMC4wOWEyLjA4IDIuMDggMCAxIDEtMi0yIDIgMiAwIDAgMSAyIDJ6IiBjbGFzcz0iY2xzLTExIiBpZD0icGF0aDE2NDEiLz4mI3hhOyAgIDwvZz4mI3hhOyAgPC9nPiYjeGE7ICA8dGV4dCBmb250LXNpemU9IjEycHgiIGZvbnQtZmFtaWx5PSInT3BlbiBTYW5zJywgc2Fucy1zZXJpZiIgeT0iNTUwLjc2Njg1IiB4PSIxMTQ4LjQ2MDQiIGNsYXNzPSJjbHMtMjIiIGlkPSJ0ZXh0MjU3LTAtOC03Ij48dHNwYW4gc3R5bGU9ImZvbnQtdmFyaWFudC1jYXBzOm5vcm1hbDtmb250LXZhcmlhbnQtZWFzdC1hc2lhbjpub3JtYWw7Zm9udC12YXJpYW50LWxpZ2F0dXJlczpub3JtYWw7Zm9udC12YXJpYW50LW51bWVyaWM6bm9ybWFsIiB0ZXh0LWFuY2hvcj0iZW5kIiBmb250LXdlaWdodD0iNjAwIiBmb250LXNpemU9IjE0LjY2N3B4IiBmb250LWZhbWlseT0iJ09wZW4gU2FucyciIGlkPSJ0c3BhbjEzMTItNS0wLTUiPk5vZGU8L3RzcGFuPjwvdGV4dD4mI3hhOyAgPHBhdGggZD0ibTExNjguNiA1MTkuMzktMSAwLjIyLTEuNzUgMS42OC0xLjM3IDIuNzQtMC43OCAzLjgydjMzLjYwMmwwLjc4IDMuOCAxLjM3IDMgMS43NSAxLjQ3IDEgMC4yaDM4LjkwOWwxLjA3LTAuMiAxLjc2LTEuNDcgMS4yNjk5LTMgMC43OC0zLjh2LTMzLjYwMmwtMC43OC0zLjgyLTEuMjY5OS0yLjc0LTEuNzYtMS42OC0xLjA3LTAuMjJ6IiBjbGFzcz0iY2xzLTgiIGlkPSJwYXRoMjIwMiIvPiYjeGE7ICA8dGV4dCBmb250LXNpemU9IjEycHgiIGZvbnQtZmFtaWx5PSInT3BlbiBTYW5zJywgc2Fucy1zZXJpZiIgeT0iNjcuNDc3MzcxIiB4PSIxMDc2LjQ2NjEiIGNsYXNzPSJjbHMtMjIiIGlkPSJ0ZXh0MjcwLTEtMSI+PHRzcGFuIHN0eWxlPSJmb250LXZhcmlhbnQtY2Fwczpub3JtYWw7Zm9udC12YXJpYW50LWVhc3QtYXNpYW46bm9ybWFsO2ZvbnQtdmFyaWFudC1saWdhdHVyZXM6bm9ybWFsO2ZvbnQtdmFyaWFudC1udW1lcmljOm5vcm1hbCIgZm9udC13ZWlnaHQ9IjYwMCIgZm9udC1zaXplPSIxNC42NjdweCIgZm9udC1mYW1pbHk9IidPcGVuIFNhbnMnIiBpZD0idHNwYW4xMDQ3LTctMSI+QVBJIHNlcnZlcjwvdHNwYW4+PC90ZXh0PiYjeGE7ICA8ZyB0cmFuc2Zvcm09InRyYW5zbGF0ZSgtMTM3LjkgLTU1LjM1NikiIGlkPSJ1c2UxNTE4Ij4mI3hhOyAgIDxnIGRhdGEtbmFtZT0ibGF5ZXIxIiB0cmFuc2Zvcm09Im1hdHJpeCguNzgwOTggMCAwIC43ODA5OCA5NjQuNzUgLTExMy42NCkiIGlkPSJnMTYwOSI+JiN4YTsgICAgPGcgZGF0YS1uYW1lPSJnNzAiIGlkPSJnMTYwMSI+JiN4YTsgICAgIDxwYXRoIGRhdGEtbmFtZT0icGF0aDMwNTUiIGQ9Im00NjMuNjEgMjU3LjIyYTQuMzkgNC4zOSAwIDAgMC0xLjYgMC40bC0yMS44MSAxMC40M2E0LjE1IDQuMTUgMCAwIDAtMi4yNiAyLjhsLTUuMzggMjMuNDFhNC4xMiA0LjEyIDAgMCAwIDAuNTcgMy4xNyAzLjQzIDMuNDMgMCAwIDAgMC4yNCAwLjMzbDE1LjA5IDE4Ljc3YTQuMTkgNC4xOSAwIDAgMCAzLjI2IDEuNTVoMjQuMjFhNC4xOSA0LjE5IDAgMCAwIDMuMjYtMS41NWwxNS4wOS0xOC43OGE0LjEyIDQuMTIgMCAwIDAgMC44MS0zLjVsLTUuMzktMjMuNGE0LjE2IDQuMTYgMCAwIDAtMi4yNi0yLjgxbC0yMS44MS0xMC40MmE0LjE2IDQuMTYgMCAwIDAtMi4wMi0wLjR6IiBjbGFzcz0iY2xzLTExIiBpZD0icGF0aDE1OTciLz4mI3hhOyAgICAgPHBhdGggZGF0YS1uYW1lPSJwYXRoMzA1NC0yLTkiIGQ9Im00NjMuNiAyNTUuNTNhNC40OCA0LjQ4IDAgMCAwLTEuNjkgMC40MmwtMjMgMTFhNC4zOSA0LjM5IDAgMCAwLTIuMzkgM2wtNS42OCAyNC43MWE0LjMzIDQuMzMgMCAwIDAgMC42IDMuMzRjMC4wOCAwLjEyIDAuMTYgMC4yNCAwLjI1IDAuMzVsMTUuOTQgMTkuODJhNC40MyA0LjQzIDAgMCAwIDMuNDQgMS42NGgyNS41M2E0LjQzIDQuNDMgMCAwIDAgMy40NS0xLjY0bDE1Ljk1LTE5Ljg1YTQuMzkgNC4zOSAwIDAgMCAwLjg1LTMuN2wtNS42OS0yNC43MWE0LjQxIDQuNDEgMCAwIDAtMi4zOC0zbC0yMy0xMWE0LjM1IDQuMzUgMCAwIDAtMi4xOC0wLjM4em0wIDEuNjlhNC4xNyA0LjE3IDAgMCAxIDIgMC40MWwyMS44NCAxMC4zN2E0LjE5IDQuMTkgMCAwIDEgMi4yNiAyLjgxbDUuMzkgMjMuNGE0LjEyIDQuMTIgMCAwIDEtMC44MSAzLjVsLTE1LjA5IDE4Ljc4YTQuMTkgNC4xOSAwIDAgMS0zLjI2IDEuNTVoLTI0LjIxYTQuMTkgNC4xOSAwIDAgMS0zLjI2LTEuNTZsLTE1LjA5LTE4Ljc3YTMuNDMgMy40MyAwIDAgMS0wLjI0LTAuMzMgNC4xMiA0LjEyIDAgMCAxLTAuNTctMy4xN2w1LjM4LTIzLjQxYTQuMTcgNC4xNyAwIDAgMSAyLjI2LTIuOGwyMS44LTEwLjM3YTQuMjEgNC4yMSAwIDAgMSAxLjYtMC40MXoiIGNsYXNzPSJjbHMtMTMiIGlkPSJwYXRoMTU5OSIvPiYjeGE7ICAgIDwvZz4mI3hhOyAgICA8ZyBkYXRhLW5hbWU9InRleHQyMDY2IiBjbGFzcz0iY2xzLTE0IiBpZD0iZzE2MDUiPiYjeGE7ICAgICA8dGV4dCB0cmFuc2Zvcm09InRyYW5zbGF0ZSg0NTcuMDgsMzEyLjk0KSIgY2xhc3M9ImNscy0xOCIgaWQ9InRleHQxNjAzIj5hcGk8L3RleHQ+JiN4YTsgICAgPC9nPiYjeGE7ICAgIDxwYXRoIGRhdGEtbmFtZT0icGF0aDE5ODQiIGQ9Im00NjMuNzYgMjY3LjU0Yy0wLjUxIDAtMTQuNjcgNi45NC0xNC44NiA3LjMtMC40NCAwLjg2LTMuNjYgMTUuNzItMy40NyAxNnMyLjQzIDMuMTMgNS4xNSA2LjU0bDUgNi4yaDE2LjMxbDUuMTktNi40OSA1LjE5LTYuNDgtMS44MS04Yy0xLTQuMzgtMS45LTgtMi04LjEzLTAuMjUtMC4yNC0xNC40LTctMTQuNjctN3ptMC44NyA3LjI4YzAuNjggMCAwLjc1IDEuMDcgMi4yMiAxLjE4IDEuOTEgMC4xNCAxLjcxLTEuNjQgMy4xNy0wLjRzLTAuMzIgMS4zMyAwLjEzIDMuMiAyLjA5IDEuMTIgMS4zNiAyLjg5LTEuMzcgMC4xLTMgMS4xMS0wLjQyIDIuMzQtMi4zNCAyLjE5LTAuNTEtMS4yNy0yLTIuNTEtMi4zNSAwLjMyLTIuOC0xLjU0IDEuMDUtMC44OSAxLjc4LTIuNjctMS0yLjEzIDAuNi0zLjE0YTIuMjggMi4yOCAwIDAgMSAwLjUyLTAuMjYgMC44OCAwLjg4IDAgMCAxIDAuMzQtMC4wNXptMS45MSAyLjFhMi44NiAyLjg2IDAgMCAwLTAuODIgMC4xMiAyLjc3IDIuNzcgMCAxIDAgMC44Mi0wLjEyem0tMTEgNC43OGExLjg0IDEuODQgMCAwIDEgMC41NSAwLjFjMS43NiAwLjU0IDAgMS40NyAxLjIyIDIuODFzMi4zMS0wLjM3IDIuNzMgMS40My0xLjI5IDAuNzEtMS44MyAyLjQ3IDEuNDcgMS44MSAwLjEzIDMuMDctMS4yNi0wLjc2LTMuMDYtMC4zNC0wLjgzIDIuMTgtMi41OSAxLjY0IDAtMS40Ny0xLjIzLTIuODItMi4zMSAwLjM3LTIuNzItMS40MiAxLjI5LTAuNzEgMS44My0yLjQ3LTEuNDgtMS44Mi0wLjEzLTMuMDcgMS4yNiAwLjc1IDMuMDUgMC4zNGMxLjU3LTAuMzYgMS0xLjc2IDIuMDUtMS43NHptMTMuMSAxLjkyYTIuMDggMi4wOCAwIDAgMSAwLjYzIDAuMTVjMiAwLjc5LTAuNjUgMiAwLjkzIDMuNTFzMi42Ny0xLjIyIDMuNTUgMC43Ny0xLjg4IDEtMS44MyAzLjE0IDIuNzUgMSAyIDMuMDYtMi0wLjY1LTMuNTEgMC45MyAxLjIxIDIuNjctMC43OCAzLjU1LTEtMS44Ny0zLjE0LTEuODMtMSAyLjc1LTMuMDUgMiAwLjY0LTItMC45NC0zLjUxLTIuNjcgMS4yMi0zLjU0LTAuNzggMS44Ny0xIDEuODItMy4xNC0yLjc1LTEtMi0zLjA1IDIgMC42NCAzLjUxLTAuOTMtMS4yMi0yLjY3IDAuNzctMy41NSAxIDEuODcgMy4xNCAxLjgyYzEuOTEgMCAxLjI2LTIuMTIgMi40My0yLjExem0tMTQuMjUgMC45NGEyLjc4IDIuNzggMCAxIDAgMi43OCAyLjc4IDIuNzcgMi43NyAwIDAgMC0yLjc3LTIuNzh6bTEyIDIuNjZhNC4xIDQuMSAwIDEgMCA0LjA5IDQuMSA0LjEgNC4xIDAgMCAwLTQuMTMtNC4xeiIgY2xhc3M9ImNscy0xMyIgaWQ9InBhdGgxNjA3Ii8+JiN4YTsgICA8L2c+JiN4YTsgIDwvZz4mI3hhOyAgPHBhdGggc3R5bGU9ImZvbnQtZmVhdHVyZS1zZXR0aW5nczpub3JtYWw7Zm9udC12YXJpYW50LWFsdGVybmF0ZXM6bm9ybWFsO2ZvbnQtdmFyaWFudC1jYXBzOm5vcm1hbDtmb250LXZhcmlhbnQtZWFzdC1hc2lhbjpub3JtYWw7Zm9udC12YXJpYW50LWxpZ2F0dXJlczpub3JtYWw7Zm9udC12YXJpYW50LW51bWVyaWM6bm9ybWFsO2ZvbnQtdmFyaWFudC1wb3NpdGlvbjpub3JtYWw7Zm9udC12YXJpYXRpb24tc2V0dGluZ3M6bm9ybWFsO2lubGluZS1zaXplOjA7aXNvbGF0aW9uOmF1dG87bWl4LWJsZW5kLW1vZGU6bm9ybWFsO3NoYXBlLW1hcmdpbjowO3NoYXBlLXBhZGRpbmc6MDt0ZXh0LWRlY29yYXRpb24tY29sb3I6IzAwMDAwMDt0ZXh0LWRlY29yYXRpb24tbGluZTpub25lO3RleHQtZGVjb3JhdGlvbi1zdHlsZTpzb2xpZDt0ZXh0LWluZGVudDowO3RleHQtb3JpZW50YXRpb246bWl4ZWQ7dGV4dC10cmFuc2Zvcm06bm9uZTt3aGl0ZS1zcGFjZTpub3JtYWwiIHN0b3AtY29sb3I9IiMwMDAwMDAiIHNoYXBlLXJlbmRlcmluZz0iYXV0byIgaW1hZ2UtcmVuZGVyaW5nPSJhdXRvIiBmaWxsLXJ1bGU9ImV2ZW5vZGQiIGZpbGw9IiMzMjZjZTUiIGNvbG9yLXJlbmRlcmluZz0iYXV0byIgY29sb3I9IiMwMDAwMDAiIGQ9Im0xMTU2LjIgNDk1LjIxdjEuNWg5di0xLjV6bTEwLjUgMHYxLjVoOXYtMS41em0xMC41IDB2MS41aDl2LTEuNXptMTAuNSAwdjEuNWg5di0xLjV6bTEwLjUgMHYxLjVoOXYtMS41em0xMC41IDB2MS41aDl2LTEuNXptMTAuNSAwdjEuNWg1LjM4MDl2LTEuNXoiIGlkPSJwYXRoNDM4NyIvPiYjeGE7IDwvZz4mI3hhOzwvc3ZnPg==;fontSize=22;strokeWidth=6;" parent="1" vertex="1">
          <mxGeometry x="480" y="5" width="875.56" height="410" as="geometry" />
        </mxCell>
        <mxCell id="8X-mc3TndRLZHefKCfvU-7" value="&lt;a href=&quot;https://kubernetes.io/docs/concepts/overview/components/&quot;&gt;DOCS&lt;/a&gt;" style="rounded=0;whiteSpace=wrap;html=1;fillColor=#dae8fc;strokeColor=#6c8ebf;" parent="1" vertex="1">
          <mxGeometry x="200" y="100" width="260" height="60" as="geometry" />
        </mxCell>
        <mxCell id="8X-mc3TndRLZHefKCfvU-8" value="&lt;b&gt;&lt;font style=&quot;font-size: 17px;&quot;&gt;Key basic concepts&lt;/font&gt;&lt;/b&gt;" style="rounded=0;whiteSpace=wrap;html=1;fillColor=#f8cecc;strokeColor=#b85450;" parent="1" vertex="1">
          <mxGeometry x="250" y="600" width="210" height="100" as="geometry" />
        </mxCell>
        <mxCell id="8X-mc3TndRLZHefKCfvU-9" value="&lt;b&gt;&lt;font style=&quot;font-size: 35px;&quot;&gt;2&lt;/font&gt;&lt;/b&gt;" style="rounded=0;whiteSpace=wrap;html=1;fillColor=#f8cecc;strokeColor=#b85450;" parent="1" vertex="1">
          <mxGeometry x="200" y="600" width="50" height="100" as="geometry" />
        </mxCell>
        <mxCell id="8X-mc3TndRLZHefKCfvU-10" value="&lt;a href=&quot;https://kubernetes.io/docs/concepts/overview/components/&quot;&gt;DOCS&lt;/a&gt;" style="rounded=0;whiteSpace=wrap;html=1;fillColor=#dae8fc;strokeColor=#6c8ebf;" parent="1" vertex="1">
          <mxGeometry x="200" y="540" width="260" height="60" as="geometry" />
        </mxCell>
        <mxCell id="8X-mc3TndRLZHefKCfvU-14" value="&lt;a href=&quot;https://kubernetes.io/docs/concepts/overview/working-with-objects/namespaces/&quot;&gt;Namespaces&lt;/a&gt;" style="rounded=0;whiteSpace=wrap;html=1;fillColor=#f5f5f5;strokeColor=#666666;fontColor=#333333;" parent="1" vertex="1">
          <mxGeometry x="510" y="560" width="120" height="60" as="geometry" />
        </mxCell>
        <mxCell id="8X-mc3TndRLZHefKCfvU-15" value="&lt;a href=&quot;https://kubernetes.io/docs/reference/setup-tools/kubeadm/&quot;&gt;Kubeadm&lt;/a&gt;" style="rounded=0;whiteSpace=wrap;html=1;fillColor=#e1d5e7;strokeColor=#9673a6;" parent="1" vertex="1">
          <mxGeometry x="630" y="560" width="120" height="60" as="geometry" />
        </mxCell>
        <mxCell id="8X-mc3TndRLZHefKCfvU-16" value="&lt;a href=&quot;https://kubernetes.io/docs/tasks/administer-cluster/kubeadm/kubeadm-upgrade/#upgrading-control-plane-nodes&quot;&gt;Upgrading kubeadm cluster&lt;/a&gt;" style="rounded=0;whiteSpace=wrap;html=1;fillColor=#f5f5f5;strokeColor=#666666;fontColor=#333333;" parent="1" vertex="1">
          <mxGeometry x="510" y="620" width="120" height="60" as="geometry" />
        </mxCell>
        <mxCell id="8X-mc3TndRLZHefKCfvU-17" value="&lt;a href=&quot;https://kubernetes.io/docs/tasks/administer-cluster/configure-upgrade-etcd/#backing-up-an-etcd-cluster&quot;&gt;Backing up &lt;i&gt;ETCD&lt;/i&gt;&lt;/a&gt;" style="rounded=0;whiteSpace=wrap;html=1;fillColor=#e1d5e7;strokeColor=#9673a6;" parent="1" vertex="1">
          <mxGeometry x="630" y="620" width="120" height="60" as="geometry" />
        </mxCell>
        <mxCell id="8X-mc3TndRLZHefKCfvU-18" value="&lt;a href=&quot;https://kubernetes.io/docs/reference/access-authn-authz/rbac/&quot;&gt;RBAC&lt;/a&gt;" style="rounded=0;whiteSpace=wrap;html=1;fillColor=#f5f5f5;strokeColor=#666666;fontColor=#333333;" parent="1" vertex="1">
          <mxGeometry x="750" y="560" width="120" height="60" as="geometry" />
        </mxCell>
        <mxCell id="8X-mc3TndRLZHefKCfvU-19" value="&lt;a href=&quot;https://kubernetes.io/docs/home/&quot;&gt;Kubernetes DOCS&lt;/a&gt;" style="rounded=0;whiteSpace=wrap;html=1;fillColor=#f5f5f5;strokeColor=#666666;fontColor=#333333;" parent="1" vertex="1">
          <mxGeometry x="750" y="620" width="120" height="60" as="geometry" />
        </mxCell>
        <mxCell id="T6Hc4WUhDHhHMKiCZPyU-1" style="edgeStyle=orthogonalEdgeStyle;rounded=0;orthogonalLoop=1;jettySize=auto;html=1;entryX=0;entryY=0.5;entryDx=0;entryDy=0;" parent="1" source="8X-mc3TndRLZHefKCfvU-22" target="T6Hc4WUhDHhHMKiCZPyU-2" edge="1">
          <mxGeometry relative="1" as="geometry">
            <mxPoint x="930" y="520" as="targetPoint" />
          </mxGeometry>
        </mxCell>
        <mxCell id="8X-mc3TndRLZHefKCfvU-22" value="Application Configuration" style="rounded=0;whiteSpace=wrap;html=1;fillColor=#e1d5e7;strokeColor=#9673a6;" parent="1" vertex="1">
          <mxGeometry x="870" y="560" width="120" height="60" as="geometry" />
        </mxCell>
        <mxCell id="8X-mc3TndRLZHefKCfvU-23" value="&lt;a href=&quot;https://kubernetes.io/docs/tasks/configure-pod-container/configure-liveness-readiness-startup-probes/&quot;&gt;Health Probes&lt;/a&gt;" style="rounded=0;whiteSpace=wrap;html=1;fillColor=#f5f5f5;strokeColor=#666666;fontColor=#333333;" parent="1" vertex="1">
          <mxGeometry x="990" y="560" width="120" height="60" as="geometry" />
        </mxCell>
        <mxCell id="8X-mc3TndRLZHefKCfvU-24" value="&lt;a href=&quot;https://kubernetes.io/docs/concepts/configuration/manage-resources-containers/&quot;&gt;Resources&lt;/a&gt;" style="rounded=0;whiteSpace=wrap;html=1;fillColor=#e1d5e7;strokeColor=#9673a6;" parent="1" vertex="1">
          <mxGeometry x="870" y="620" width="120" height="60" as="geometry" />
        </mxCell>
        <mxCell id="8X-mc3TndRLZHefKCfvU-25" value="&lt;a href=&quot;https://kubernetes.io/docs/concepts/workloads/pods/init-containers/&quot;&gt;Init Containers&lt;/a&gt;" style="rounded=0;whiteSpace=wrap;html=1;fillColor=#f5f5f5;strokeColor=#666666;fontColor=#333333;" parent="1" vertex="1">
          <mxGeometry x="990" y="620" width="120" height="60" as="geometry" />
        </mxCell>
        <mxCell id="8X-mc3TndRLZHefKCfvU-26" value="&lt;a href=&quot;https://kubernetes.io/docs/concepts/extend-kubernetes/compute-storage-net/network-plugins/&quot;&gt;Pods in Pending status&lt;/a&gt;" style="rounded=0;whiteSpace=wrap;html=1;fillColor=#e1d5e7;strokeColor=#9673a6;" parent="1" vertex="1">
          <mxGeometry x="1110" y="560" width="120" height="60" as="geometry" />
        </mxCell>
        <mxCell id="8X-mc3TndRLZHefKCfvU-27" value="&lt;a href=&quot;https://kubernetes.io/docs/concepts/services-networking/service/#type-clusterip&quot;&gt;services&lt;/a&gt;" style="rounded=0;whiteSpace=wrap;html=1;fillColor=#e1d5e7;strokeColor=#9673a6;" parent="1" vertex="1">
          <mxGeometry x="1110" y="620" width="120" height="60" as="geometry" />
        </mxCell>
        <mxCell id="8X-mc3TndRLZHefKCfvU-28" value="" style="endArrow=none;html=1;rounded=0;" parent="1" edge="1">
          <mxGeometry width="50" height="50" relative="1" as="geometry">
            <mxPoint x="870" y="770" as="sourcePoint" />
            <mxPoint x="870" y="470" as="targetPoint" />
          </mxGeometry>
        </mxCell>
        <mxCell id="T6Hc4WUhDHhHMKiCZPyU-3" style="edgeStyle=orthogonalEdgeStyle;rounded=0;orthogonalLoop=1;jettySize=auto;html=1;entryX=0;entryY=0.5;entryDx=0;entryDy=0;" parent="1" source="T6Hc4WUhDHhHMKiCZPyU-2" target="T6Hc4WUhDHhHMKiCZPyU-4" edge="1">
          <mxGeometry relative="1" as="geometry">
            <mxPoint x="1160" y="490" as="targetPoint" />
          </mxGeometry>
        </mxCell>
        <mxCell id="T6Hc4WUhDHhHMKiCZPyU-2" value="1. ConfigMaps&lt;br&gt;2. &lt;a href=&quot;https://kubernetes.io/docs/tasks/inject-data-application/distribute-credentials-secure/&quot;&gt;Secrets&lt;/a&gt;" style="rounded=0;whiteSpace=wrap;html=1;fillColor=#d5e8d4;strokeColor=#82b366;" parent="1" vertex="1">
          <mxGeometry x="950" y="460" width="120" height="60" as="geometry" />
        </mxCell>
        <mxCell id="T6Hc4WUhDHhHMKiCZPyU-4" value="1. Environment Variables&lt;br&gt;2. &lt;a href=&quot;https://kubernetes.io/docs/concepts/storage/volumes/&quot;&gt;Configuration Volumes&lt;/a&gt;" style="rounded=0;whiteSpace=wrap;html=1;fillColor=#d5e8d4;strokeColor=#82b366;" parent="1" vertex="1">
          <mxGeometry x="1110" y="450" width="140" height="80" as="geometry" />
        </mxCell>
        <mxCell id="OsIX2F24H8X_kt_dd05O-1" value="&lt;a href=&quot;https://kubernetes.io/docs/concepts/storage/volumes/#hostpath&quot;&gt;hostPath&lt;/a&gt;&lt;br&gt;&lt;a href=&quot;https://kubernetes.io/docs/concepts/storage/volumes/#emptydir&quot;&gt;emptyDir&lt;/a&gt;" style="rounded=0;whiteSpace=wrap;html=1;fillColor=#f5f5f5;strokeColor=#666666;fontColor=#333333;" vertex="1" parent="1">
          <mxGeometry x="1230" y="560" width="120" height="60" as="geometry" />
        </mxCell>
        <mxCell id="OsIX2F24H8X_kt_dd05O-2" value="" style="rounded=0;whiteSpace=wrap;html=1;fillColor=#f5f5f5;strokeColor=#666666;fontColor=#333333;" vertex="1" parent="1">
          <mxGeometry x="1230" y="620" width="120" height="60" as="geometry" />
        </mxCell>
      </root>
    </mxGraphModel>
  </diagram>
</mxfile>
